<mxfile host="app.diagrams.net" agent="Mozilla/5.0 (Macintosh; Intel Mac OS X 10_15_7) AppleWebKit/537.36 (KHTML, like Gecko) Chrome/134.0.0.0 Safari/537.36" version="26.2.15">
  <diagram name="Page-1" id="QgxACAAs9Ak1bUC5_nbX">
    <mxGraphModel dx="8130" dy="5300" grid="1" gridSize="10" guides="1" tooltips="1" connect="1" arrows="1" fold="1" page="1" pageScale="1" pageWidth="850" pageHeight="1100" background="light-dark(#FFFFFF,#FFFFFF)" math="0" shadow="0">
      <root>
        <mxCell id="0" />
        <mxCell id="1" parent="0" />
        <mxCell id="Ni-ygV4cIkI_FydpOJnQ-1" value="&lt;font style=&quot;font-size: 24px;&quot;&gt;Homescreen&lt;/font&gt;" style="swimlane;whiteSpace=wrap;html=1;strokeColor=light-dark(#000000,#050505);strokeWidth=4;startSize=40;" vertex="1" parent="1">
          <mxGeometry x="-1700" y="-520" width="920" height="520" as="geometry" />
        </mxCell>
        <mxCell id="Ni-ygV4cIkI_FydpOJnQ-2" value="" style="rounded=0;whiteSpace=wrap;html=1;strokeColor=#BAC8D3;fontColor=#EEEEEE;fillColor=light-dark(#09555B,#99FF99);" vertex="1" parent="Ni-ygV4cIkI_FydpOJnQ-1">
          <mxGeometry x="45" y="70" width="250" height="130" as="geometry" />
        </mxCell>
        <mxCell id="Ni-ygV4cIkI_FydpOJnQ-3" value="Host" style="text;html=1;align=center;verticalAlign=middle;whiteSpace=wrap;rounded=0;fontColor=#EEEEEE;fontSize=35;fillColor=light-dark(#09555B,#99FF99);" vertex="1" parent="Ni-ygV4cIkI_FydpOJnQ-1">
          <mxGeometry x="75" y="120" width="190" height="30" as="geometry" />
        </mxCell>
        <mxCell id="Ni-ygV4cIkI_FydpOJnQ-4" value="" style="rounded=0;whiteSpace=wrap;html=1;strokeColor=#BAC8D3;fontColor=#EEEEEE;fillColor=light-dark(#09555B,#99FF99);" vertex="1" parent="Ni-ygV4cIkI_FydpOJnQ-1">
          <mxGeometry x="335" y="70" width="250" height="130" as="geometry" />
        </mxCell>
        <mxCell id="Ni-ygV4cIkI_FydpOJnQ-5" value="Join" style="text;html=1;align=center;verticalAlign=middle;whiteSpace=wrap;rounded=0;fontColor=#EEEEEE;fontSize=35;fillColor=light-dark(#09555B,#99FF99);" vertex="1" parent="Ni-ygV4cIkI_FydpOJnQ-1">
          <mxGeometry x="365" y="120" width="190" height="30" as="geometry" />
        </mxCell>
        <mxCell id="Ni-ygV4cIkI_FydpOJnQ-6" value="" style="rounded=0;whiteSpace=wrap;html=1;strokeColor=#BAC8D3;fontColor=#EEEEEE;fillColor=light-dark(#09555B,#99FF99);" vertex="1" parent="Ni-ygV4cIkI_FydpOJnQ-1">
          <mxGeometry x="625" y="70" width="250" height="130" as="geometry" />
        </mxCell>
        <mxCell id="Ni-ygV4cIkI_FydpOJnQ-7" value="Test" style="text;html=1;align=center;verticalAlign=middle;whiteSpace=wrap;rounded=0;fontColor=#EEEEEE;fontSize=35;fillColor=light-dark(#09555B,#99FF99);" vertex="1" parent="Ni-ygV4cIkI_FydpOJnQ-1">
          <mxGeometry x="655" y="120" width="190" height="30" as="geometry" />
        </mxCell>
        <mxCell id="Ni-ygV4cIkI_FydpOJnQ-208" value="" style="rounded=0;whiteSpace=wrap;html=1;strokeColor=#BAC8D3;fontColor=#EEEEEE;fillColor=light-dark(#09555B,#FFFF99);" vertex="1" parent="Ni-ygV4cIkI_FydpOJnQ-1">
          <mxGeometry x="45" y="240" width="250" height="130" as="geometry" />
        </mxCell>
        <mxCell id="Ni-ygV4cIkI_FydpOJnQ-209" value="Exit Program" style="text;html=1;align=center;verticalAlign=middle;whiteSpace=wrap;rounded=0;fontColor=#EEEEEE;fontSize=35;fillColor=light-dark(#09555B,#FFFF99);" vertex="1" parent="Ni-ygV4cIkI_FydpOJnQ-1">
          <mxGeometry x="75" y="290" width="190" height="30" as="geometry" />
        </mxCell>
        <mxCell id="Ni-ygV4cIkI_FydpOJnQ-8" value="&lt;font&gt;Multiplayer Game Screen&lt;/font&gt;" style="swimlane;whiteSpace=wrap;html=1;strokeWidth=4;strokeColor=light-dark(#000000,#000000);fontSize=15;" vertex="1" parent="1">
          <mxGeometry x="-460" y="-470" width="490" height="330" as="geometry" />
        </mxCell>
        <mxCell id="Ni-ygV4cIkI_FydpOJnQ-9" value="" style="rounded=0;whiteSpace=wrap;html=1;strokeColor=#BAC8D3;fontColor=#EEEEEE;fillColor=light-dark(#09555B,#99FF99);" vertex="1" parent="Ni-ygV4cIkI_FydpOJnQ-8">
          <mxGeometry x="20" y="40" width="210" height="110" as="geometry" />
        </mxCell>
        <mxCell id="Ni-ygV4cIkI_FydpOJnQ-10" value="Settings" style="text;html=1;align=center;verticalAlign=middle;whiteSpace=wrap;rounded=0;fontColor=#EEEEEE;fontSize=35;fillColor=light-dark(#09555B,#99FF99);" vertex="1" parent="Ni-ygV4cIkI_FydpOJnQ-8">
          <mxGeometry x="95" y="80" width="60" height="30" as="geometry" />
        </mxCell>
        <mxCell id="Ni-ygV4cIkI_FydpOJnQ-11" value="&lt;font&gt;Escape Menu&lt;/font&gt;" style="swimlane;whiteSpace=wrap;html=1;strokeWidth=4;strokeColor=light-dark(#000000,#000000);fontSize=15;" vertex="1" parent="1">
          <mxGeometry x="100" y="-470" width="490" height="330" as="geometry" />
        </mxCell>
        <mxCell id="Ni-ygV4cIkI_FydpOJnQ-12" value="" style="rounded=0;whiteSpace=wrap;html=1;strokeColor=#BAC8D3;fontColor=#EEEEEE;fillColor=light-dark(#09555B,#99FF99);" vertex="1" parent="Ni-ygV4cIkI_FydpOJnQ-11">
          <mxGeometry x="20" y="40" width="210" height="110" as="geometry" />
        </mxCell>
        <mxCell id="Ni-ygV4cIkI_FydpOJnQ-13" value="Resume" style="text;html=1;align=center;verticalAlign=middle;whiteSpace=wrap;rounded=0;fontColor=#EEEEEE;fontSize=35;fillColor=light-dark(#09555B,#99FF99);" vertex="1" parent="Ni-ygV4cIkI_FydpOJnQ-11">
          <mxGeometry x="95" y="80" width="60" height="30" as="geometry" />
        </mxCell>
        <mxCell id="Ni-ygV4cIkI_FydpOJnQ-14" value="" style="rounded=0;whiteSpace=wrap;html=1;strokeColor=#BAC8D3;fontColor=#EEEEEE;fillColor=light-dark(#09555B,#99FF99);" vertex="1" parent="Ni-ygV4cIkI_FydpOJnQ-11">
          <mxGeometry x="260" y="40" width="210" height="110" as="geometry" />
        </mxCell>
        <mxCell id="Ni-ygV4cIkI_FydpOJnQ-15" value="Quit" style="text;html=1;align=center;verticalAlign=middle;whiteSpace=wrap;rounded=0;fontColor=#EEEEEE;fontSize=35;fillColor=light-dark(#09555B,#99FF99);" vertex="1" parent="Ni-ygV4cIkI_FydpOJnQ-11">
          <mxGeometry x="335" y="80" width="60" height="30" as="geometry" />
        </mxCell>
        <mxCell id="Ni-ygV4cIkI_FydpOJnQ-16" value="" style="rounded=0;whiteSpace=wrap;html=1;strokeColor=#BAC8D3;fontColor=#EEEEEE;fillColor=light-dark(#09555B,#FFFF99);" vertex="1" parent="Ni-ygV4cIkI_FydpOJnQ-11">
          <mxGeometry x="20" y="180" width="210" height="110" as="geometry" />
        </mxCell>
        <mxCell id="Ni-ygV4cIkI_FydpOJnQ-17" value="Keybinds" style="text;html=1;align=center;verticalAlign=middle;whiteSpace=wrap;rounded=0;fontColor=#EEEEEE;fontSize=35;fillColor=light-dark(#09555B,#FFFF99);" vertex="1" parent="Ni-ygV4cIkI_FydpOJnQ-11">
          <mxGeometry x="95" y="220" width="60" height="30" as="geometry" />
        </mxCell>
        <mxCell id="Ni-ygV4cIkI_FydpOJnQ-18" value="" style="rounded=0;whiteSpace=wrap;html=1;strokeColor=#BAC8D3;fontColor=#EEEEEE;fillColor=light-dark(#09555B,#FFFF99);" vertex="1" parent="Ni-ygV4cIkI_FydpOJnQ-11">
          <mxGeometry x="260" y="180" width="210" height="110" as="geometry" />
        </mxCell>
        <mxCell id="Ni-ygV4cIkI_FydpOJnQ-19" value="Game Settings" style="text;html=1;align=center;verticalAlign=middle;whiteSpace=wrap;rounded=0;fontColor=#EEEEEE;fontSize=35;fillColor=light-dark(#09555B,#FFFF99);" vertex="1" parent="Ni-ygV4cIkI_FydpOJnQ-11">
          <mxGeometry x="335" y="220" width="60" height="30" as="geometry" />
        </mxCell>
        <mxCell id="Ni-ygV4cIkI_FydpOJnQ-20" style="edgeStyle=orthogonalEdgeStyle;rounded=0;orthogonalLoop=1;jettySize=auto;html=1;entryX=0.5;entryY=0;entryDx=0;entryDy=0;strokeColor=light-dark(#000000,#000000);strokeWidth=8;" edge="1" parent="1" source="Ni-ygV4cIkI_FydpOJnQ-12" target="Ni-ygV4cIkI_FydpOJnQ-8">
          <mxGeometry relative="1" as="geometry">
            <Array as="points">
              <mxPoint x="230" y="-540" />
              <mxPoint x="-215" y="-540" />
            </Array>
          </mxGeometry>
        </mxCell>
        <mxCell id="Ni-ygV4cIkI_FydpOJnQ-22" value="&lt;font&gt;Keybinds Menu&lt;/font&gt;" style="swimlane;whiteSpace=wrap;html=1;strokeWidth=4;strokeColor=light-dark(#000000,#000000);fontSize=15;" vertex="1" parent="1">
          <mxGeometry x="700" y="-470" width="580" height="330" as="geometry" />
        </mxCell>
        <mxCell id="Ni-ygV4cIkI_FydpOJnQ-23" value="&lt;font style=&quot;font-size: 24px;&quot;&gt;Forward&lt;/font&gt;" style="rounded=0;whiteSpace=wrap;html=1;strokeColor=#BAC8D3;fontColor=#EEEEEE;fillColor=light-dark(#09555B,#FFFF99);" vertex="1" parent="Ni-ygV4cIkI_FydpOJnQ-22">
          <mxGeometry x="20" y="40" width="120" height="60" as="geometry" />
        </mxCell>
        <mxCell id="Ni-ygV4cIkI_FydpOJnQ-24" value="&lt;font style=&quot;font-size: 24px;&quot;&gt;Back&lt;/font&gt;" style="rounded=0;whiteSpace=wrap;html=1;strokeColor=#BAC8D3;fontColor=#EEEEEE;fillColor=light-dark(#09555B,#FFFF99);" vertex="1" parent="Ni-ygV4cIkI_FydpOJnQ-22">
          <mxGeometry x="160" y="40" width="120" height="60" as="geometry" />
        </mxCell>
        <mxCell id="Ni-ygV4cIkI_FydpOJnQ-25" value="&lt;font style=&quot;font-size: 24px;&quot;&gt;Left&lt;/font&gt;" style="rounded=0;whiteSpace=wrap;html=1;strokeColor=#BAC8D3;fontColor=#EEEEEE;fillColor=light-dark(#09555B,#FFFF99);" vertex="1" parent="Ni-ygV4cIkI_FydpOJnQ-22">
          <mxGeometry x="300" y="40" width="120" height="60" as="geometry" />
        </mxCell>
        <mxCell id="Ni-ygV4cIkI_FydpOJnQ-26" value="&lt;font style=&quot;font-size: 24px;&quot;&gt;Right&lt;/font&gt;" style="rounded=0;whiteSpace=wrap;html=1;strokeColor=#BAC8D3;fontColor=#EEEEEE;fillColor=light-dark(#09555B,#FFFF99);" vertex="1" parent="Ni-ygV4cIkI_FydpOJnQ-22">
          <mxGeometry x="440" y="40" width="120" height="60" as="geometry" />
        </mxCell>
        <mxCell id="Ni-ygV4cIkI_FydpOJnQ-27" value="&lt;font style=&quot;font-size: 24px;&quot;&gt;Jump&lt;/font&gt;" style="rounded=0;whiteSpace=wrap;html=1;strokeColor=#BAC8D3;fontColor=#EEEEEE;fillColor=light-dark(#09555B,#FFFF99);" vertex="1" parent="Ni-ygV4cIkI_FydpOJnQ-22">
          <mxGeometry x="20" y="120" width="120" height="60" as="geometry" />
        </mxCell>
        <mxCell id="Ni-ygV4cIkI_FydpOJnQ-28" value="&lt;font style=&quot;font-size: 24px;&quot;&gt;Crouch&lt;/font&gt;" style="rounded=0;whiteSpace=wrap;html=1;strokeColor=#BAC8D3;fontColor=#EEEEEE;fillColor=light-dark(#09555B,#FFFF99);" vertex="1" parent="Ni-ygV4cIkI_FydpOJnQ-22">
          <mxGeometry x="160" y="120" width="120" height="60" as="geometry" />
        </mxCell>
        <mxCell id="Ni-ygV4cIkI_FydpOJnQ-29" value="&lt;font style=&quot;font-size: 24px;&quot;&gt;Q.T&lt;/font&gt;" style="rounded=0;whiteSpace=wrap;html=1;strokeColor=#BAC8D3;fontColor=#EEEEEE;fillColor=light-dark(#09555B,#FFFF99);" vertex="1" parent="Ni-ygV4cIkI_FydpOJnQ-22">
          <mxGeometry x="300" y="120" width="120" height="60" as="geometry" />
        </mxCell>
        <mxCell id="Ni-ygV4cIkI_FydpOJnQ-30" value="&lt;font style=&quot;font-size: 24px;&quot;&gt;Charge&lt;/font&gt;" style="rounded=0;whiteSpace=wrap;html=1;strokeColor=#BAC8D3;fontColor=#EEEEEE;fillColor=light-dark(#09555B,#FFFF99);" vertex="1" parent="Ni-ygV4cIkI_FydpOJnQ-22">
          <mxGeometry x="440" y="120" width="120" height="60" as="geometry" />
        </mxCell>
        <mxCell id="Ni-ygV4cIkI_FydpOJnQ-31" value="&lt;font style=&quot;font-size: 24px;&quot;&gt;Return&lt;/font&gt;" style="rounded=0;whiteSpace=wrap;html=1;strokeColor=#BAC8D3;fontColor=#EEEEEE;fillColor=light-dark(#09555B,#99FF99);" vertex="1" parent="Ni-ygV4cIkI_FydpOJnQ-22">
          <mxGeometry x="20" y="210" width="120" height="60" as="geometry" />
        </mxCell>
        <mxCell id="Ni-ygV4cIkI_FydpOJnQ-32" style="edgeStyle=orthogonalEdgeStyle;rounded=0;orthogonalLoop=1;jettySize=auto;html=1;entryX=1;entryY=0.5;entryDx=0;entryDy=0;strokeColor=light-dark(#0B4D6A,#000000);strokeWidth=8;" edge="1" parent="1" source="Ni-ygV4cIkI_FydpOJnQ-33" target="Ni-ygV4cIkI_FydpOJnQ-30">
          <mxGeometry relative="1" as="geometry" />
        </mxCell>
        <mxCell id="Ni-ygV4cIkI_FydpOJnQ-33" value="&lt;font style=&quot;font-size: 20px;&quot;&gt;I think that to throw, we should hold down a button to aim and stuff and then release to throw. Power would be determined by how long you are holding the button&lt;/font&gt;" style="text;html=1;align=center;verticalAlign=middle;whiteSpace=wrap;rounded=0;fontColor=#EEEEEE;" vertex="1" parent="1">
          <mxGeometry x="1430" y="-405" width="320" height="170" as="geometry" />
        </mxCell>
        <mxCell id="Ni-ygV4cIkI_FydpOJnQ-34" value="&lt;font&gt;Game Settings&lt;/font&gt;" style="swimlane;whiteSpace=wrap;html=1;strokeWidth=4;strokeColor=light-dark(#000000,#000000);fontSize=15;" vertex="1" parent="1">
          <mxGeometry x="700" y="-50" width="580" height="350" as="geometry" />
        </mxCell>
        <mxCell id="Ni-ygV4cIkI_FydpOJnQ-35" value="&lt;font style=&quot;font-size: 24px;&quot;&gt;Sensitivity&lt;/font&gt;" style="rounded=0;whiteSpace=wrap;html=1;strokeColor=#BAC8D3;fontColor=#EEEEEE;fillColor=light-dark(#09555B,#FFFF99);" vertex="1" parent="Ni-ygV4cIkI_FydpOJnQ-34">
          <mxGeometry x="20" y="40" width="120" height="60" as="geometry" />
        </mxCell>
        <mxCell id="Ni-ygV4cIkI_FydpOJnQ-36" value="&lt;font style=&quot;font-size: 24px;&quot;&gt;Volume&lt;/font&gt;" style="rounded=0;whiteSpace=wrap;html=1;strokeColor=#BAC8D3;fontColor=#EEEEEE;fillColor=light-dark(#09555B,#FFFF99);" vertex="1" parent="Ni-ygV4cIkI_FydpOJnQ-34">
          <mxGeometry x="160" y="40" width="120" height="60" as="geometry" />
        </mxCell>
        <mxCell id="Ni-ygV4cIkI_FydpOJnQ-37" value="&lt;font style=&quot;font-size: 24px;&quot;&gt;FOV&lt;/font&gt;" style="rounded=0;whiteSpace=wrap;html=1;strokeColor=#BAC8D3;fontColor=#EEEEEE;fillColor=light-dark(#09555B,#FF6666);" vertex="1" parent="Ni-ygV4cIkI_FydpOJnQ-34">
          <mxGeometry x="20" y="120" width="120" height="60" as="geometry" />
        </mxCell>
        <mxCell id="Ni-ygV4cIkI_FydpOJnQ-38" value="&lt;font style=&quot;font-size: 24px;&quot;&gt;Resolution&lt;/font&gt;" style="rounded=0;whiteSpace=wrap;html=1;strokeColor=#BAC8D3;fontColor=#EEEEEE;fillColor=light-dark(#09555B,#FF6666);" vertex="1" parent="Ni-ygV4cIkI_FydpOJnQ-34">
          <mxGeometry x="160" y="120" width="120" height="60" as="geometry" />
        </mxCell>
        <mxCell id="Ni-ygV4cIkI_FydpOJnQ-39" value="&lt;font style=&quot;font-size: 24px;&quot;&gt;Graphics&lt;/font&gt;" style="rounded=0;whiteSpace=wrap;html=1;strokeColor=#BAC8D3;fontColor=#EEEEEE;fillColor=light-dark(#09555B,#FF6666);" vertex="1" parent="Ni-ygV4cIkI_FydpOJnQ-34">
          <mxGeometry x="300" y="120" width="120" height="60" as="geometry" />
        </mxCell>
        <mxCell id="Ni-ygV4cIkI_FydpOJnQ-40" value="&lt;font style=&quot;font-size: 24px;&quot;&gt;Other&lt;/font&gt;" style="rounded=0;whiteSpace=wrap;html=1;strokeColor=#BAC8D3;fontColor=#EEEEEE;fillColor=light-dark(#09555B,#FF6666);" vertex="1" parent="Ni-ygV4cIkI_FydpOJnQ-34">
          <mxGeometry x="440" y="120" width="120" height="60" as="geometry" />
        </mxCell>
        <mxCell id="Ni-ygV4cIkI_FydpOJnQ-41" value="&lt;font style=&quot;font-size: 24px;&quot;&gt;Return&lt;/font&gt;" style="rounded=0;whiteSpace=wrap;html=1;strokeColor=#BAC8D3;fontColor=#EEEEEE;fillColor=light-dark(#09555B,#99FF99);" vertex="1" parent="Ni-ygV4cIkI_FydpOJnQ-34">
          <mxGeometry x="20" y="210" width="120" height="60" as="geometry" />
        </mxCell>
        <mxCell id="Ni-ygV4cIkI_FydpOJnQ-42" style="edgeStyle=orthogonalEdgeStyle;rounded=0;orthogonalLoop=1;jettySize=auto;html=1;entryX=0.5;entryY=0;entryDx=0;entryDy=0;strokeColor=light-dark(#0B4D6A,#000000);strokeWidth=8;" edge="1" parent="1" source="Ni-ygV4cIkI_FydpOJnQ-18" target="Ni-ygV4cIkI_FydpOJnQ-34">
          <mxGeometry relative="1" as="geometry">
            <Array as="points">
              <mxPoint x="465" y="-100" />
              <mxPoint x="990" y="-100" />
            </Array>
          </mxGeometry>
        </mxCell>
        <mxCell id="Ni-ygV4cIkI_FydpOJnQ-43" style="edgeStyle=orthogonalEdgeStyle;rounded=0;orthogonalLoop=1;jettySize=auto;html=1;entryX=1;entryY=0.5;entryDx=0;entryDy=0;strokeColor=light-dark(#0B4D6A,#000000);strokeWidth=8;" edge="1" parent="1" source="Ni-ygV4cIkI_FydpOJnQ-44" target="Ni-ygV4cIkI_FydpOJnQ-36">
          <mxGeometry relative="1" as="geometry">
            <Array as="points">
              <mxPoint x="1260" y="20" />
              <mxPoint x="1260" y="20" />
            </Array>
          </mxGeometry>
        </mxCell>
        <mxCell id="Ni-ygV4cIkI_FydpOJnQ-44" value="&lt;font style=&quot;font-size: 20px;&quot;&gt;Sensitivity, volume, and whatever else should probably be sliders&lt;/font&gt;&lt;div&gt;&lt;br&gt;&lt;/div&gt;" style="text;html=1;align=center;verticalAlign=middle;whiteSpace=wrap;rounded=0;fontColor=#EEEEEE;" vertex="1" parent="1">
          <mxGeometry x="1310" y="-5" width="240" height="50" as="geometry" />
        </mxCell>
        <mxCell id="Ni-ygV4cIkI_FydpOJnQ-45" style="edgeStyle=orthogonalEdgeStyle;rounded=0;orthogonalLoop=1;jettySize=auto;html=1;entryX=0;entryY=0.5;entryDx=0;entryDy=0;strokeColor=light-dark(#0B4D6A,#000000);strokeWidth=8;" edge="1" parent="1" source="Ni-ygV4cIkI_FydpOJnQ-9" target="Ni-ygV4cIkI_FydpOJnQ-11">
          <mxGeometry relative="1" as="geometry">
            <Array as="points">
              <mxPoint x="-335" y="-305" />
            </Array>
          </mxGeometry>
        </mxCell>
        <mxCell id="Ni-ygV4cIkI_FydpOJnQ-46" value="&lt;font style=&quot;font-size: 24px;&quot;&gt;End Screen&lt;/font&gt;" style="swimlane;whiteSpace=wrap;html=1;strokeColor=light-dark(#000000,#050505);strokeWidth=4;startSize=40;" vertex="1" parent="1">
          <mxGeometry x="-1510" y="200" width="920" height="520" as="geometry" />
        </mxCell>
        <mxCell id="Ni-ygV4cIkI_FydpOJnQ-47" value="" style="rounded=0;whiteSpace=wrap;html=1;strokeColor=#BAC8D3;fontColor=#EEEEEE;fillColor=light-dark(#09555B,#99FF99);" vertex="1" parent="Ni-ygV4cIkI_FydpOJnQ-46">
          <mxGeometry x="30" y="70" width="250" height="130" as="geometry" />
        </mxCell>
        <mxCell id="Ni-ygV4cIkI_FydpOJnQ-48" value="Leave Game" style="text;html=1;align=center;verticalAlign=middle;whiteSpace=wrap;rounded=0;fontColor=#EEEEEE;fontSize=35;fillColor=light-dark(#09555B,#99FF99);" vertex="1" parent="Ni-ygV4cIkI_FydpOJnQ-46">
          <mxGeometry x="60" y="120" width="190" height="30" as="geometry" />
        </mxCell>
        <mxCell id="Ni-ygV4cIkI_FydpOJnQ-49" value="" style="rounded=0;whiteSpace=wrap;html=1;strokeColor=#BAC8D3;fontColor=#EEEEEE;fillColor=light-dark(#09555B,#99FF99);" vertex="1" parent="Ni-ygV4cIkI_FydpOJnQ-46">
          <mxGeometry x="310" y="70" width="250" height="130" as="geometry" />
        </mxCell>
        <mxCell id="Ni-ygV4cIkI_FydpOJnQ-50" value="Play Again" style="text;html=1;align=center;verticalAlign=middle;whiteSpace=wrap;rounded=0;fontColor=#EEEEEE;fontSize=35;fillColor=light-dark(#09555B,#99FF99);" vertex="1" parent="Ni-ygV4cIkI_FydpOJnQ-46">
          <mxGeometry x="340" y="120" width="190" height="30" as="geometry" />
        </mxCell>
        <mxCell id="Ni-ygV4cIkI_FydpOJnQ-51" style="edgeStyle=orthogonalEdgeStyle;rounded=0;orthogonalLoop=1;jettySize=auto;html=1;entryX=0.5;entryY=1;entryDx=0;entryDy=0;strokeColor=light-dark(#0B4D6A,#000000);strokeWidth=8;" edge="1" parent="1" source="Ni-ygV4cIkI_FydpOJnQ-47" target="Ni-ygV4cIkI_FydpOJnQ-1">
          <mxGeometry relative="1" as="geometry">
            <Array as="points">
              <mxPoint x="-1355" y="100" />
              <mxPoint x="-1240" y="100" />
            </Array>
          </mxGeometry>
        </mxCell>
        <mxCell id="Ni-ygV4cIkI_FydpOJnQ-52" style="edgeStyle=orthogonalEdgeStyle;rounded=0;orthogonalLoop=1;jettySize=auto;html=1;strokeColor=light-dark(#0B4D6A,#000000);strokeWidth=8;" edge="1" parent="1" source="Ni-ygV4cIkI_FydpOJnQ-49">
          <mxGeometry relative="1" as="geometry">
            <Array as="points">
              <mxPoint x="-1075" y="420" />
              <mxPoint x="-550" y="420" />
            </Array>
            <mxPoint x="-550" y="-650" as="targetPoint" />
          </mxGeometry>
        </mxCell>
        <mxCell id="Ni-ygV4cIkI_FydpOJnQ-53" style="edgeStyle=orthogonalEdgeStyle;rounded=0;orthogonalLoop=1;jettySize=auto;html=1;entryX=0.5;entryY=0;entryDx=0;entryDy=0;strokeColor=light-dark(#0B4D6A,#000000);strokeWidth=8;" edge="1" parent="1" source="Ni-ygV4cIkI_FydpOJnQ-54" target="Ni-ygV4cIkI_FydpOJnQ-8">
          <mxGeometry relative="1" as="geometry">
            <Array as="points">
              <mxPoint x="-215" y="-815" />
            </Array>
          </mxGeometry>
        </mxCell>
        <mxCell id="Ni-ygV4cIkI_FydpOJnQ-54" value="&lt;font&gt;Multiplayer Lobby&lt;/font&gt;" style="swimlane;whiteSpace=wrap;html=1;strokeWidth=4;strokeColor=light-dark(#000000,#000000);fontSize=15;" vertex="1" parent="1">
          <mxGeometry x="-930" y="-980" width="580" height="330" as="geometry" />
        </mxCell>
        <mxCell id="Ni-ygV4cIkI_FydpOJnQ-55" value="&lt;font style=&quot;font-size: 24px;&quot;&gt;Player Count&lt;/font&gt;" style="rounded=0;whiteSpace=wrap;html=1;strokeColor=#BAC8D3;fontColor=#EEEEEE;fillColor=light-dark(#09555B,#FFFF99);" vertex="1" parent="Ni-ygV4cIkI_FydpOJnQ-54">
          <mxGeometry x="20" y="40" width="120" height="60" as="geometry" />
        </mxCell>
        <mxCell id="Ni-ygV4cIkI_FydpOJnQ-56" value="&lt;font style=&quot;font-size: 24px;&quot;&gt;Player List&lt;/font&gt;" style="rounded=0;whiteSpace=wrap;html=1;strokeColor=#BAC8D3;fontColor=#EEEEEE;fillColor=light-dark(#09555B,#FFFF99);" vertex="1" parent="Ni-ygV4cIkI_FydpOJnQ-54">
          <mxGeometry x="160" y="40" width="120" height="60" as="geometry" />
        </mxCell>
        <mxCell id="Ni-ygV4cIkI_FydpOJnQ-57" value="&lt;font style=&quot;font-size: 24px;&quot;&gt;Host&lt;/font&gt;" style="rounded=0;whiteSpace=wrap;html=1;strokeColor=#BAC8D3;fontColor=#EEEEEE;fillColor=light-dark(#09555B,#FFFF99);" vertex="1" parent="Ni-ygV4cIkI_FydpOJnQ-54">
          <mxGeometry x="300" y="40" width="120" height="60" as="geometry" />
        </mxCell>
        <mxCell id="Ni-ygV4cIkI_FydpOJnQ-58" value="&lt;font style=&quot;font-size: 24px;&quot;&gt;Map&lt;/font&gt;" style="rounded=0;whiteSpace=wrap;html=1;strokeColor=#BAC8D3;fontColor=#EEEEEE;fillColor=light-dark(#09555B,#FFFF99);" vertex="1" parent="Ni-ygV4cIkI_FydpOJnQ-54">
          <mxGeometry x="440" y="40" width="120" height="60" as="geometry" />
        </mxCell>
        <mxCell id="Ni-ygV4cIkI_FydpOJnQ-59" value="&lt;font style=&quot;font-size: 24px;&quot;&gt;Teams&lt;/font&gt;" style="rounded=0;whiteSpace=wrap;html=1;strokeColor=#BAC8D3;fontColor=#EEEEEE;fillColor=light-dark(#09555B,#FFFF99);" vertex="1" parent="Ni-ygV4cIkI_FydpOJnQ-54">
          <mxGeometry x="20" y="120" width="120" height="60" as="geometry" />
        </mxCell>
        <mxCell id="Ni-ygV4cIkI_FydpOJnQ-60" value="&lt;span style=&quot;font-size: 24px;&quot;&gt;Lobby Code&lt;/span&gt;" style="rounded=0;whiteSpace=wrap;html=1;strokeColor=#BAC8D3;fontColor=#EEEEEE;fillColor=light-dark(#09555B,#FF6666);" vertex="1" parent="Ni-ygV4cIkI_FydpOJnQ-54">
          <mxGeometry x="160" y="120" width="120" height="60" as="geometry" />
        </mxCell>
        <mxCell id="Ni-ygV4cIkI_FydpOJnQ-61" value="&lt;font style=&quot;font-size: 24px;&quot;&gt;Game Mode&lt;/font&gt;" style="rounded=0;whiteSpace=wrap;html=1;strokeColor=#BAC8D3;fontColor=#EEEEEE;fillColor=light-dark(#09555B,#FF6666);" vertex="1" parent="Ni-ygV4cIkI_FydpOJnQ-54">
          <mxGeometry x="300" y="120" width="120" height="60" as="geometry" />
        </mxCell>
        <mxCell id="Ni-ygV4cIkI_FydpOJnQ-62" value="&lt;span style=&quot;font-size: 24px;&quot;&gt;Skin Indicator&lt;/span&gt;" style="rounded=0;whiteSpace=wrap;html=1;strokeColor=#BAC8D3;fontColor=#EEEEEE;fillColor=light-dark(#09555B,#FF6666);" vertex="1" parent="Ni-ygV4cIkI_FydpOJnQ-54">
          <mxGeometry x="440" y="120" width="120" height="60" as="geometry" />
        </mxCell>
        <mxCell id="Ni-ygV4cIkI_FydpOJnQ-63" value="&lt;span style=&quot;font-size: 24px;&quot;&gt;Voice Chat Indicator&lt;/span&gt;" style="rounded=0;whiteSpace=wrap;html=1;strokeColor=#BAC8D3;fontColor=#EEEEEE;fillColor=light-dark(#09555B,#FF6666);" vertex="1" parent="Ni-ygV4cIkI_FydpOJnQ-54">
          <mxGeometry x="20" y="200" width="120" height="60" as="geometry" />
        </mxCell>
        <mxCell id="Ni-ygV4cIkI_FydpOJnQ-64" value="&lt;span style=&quot;font-size: 24px;&quot;&gt;Ready Status&lt;/span&gt;" style="rounded=0;whiteSpace=wrap;html=1;strokeColor=#BAC8D3;fontColor=#EEEEEE;fillColor=light-dark(#09555B,#FF6666);gradientColor=none;" vertex="1" parent="Ni-ygV4cIkI_FydpOJnQ-54">
          <mxGeometry x="160" y="200" width="120" height="60" as="geometry" />
        </mxCell>
        <mxCell id="Ni-ygV4cIkI_FydpOJnQ-66" style="edgeStyle=orthogonalEdgeStyle;rounded=0;orthogonalLoop=1;jettySize=auto;html=1;entryX=0;entryY=0.5;entryDx=0;entryDy=0;strokeColor=light-dark(#0B4D6A,#000000);strokeWidth=8;" edge="1" parent="1" source="Ni-ygV4cIkI_FydpOJnQ-16" target="Ni-ygV4cIkI_FydpOJnQ-22">
          <mxGeometry relative="1" as="geometry">
            <Array as="points">
              <mxPoint x="225" y="-305" />
            </Array>
          </mxGeometry>
        </mxCell>
        <mxCell id="Ni-ygV4cIkI_FydpOJnQ-67" style="edgeStyle=orthogonalEdgeStyle;rounded=0;orthogonalLoop=1;jettySize=auto;html=1;entryX=0;entryY=0.5;entryDx=0;entryDy=0;strokeColor=light-dark(#0B4D6A,#000000);strokeWidth=8;exitX=0.5;exitY=1;exitDx=0;exitDy=0;" edge="1" parent="1" source="Ni-ygV4cIkI_FydpOJnQ-69" target="Ni-ygV4cIkI_FydpOJnQ-11">
          <mxGeometry relative="1" as="geometry">
            <Array as="points">
              <mxPoint x="-335" y="415" />
              <mxPoint x="60" y="415" />
              <mxPoint x="60" y="-305" />
            </Array>
          </mxGeometry>
        </mxCell>
        <mxCell id="Ni-ygV4cIkI_FydpOJnQ-68" value="&lt;font&gt;Test Game Screen&lt;/font&gt;" style="swimlane;whiteSpace=wrap;html=1;strokeWidth=4;strokeColor=light-dark(#000000,#000000);fontSize=15;" vertex="1" parent="1">
          <mxGeometry x="-460" y="250" width="490" height="330" as="geometry" />
        </mxCell>
        <mxCell id="Ni-ygV4cIkI_FydpOJnQ-69" value="" style="rounded=0;whiteSpace=wrap;html=1;strokeColor=#BAC8D3;fontColor=#EEEEEE;fillColor=light-dark(#09555B,#99FF99);" vertex="1" parent="Ni-ygV4cIkI_FydpOJnQ-68">
          <mxGeometry x="20" y="40" width="210" height="110" as="geometry" />
        </mxCell>
        <mxCell id="Ni-ygV4cIkI_FydpOJnQ-70" value="Settings" style="text;html=1;align=center;verticalAlign=middle;whiteSpace=wrap;rounded=0;fontColor=#EEEEEE;fontSize=35;fillColor=light-dark(#09555B,#99FF99);" vertex="1" parent="Ni-ygV4cIkI_FydpOJnQ-68">
          <mxGeometry x="95" y="80" width="60" height="30" as="geometry" />
        </mxCell>
        <mxCell id="Ni-ygV4cIkI_FydpOJnQ-71" value="" style="rounded=0;whiteSpace=wrap;html=1;strokeColor=#BAC8D3;fontColor=#EEEEEE;fillColor=light-dark(#09555B,#99FF99);" vertex="1" parent="Ni-ygV4cIkI_FydpOJnQ-68">
          <mxGeometry x="260" y="40" width="210" height="110" as="geometry" />
        </mxCell>
        <mxCell id="Ni-ygV4cIkI_FydpOJnQ-72" value="Game Parameters" style="text;html=1;align=center;verticalAlign=middle;whiteSpace=wrap;rounded=0;fontColor=#EEEEEE;fontSize=35;fillColor=light-dark(#09555B,#99FF99);" vertex="1" parent="Ni-ygV4cIkI_FydpOJnQ-68">
          <mxGeometry x="335" y="80" width="60" height="30" as="geometry" />
        </mxCell>
        <mxCell id="Ni-ygV4cIkI_FydpOJnQ-73" value="&lt;font&gt;Parameters Menu&lt;/font&gt;" style="swimlane;whiteSpace=wrap;html=1;strokeWidth=4;strokeColor=light-dark(#000000,#000000);fontSize=15;" vertex="1" parent="1">
          <mxGeometry x="210" y="410" width="580" height="330" as="geometry" />
        </mxCell>
        <mxCell id="Ni-ygV4cIkI_FydpOJnQ-74" value="&lt;font style=&quot;font-size: 24px;&quot;&gt;Map&lt;/font&gt;" style="rounded=0;whiteSpace=wrap;html=1;strokeColor=#BAC8D3;fontColor=#EEEEEE;fillColor=light-dark(#09555B,#99FF99);" vertex="1" parent="Ni-ygV4cIkI_FydpOJnQ-73">
          <mxGeometry x="20" y="40" width="120" height="60" as="geometry" />
        </mxCell>
        <mxCell id="Ni-ygV4cIkI_FydpOJnQ-75" value="&lt;font style=&quot;font-size: 24px;&quot;&gt;Throw Speed&lt;/font&gt;" style="rounded=0;whiteSpace=wrap;html=1;strokeColor=#BAC8D3;fontColor=#EEEEEE;fillColor=light-dark(#09555B,#99FF99);" vertex="1" parent="Ni-ygV4cIkI_FydpOJnQ-73">
          <mxGeometry x="160" y="40" width="120" height="60" as="geometry" />
        </mxCell>
        <mxCell id="Ni-ygV4cIkI_FydpOJnQ-76" value="&lt;font style=&quot;font-size: 24px;&quot;&gt;Player Limit&lt;/font&gt;" style="rounded=0;whiteSpace=wrap;html=1;strokeColor=#BAC8D3;fontColor=#EEEEEE;fillColor=light-dark(#09555B,#99FF99);" vertex="1" parent="Ni-ygV4cIkI_FydpOJnQ-73">
          <mxGeometry x="300" y="40" width="120" height="60" as="geometry" />
        </mxCell>
        <mxCell id="Ni-ygV4cIkI_FydpOJnQ-77" value="&lt;font style=&quot;font-size: 24px;&quot;&gt;Jump Height&lt;/font&gt;" style="rounded=0;whiteSpace=wrap;html=1;strokeColor=#BAC8D3;fontColor=#EEEEEE;fillColor=light-dark(#09555B,#99FF99);" vertex="1" parent="Ni-ygV4cIkI_FydpOJnQ-73">
          <mxGeometry x="440" y="40" width="120" height="60" as="geometry" />
        </mxCell>
        <mxCell id="Ni-ygV4cIkI_FydpOJnQ-78" value="&lt;font style=&quot;font-size: 24px;&quot;&gt;Time Limit&lt;/font&gt;" style="rounded=0;whiteSpace=wrap;html=1;strokeColor=#BAC8D3;fontColor=#EEEEEE;fillColor=light-dark(#09555B,#99FF99);" vertex="1" parent="Ni-ygV4cIkI_FydpOJnQ-73">
          <mxGeometry x="20" y="120" width="120" height="60" as="geometry" />
        </mxCell>
        <mxCell id="Ni-ygV4cIkI_FydpOJnQ-79" value="&lt;font style=&quot;font-size: 24px;&quot;&gt;Player Speed&lt;/font&gt;" style="rounded=0;whiteSpace=wrap;html=1;strokeColor=#BAC8D3;fontColor=#EEEEEE;fillColor=light-dark(#09555B,#99FF99);" vertex="1" parent="Ni-ygV4cIkI_FydpOJnQ-73">
          <mxGeometry x="160" y="120" width="120" height="60" as="geometry" />
        </mxCell>
        <mxCell id="Ni-ygV4cIkI_FydpOJnQ-80" value="&lt;font style=&quot;font-size: 24px;&quot;&gt;Accuracy&lt;/font&gt;" style="rounded=0;whiteSpace=wrap;html=1;strokeColor=#BAC8D3;fontColor=#EEEEEE;fillColor=light-dark(#09555B,#99FF99);" vertex="1" parent="Ni-ygV4cIkI_FydpOJnQ-73">
          <mxGeometry x="300" y="120" width="120" height="60" as="geometry" />
        </mxCell>
        <mxCell id="Ni-ygV4cIkI_FydpOJnQ-81" value="&lt;font style=&quot;font-size: 24px;&quot;&gt;Charge Speed&lt;/font&gt;" style="rounded=0;whiteSpace=wrap;html=1;strokeColor=#BAC8D3;fontColor=#EEEEEE;fillColor=light-dark(#09555B,#99FF99);" vertex="1" parent="Ni-ygV4cIkI_FydpOJnQ-73">
          <mxGeometry x="440" y="120" width="120" height="60" as="geometry" />
        </mxCell>
        <mxCell id="Ni-ygV4cIkI_FydpOJnQ-82" value="&lt;font style=&quot;font-size: 24px;&quot;&gt;Return&lt;/font&gt;" style="rounded=0;whiteSpace=wrap;html=1;strokeColor=#BAC8D3;fontColor=#EEEEEE;fillColor=light-dark(#09555B,#99FF99);" vertex="1" parent="Ni-ygV4cIkI_FydpOJnQ-73">
          <mxGeometry x="20" y="210" width="120" height="60" as="geometry" />
        </mxCell>
        <mxCell id="Ni-ygV4cIkI_FydpOJnQ-83" value="&lt;font style=&quot;font-size: 24px;&quot;&gt;Whatever Else&lt;/font&gt;" style="rounded=0;whiteSpace=wrap;html=1;strokeColor=#BAC8D3;fontColor=#EEEEEE;fillColor=light-dark(#09555B,#99FF99);" vertex="1" parent="Ni-ygV4cIkI_FydpOJnQ-73">
          <mxGeometry x="160" y="210" width="120" height="60" as="geometry" />
        </mxCell>
        <mxCell id="Ni-ygV4cIkI_FydpOJnQ-84" style="edgeStyle=orthogonalEdgeStyle;rounded=0;orthogonalLoop=1;jettySize=auto;html=1;entryX=0.5;entryY=1;entryDx=0;entryDy=0;strokeColor=light-dark(#0B4D6A,#000000);strokeWidth=8;" edge="1" parent="1" source="Ni-ygV4cIkI_FydpOJnQ-82" target="Ni-ygV4cIkI_FydpOJnQ-68">
          <mxGeometry relative="1" as="geometry" />
        </mxCell>
        <mxCell id="Ni-ygV4cIkI_FydpOJnQ-85" style="edgeStyle=orthogonalEdgeStyle;rounded=0;orthogonalLoop=1;jettySize=auto;html=1;entryX=0.5;entryY=0;entryDx=0;entryDy=0;strokeColor=light-dark(#0B4D6A,#000000);strokeWidth=8;" edge="1" parent="1" source="Ni-ygV4cIkI_FydpOJnQ-71" target="Ni-ygV4cIkI_FydpOJnQ-73">
          <mxGeometry relative="1" as="geometry" />
        </mxCell>
        <mxCell id="Ni-ygV4cIkI_FydpOJnQ-86" style="edgeStyle=orthogonalEdgeStyle;rounded=0;orthogonalLoop=1;jettySize=auto;html=1;entryX=0.5;entryY=1;entryDx=0;entryDy=0;strokeColor=light-dark(#0B4D6A,#000000);strokeWidth=8;" edge="1" parent="1" source="Ni-ygV4cIkI_FydpOJnQ-41" target="Ni-ygV4cIkI_FydpOJnQ-11">
          <mxGeometry relative="1" as="geometry" />
        </mxCell>
        <mxCell id="Ni-ygV4cIkI_FydpOJnQ-87" style="edgeStyle=orthogonalEdgeStyle;rounded=0;orthogonalLoop=1;jettySize=auto;html=1;strokeColor=light-dark(#0B4D6A,#000000);strokeWidth=8;entryX=0.5;entryY=1;entryDx=0;entryDy=0;" edge="1" parent="1" source="Ni-ygV4cIkI_FydpOJnQ-31" target="Ni-ygV4cIkI_FydpOJnQ-11">
          <mxGeometry relative="1" as="geometry">
            <mxPoint x="330" y="-140" as="targetPoint" />
            <Array as="points">
              <mxPoint x="780" y="-70" />
              <mxPoint x="345" y="-70" />
            </Array>
          </mxGeometry>
        </mxCell>
        <mxCell id="Ni-ygV4cIkI_FydpOJnQ-186" value="&lt;font style=&quot;font-size: 24px;&quot;&gt;Sound&lt;/font&gt;" style="swimlane;whiteSpace=wrap;html=1;strokeWidth=4;strokeColor=light-dark(#000000,#000000);startSize=30;" vertex="1" parent="1">
          <mxGeometry y="-1130" width="490" height="290" as="geometry" />
        </mxCell>
        <mxCell id="Ni-ygV4cIkI_FydpOJnQ-177" style="edgeStyle=orthogonalEdgeStyle;rounded=0;orthogonalLoop=1;jettySize=auto;html=1;entryX=0.5;entryY=0;entryDx=0;entryDy=0;strokeColor=light-dark(#000000,#000000);strokeWidth=4;" edge="1" parent="Ni-ygV4cIkI_FydpOJnQ-186" source="Ni-ygV4cIkI_FydpOJnQ-179" target="Ni-ygV4cIkI_FydpOJnQ-181">
          <mxGeometry relative="1" as="geometry" />
        </mxCell>
        <mxCell id="Ni-ygV4cIkI_FydpOJnQ-178" style="edgeStyle=orthogonalEdgeStyle;rounded=0;orthogonalLoop=1;jettySize=auto;html=1;entryX=0.5;entryY=0;entryDx=0;entryDy=0;exitX=0.5;exitY=1;exitDx=0;exitDy=0;strokeColor=light-dark(#000000,#000000);strokeWidth=4;" edge="1" parent="Ni-ygV4cIkI_FydpOJnQ-186" source="Ni-ygV4cIkI_FydpOJnQ-179">
          <mxGeometry relative="1" as="geometry">
            <mxPoint x="350" y="160" as="targetPoint" />
          </mxGeometry>
        </mxCell>
        <mxCell id="Ni-ygV4cIkI_FydpOJnQ-179" value="" style="rounded=0;whiteSpace=wrap;html=1;strokeColor=light-dark(#000000,#000000);strokeWidth=4;" vertex="1" parent="Ni-ygV4cIkI_FydpOJnQ-186">
          <mxGeometry x="170" y="60" width="120" height="60" as="geometry" />
        </mxCell>
        <mxCell id="Ni-ygV4cIkI_FydpOJnQ-180" value="Main Node (ball, player, game scene)" style="text;html=1;align=center;verticalAlign=middle;whiteSpace=wrap;rounded=0;strokeColor=light-dark(#000000,#000000);strokeWidth=4;" vertex="1" parent="Ni-ygV4cIkI_FydpOJnQ-186">
          <mxGeometry x="180" y="75" width="100" height="30" as="geometry" />
        </mxCell>
        <mxCell id="Ni-ygV4cIkI_FydpOJnQ-181" value="AudioStreamPlayer Node" style="swimlane;fontStyle=0;childLayout=stackLayout;horizontal=1;startSize=30;horizontalStack=0;resizeParent=1;resizeParentMax=0;resizeLast=0;collapsible=1;marginBottom=0;whiteSpace=wrap;html=1;strokeColor=light-dark(#000000,#000000);strokeWidth=4;" vertex="1" parent="Ni-ygV4cIkI_FydpOJnQ-186">
          <mxGeometry x="30" y="160" width="140" height="60" as="geometry" />
        </mxCell>
        <mxCell id="Ni-ygV4cIkI_FydpOJnQ-182" value="Ogg or MP3 file" style="text;strokeColor=none;fillColor=none;align=left;verticalAlign=middle;spacingLeft=4;spacingRight=4;overflow=hidden;points=[[0,0.5],[1,0.5]];portConstraint=eastwest;rotatable=0;whiteSpace=wrap;html=1;fontColor=light-dark(#000000,#000000);" vertex="1" parent="Ni-ygV4cIkI_FydpOJnQ-181">
          <mxGeometry y="30" width="140" height="30" as="geometry" />
        </mxCell>
        <mxCell id="Ni-ygV4cIkI_FydpOJnQ-183" value="Main Node Script" style="swimlane;fontStyle=0;childLayout=stackLayout;horizontal=1;startSize=30;horizontalStack=0;resizeParent=1;resizeParentMax=0;resizeLast=0;collapsible=1;marginBottom=0;whiteSpace=wrap;html=1;strokeColor=light-dark(#000000,#000000);strokeWidth=4;" vertex="1" parent="Ni-ygV4cIkI_FydpOJnQ-186">
          <mxGeometry x="280" y="160" width="180" height="90" as="geometry" />
        </mxCell>
        <mxCell id="Ni-ygV4cIkI_FydpOJnQ-184" value="function" style="text;strokeColor=none;fillColor=none;align=left;verticalAlign=middle;spacingLeft=4;spacingRight=4;overflow=hidden;points=[[0,0.5],[1,0.5]];portConstraint=eastwest;rotatable=0;whiteSpace=wrap;html=1;fontColor=light-dark(#000000,#000000);" vertex="1" parent="Ni-ygV4cIkI_FydpOJnQ-183">
          <mxGeometry y="30" width="180" height="30" as="geometry" />
        </mxCell>
        <mxCell id="Ni-ygV4cIkI_FydpOJnQ-185" value="&lt;span style=&quot;white-space: pre;&quot;&gt;&#x9;&lt;/span&gt;AudioStreamPlayer.play()" style="text;strokeColor=none;fillColor=none;align=left;verticalAlign=middle;spacingLeft=4;spacingRight=4;overflow=hidden;points=[[0,0.5],[1,0.5]];portConstraint=eastwest;rotatable=0;whiteSpace=wrap;html=1;fontColor=light-dark(#000000,#000000);" vertex="1" parent="Ni-ygV4cIkI_FydpOJnQ-183">
          <mxGeometry y="60" width="180" height="30" as="geometry" />
        </mxCell>
        <mxCell id="Ni-ygV4cIkI_FydpOJnQ-216" style="edgeStyle=orthogonalEdgeStyle;rounded=0;orthogonalLoop=1;jettySize=auto;html=1;entryX=0;entryY=0.5;entryDx=0;entryDy=0;strokeColor=light-dark(#000000,#000000);strokeWidth=8;" edge="1" parent="1" source="Ni-ygV4cIkI_FydpOJnQ-196" target="Ni-ygV4cIkI_FydpOJnQ-54">
          <mxGeometry relative="1" as="geometry" />
        </mxCell>
        <mxCell id="Ni-ygV4cIkI_FydpOJnQ-196" value="&lt;font&gt;Lobby List&lt;/font&gt;" style="swimlane;whiteSpace=wrap;html=1;strokeWidth=4;strokeColor=light-dark(#000000,#000000);fontSize=15;" vertex="1" parent="1">
          <mxGeometry x="-1600" y="-980" width="580" height="330" as="geometry" />
        </mxCell>
        <mxCell id="Ni-ygV4cIkI_FydpOJnQ-197" value="&lt;span style=&quot;font-size: 24px;&quot;&gt;Lobby List&lt;/span&gt;" style="rounded=0;whiteSpace=wrap;html=1;strokeColor=#BAC8D3;fontColor=#EEEEEE;fillColor=light-dark(#09555B,#FFFF99);" vertex="1" parent="Ni-ygV4cIkI_FydpOJnQ-196">
          <mxGeometry x="20" y="40" width="120" height="60" as="geometry" />
        </mxCell>
        <mxCell id="Ni-ygV4cIkI_FydpOJnQ-198" value="&lt;font style=&quot;font-size: 24px;&quot;&gt;Use Code&lt;/font&gt;" style="rounded=0;whiteSpace=wrap;html=1;strokeColor=#BAC8D3;fontColor=#EEEEEE;fillColor=light-dark(#09555B,#FFFF99);" vertex="1" parent="Ni-ygV4cIkI_FydpOJnQ-196">
          <mxGeometry x="160" y="40" width="120" height="60" as="geometry" />
        </mxCell>
        <mxCell id="Ni-ygV4cIkI_FydpOJnQ-207" style="edgeStyle=orthogonalEdgeStyle;rounded=0;orthogonalLoop=1;jettySize=auto;html=1;entryX=0;entryY=0.5;entryDx=0;entryDy=0;" edge="1" parent="1" source="Ni-ygV4cIkI_FydpOJnQ-2" target="Ni-ygV4cIkI_FydpOJnQ-196">
          <mxGeometry relative="1" as="geometry">
            <Array as="points">
              <mxPoint x="-1530" y="-550" />
              <mxPoint x="-1650" y="-550" />
              <mxPoint x="-1650" y="-815" />
            </Array>
          </mxGeometry>
        </mxCell>
        <mxCell id="Ni-ygV4cIkI_FydpOJnQ-210" style="edgeStyle=orthogonalEdgeStyle;rounded=0;orthogonalLoop=1;jettySize=auto;html=1;entryX=0;entryY=0.5;entryDx=0;entryDy=0;strokeColor=light-dark(#000000,#000000);strokeWidth=8;" edge="1" parent="1">
          <mxGeometry relative="1" as="geometry">
            <mxPoint x="-1530" y="-450" as="sourcePoint" />
            <mxPoint x="-930" y="-770" as="targetPoint" />
            <Array as="points">
              <mxPoint x="-1530" y="-575" />
              <mxPoint x="-970" y="-575" />
              <mxPoint x="-970" y="-770" />
            </Array>
          </mxGeometry>
        </mxCell>
        <mxCell id="Ni-ygV4cIkI_FydpOJnQ-211" style="edgeStyle=orthogonalEdgeStyle;rounded=0;orthogonalLoop=1;jettySize=auto;html=1;strokeColor=light-dark(#000000,#000000);strokeWidth=8;" edge="1" parent="1" source="Ni-ygV4cIkI_FydpOJnQ-4">
          <mxGeometry relative="1" as="geometry">
            <mxPoint x="-1380" y="-650" as="targetPoint" />
            <Array as="points">
              <mxPoint x="-1380" y="-385" />
              <mxPoint x="-1380" y="-650" />
            </Array>
          </mxGeometry>
        </mxCell>
        <mxCell id="Ni-ygV4cIkI_FydpOJnQ-213" style="edgeStyle=orthogonalEdgeStyle;rounded=0;orthogonalLoop=1;jettySize=auto;html=1;entryX=0;entryY=0.5;entryDx=0;entryDy=0;strokeColor=light-dark(#000000,#000000);strokeWidth=8;" edge="1" parent="1" source="Ni-ygV4cIkI_FydpOJnQ-6" target="Ni-ygV4cIkI_FydpOJnQ-68">
          <mxGeometry relative="1" as="geometry">
            <Array as="points">
              <mxPoint x="-510" y="-385" />
              <mxPoint x="-510" y="415" />
            </Array>
          </mxGeometry>
        </mxCell>
        <mxCell id="Ni-ygV4cIkI_FydpOJnQ-218" style="edgeStyle=orthogonalEdgeStyle;rounded=0;orthogonalLoop=1;jettySize=auto;html=1;entryX=1;entryY=0.5;entryDx=0;entryDy=0;strokeColor=light-dark(#000000,#000000);strokeWidth=8;" edge="1" parent="1" source="Ni-ygV4cIkI_FydpOJnQ-14" target="Ni-ygV4cIkI_FydpOJnQ-1">
          <mxGeometry relative="1" as="geometry">
            <Array as="points">
              <mxPoint x="465" y="-590" />
              <mxPoint x="-680" y="-590" />
              <mxPoint x="-680" y="-260" />
            </Array>
          </mxGeometry>
        </mxCell>
        <mxCell id="Ni-ygV4cIkI_FydpOJnQ-220" value="" style="shape=image;verticalLabelPosition=bottom;labelBackgroundColor=default;verticalAlign=top;aspect=fixed;imageAspect=0;editableCssRules=.*;image=data:image/svg+xml,PHN2ZyB4bWxuczp4bGluaz0iaHR0cDovL3d3dy53My5vcmcvMTk5OS94bGluayIgeG1sbnM9Imh0dHA6Ly93d3cudzMub3JnLzIwMDAvc3ZnIiB2aWV3Qm94PSItMSAtMSAyMzIxLjQ3OTk4MDQ2ODc1IDE4MDAiIGhlaWdodD0iMTgwMCIgd2lkdGg9IjIzMjAuOTk5NTY2NTg2OTIwNSI+JiN4YTs8ZyB0cmFuc2Zvcm09InNjYWxlKDEgMSkgcm90YXRlKDApIHRyYW5zbGF0ZSg0IDE3OTQpIiBjbGFzcz0iZ3JhcGgiIGlkPSJncmFwaDAiPiYjeGE7PHRpdGxlPk1hcFN5c3RlbUFyY2hpdGVjdHVyZTwvdGl0bGU+JiN4YTs8cG9seWdvbiBwb2ludHM9Ii00LDQgLTQsLTE3OTQgMjMxNS40OCwtMTc5NCAyMzE1LjQ4LDQgLTQsNCIgc3Ryb2tlPSJ0cmFuc3BhcmVudCIgZmlsbD0id2hpdGUiLz4mI3hhOzxnIGNsYXNzPSJjbHVzdGVyIiBpZD0iY2x1c3QxIj4mI3hhOzx0aXRsZT5jbHVzdGVyX2tleTwvdGl0bGU+JiN4YTs8cG9seWdvbiBwb2ludHM9IjM5MCwtOCAzOTAsLTE2MiAyMzAzLjQ4LC0xNjIgMjMwMy40OCwtOCAzOTAsLTgiIHN0cm9rZT0iYmxhY2siIGZpbGw9Iml2b3J5Ii8+JiN4YTs8dGV4dCBmb250LXNpemU9IjE0LjAwIiBmb250LWZhbWlseT0iVGltZXMsc2VyaWYiIHk9Ii0xNDYuOCIgeD0iMTM0Ni43NCIgdGV4dC1hbmNob3I9Im1pZGRsZSI+S2V5PC90ZXh0PiYjeGE7PC9nPiYjeGE7PGcgY2xhc3M9ImNsdXN0ZXIiIGlkPSJjbHVzdDIiPiYjeGE7PHRpdGxlPmNsdXN0ZXJfZ29kb3RfZW5naW5lPC90aXRsZT4mI3hhOzxwb2x5Z29uIHBvaW50cz0iMTI2Mi4yNCwtMTA3NSAxMjYyLjI0LC0xMzA4IDE1MTguNzIsLTEzMDggMTUxOC43MiwtMTA3NSAxMjYyLjI0LC0xMDc1IiBzdHJva2U9ImxpZ2h0eWVsbG93IiBmaWxsPSJsaWdodHllbGxvdyIvPiYjeGE7PHRleHQgZm9udC1zaXplPSIxNC4wMCIgZm9udC1mYW1pbHk9IlRpbWVzLHNlcmlmIiB5PSItMTI5Mi44IiB4PSIxMzkwLjQ4IiB0ZXh0LWFuY2hvcj0ibWlkZGxlIj5Hb2RvdCBFbmdpbmU8L3RleHQ+JiN4YTs8L2c+JiN4YTs8ZyBjbGFzcz0iY2x1c3RlciIgaWQ9ImNsdXN0MyI+JiN4YTs8dGl0bGU+Y2x1c3Rlcl9hcmVuYV9zY2VuZTwvdGl0bGU+JiN4YTs8cG9seWdvbiBwb2ludHM9IjI2OSwtODcwIDI2OSwtMTQzMyAxMDA2Ljc0LC0xNDMzIDEwMDYuNzQsLTg3MCAyNjksLTg3MCIgc3Ryb2tlPSJkYXJrZ3JleSIgZmlsbD0iZGFya2dyZXkiLz4mI3hhOzx0ZXh0IGZvbnQtc2l6ZT0iMTQuMDAiIGZvbnQtZmFtaWx5PSJUaW1lcyxzZXJpZiIgeT0iLTE0MTcuOCIgeD0iNjM3Ljg3IiB0ZXh0LWFuY2hvcj0ibWlkZGxlIj5BcmVuYSBTY2VuZSAoTm9kZTNEKTwvdGV4dD4mI3hhOzwvZz4mI3hhOzxnIGNsYXNzPSJjbHVzdGVyIiBpZD0iY2x1c3Q0Ij4mI3hhOzx0aXRsZT5jbHVzdGVyX2Fzc2V0c19jb25maWc8L3RpdGxlPiYjeGE7PHBvbHlnb24gcG9pbnRzPSIxMTgwLjQ4LC0xMzE2IDExODAuNDgsLTE1MzYgMTg3Ni40OCwtMTUzNiAxODc2LjQ4LC0xMzE2IDExODAuNDgsLTEzMTYiIHN0cm9rZT0iZGFya2dyZWVuIiBmaWxsPSJkYXJrZ3JlZW4iLz4mI3hhOzx0ZXh0IGZvbnQtc2l6ZT0iMTQuMDAiIGZvbnQtZmFtaWx5PSJUaW1lcyxzZXJpZiIgeT0iLTE1MjAuOCIgeD0iMTUyOC40OCIgdGV4dC1hbmNob3I9Im1pZGRsZSI+QXNzZXRzICZhbXA7IENvbmZpZ3VyYXRpb248L3RleHQ+JiN4YTs8L2c+JiN4YTs8ZyBjbGFzcz0iY2x1c3RlciIgaWQ9ImNsdXN0NSI+JiN4YTs8dGl0bGU+Y2x1c3Rlcl9nYW1lX2VsZW1lbnRzPC90aXRsZT4mI3hhOzxwb2x5Z29uIHBvaW50cz0iMzg5LjUsLTE3NSAzODkuNSwtMzMxIDU0OS41LC0zMzEgNTQ5LjUsLTE3NSAzODkuNSwtMTc1IiBzdHJva2U9ImRhcmtibHVlIiBmaWxsPSJkYXJrYmx1ZSIvPiYjeGE7PHRleHQgZm9udC1zaXplPSIxNC4wMCIgZm9udC1mYW1pbHk9IlRpbWVzLHNlcmlmIiB5PSItMzE1LjgiIHg9IjQ2OS41IiB0ZXh0LWFuY2hvcj0ibWlkZGxlIj5HYW1lcGxheSBFbGVtZW50czwvdGV4dD4mI3hhOzwvZz4mI3hhOzxnIGNsYXNzPSJjbHVzdGVyIiBpZD0iY2x1c3Q2Ij4mI3hhOzx0aXRsZT5jbHVzdGVyX2VsaW1pbmF0aW9uX2Zsb3c8L3RpdGxlPiYjeGE7PHBvbHlnb24gcG9pbnRzPSIzNDMsLTM3NyAzNDMsLTg2MiA1OTYsLTg2MiA1OTYsLTM3NyAzNDMsLTM3NyIgc3Ryb2tlPSJibGFjayIgZmlsbD0ibWlzdHlyb3NlIi8+JiN4YTs8dGV4dCBmb250LXNpemU9IjE0LjAwIiBmb250LWZhbWlseT0iVGltZXMsc2VyaWYiIHk9Ii04NDYuOCIgeD0iNDY5LjUiIHRleHQtYW5jaG9yPSJtaWRkbGUiPlByb2Nlc3MgRmxvdzogUGxheWVyIEVsaW1pbmF0aW9uPC90ZXh0PiYjeGE7PC9nPiYjeGE7JiN4YTs8ZyBjbGFzcz0ibm9kZSIgaWQ9Im5vZGUxIj4mI3hhOzx0aXRsZT5LZXlfQXJlbmE8L3RpdGxlPiYjeGE7PHBvbHlnb24gcG9pbnRzPSI1NDAsLTEzMSAzOTgsLTEzMSAzOTgsLTk1IDU0MCwtOTUgNTQwLC0xMzEiIHN0cm9rZT0iYmxhY2siIGZpbGw9IndoaXRlIi8+JiN4YTs8dGV4dCBmb250LXNpemU9IjE0LjAwIiBmb250LWZhbWlseT0iSGVsdmV0aWNhLHNhbnMtU2VyaWYiIHk9Ii0xMDkuMyIgeD0iNDY5IiB0ZXh0LWFuY2hvcj0ibWlkZGxlIj5BcmVuYSBDb21wb25lbnQ8L3RleHQ+JiN4YTs8L2c+JiN4YTsmI3hhOzxnIGNsYXNzPSJub2RlIiBpZD0ibm9kZTIiPiYjeGE7PHRpdGxlPktleV9Hb2RvdDwvdGl0bGU+JiN4YTs8ZWxsaXBzZSByeT0iMTgiIHJ4PSIxMDcuNDgiIGN5PSItMTEzIiBjeD0iOTIxLjI0IiBzdHJva2U9ImJsYWNrIiBmaWxsPSJsaWdodGJsdWUiLz4mI3hhOzx0ZXh0IGZvbnQtc2l6ZT0iMTQuMDAiIGZvbnQtZmFtaWx5PSJIZWx2ZXRpY2Esc2Fucy1TZXJpZiIgeT0iLTEwOS4zIiB4PSI5MjEuMjQiIHRleHQtYW5jaG9yPSJtaWRkbGUiPkdvZG90IEVuZ2luZSBNb2R1bGU8L3RleHQ+JiN4YTs8L2c+JiN4YTsmI3hhOyYjeGE7PGcgY2xhc3M9Im5vZGUiIGlkPSJub2RlMyI+JiN4YTs8dGl0bGU+S2V5X0dhbWVwbGF5PC90aXRsZT4mI3hhOzxwb2x5Z29uIHBvaW50cz0iMTQ2NC40OCwtMTMxIDEzMTYuNDgsLTEzMSAxMzE2LjQ4LC0xMjcgMTMxMi40OCwtMTI3IDEzMTIuNDgsLTEyMyAxMzE2LjQ4LC0xMjMgMTMxNi40OCwtMTAzIDEzMTIuNDgsLTEwMyAxMzEyLjQ4LC05OSAxMzE2LjQ4LC05OSAxMzE2LjQ4LC05NSAxNDY0LjQ4LC05NSAxNDY0LjQ4LC0xMzEiIHN0cm9rZT0iYmxhY2siIGZpbGw9InBpbmsiLz4mI3hhOzxwb2x5bGluZSBwb2ludHM9IjEzMTYuNDgsLTEyNyAxMzIwLjQ4LC0xMjcgMTMyMC40OCwtMTIzIDEzMTYuNDgsLTEyMyIgc3Ryb2tlPSJibGFjayIgZmlsbD0ibm9uZSIvPiYjeGE7PHBvbHlsaW5lIHBvaW50cz0iMTMxNi40OCwtMTAzIDEzMjAuNDgsLTEwMyAxMzIwLjQ4LC05OSAxMzE2LjQ4LC05OSIgc3Ryb2tlPSJibGFjayIgZmlsbD0ibm9uZSIvPiYjeGE7PHRleHQgZm9udC1zaXplPSIxNC4wMCIgZm9udC1mYW1pbHk9IkhlbHZldGljYSxzYW5zLVNlcmlmIiB5PSItMTA5LjMiIHg9IjEzOTAuNDgiIHRleHQtYW5jaG9yPSJtaWRkbGUiPkdhbWVwbGF5IEVsZW1lbnQ8L3RleHQ+JiN4YTs8L2c+JiN4YTsmI3hhOyYjeGE7PGcgY2xhc3M9Im5vZGUiIGlkPSJub2RlNCI+JiN4YTs8dGl0bGU+S2V5X0NvbmZpZzwvdGl0bGU+JiN4YTs8cG9seWdvbiBwb2ludHM9IjE4NzIuNDgsLTEzMCAxNzMwLjQ4LC0xMzAgMTczMC40OCwtOTQgMTg3OC40OCwtOTQgMTg3OC40OCwtMTI0IDE4NzIuNDgsLTEzMCIgc3Ryb2tlPSJibGFjayIgZmlsbD0ieWVsbG93Ii8+JiN4YTs8cG9seWxpbmUgcG9pbnRzPSIxODcyLjQ4LC0xMzAgMTg3Mi40OCwtMTI0IiBzdHJva2U9ImJsYWNrIiBmaWxsPSJub25lIi8+JiN4YTs8cG9seWxpbmUgcG9pbnRzPSIxODc4LjQ4LC0xMjQgMTg3Mi40OCwtMTI0IiBzdHJva2U9ImJsYWNrIiBmaWxsPSJub25lIi8+JiN4YTs8dGV4dCBmb250LXNpemU9IjE0LjAwIiBmb250LWZhbWlseT0iSGVsdmV0aWNhLHNhbnMtU2VyaWYiIHk9Ii0xMDguMyIgeD0iMTgwNC40OCIgdGV4dC1hbmNob3I9Im1pZGRsZSI+Q29uZmlndXJhdGlvbi9EYXRhPC90ZXh0PiYjeGE7PC9nPiYjeGE7JiN4YTsmI3hhOzxnIGNsYXNzPSJub2RlIiBpZD0ibm9kZTUiPiYjeGE7PHRpdGxlPktleV9Bc3NldHM8L3RpdGxlPiYjeGE7PHBvbHlnb24gcG9pbnRzPSIyMDY3LjQ4LC0xMzAgMjA2NC40OCwtMTM0IDIwNDMuNDgsLTEzNCAyMDQwLjQ4LC0xMzAgMTk2NS40OCwtMTMwIDE5NjUuNDgsLTk0IDIwNjcuNDgsLTk0IDIwNjcuNDgsLTEzMCIgc3Ryb2tlPSJibGFjayIgZmlsbD0ib3JhbmdlIi8+JiN4YTs8dGV4dCBmb250LXNpemU9IjE0LjAwIiBmb250LWZhbWlseT0iSGVsdmV0aWNhLHNhbnMtU2VyaWYiIHk9Ii0xMDguMyIgeD0iMjAxNi40OCIgdGV4dC1hbmNob3I9Im1pZGRsZSI+QXNzZXQgRm9sZGVyPC90ZXh0PiYjeGE7PC9nPiYjeGE7JiN4YTsmI3hhOzxnIGNsYXNzPSJub2RlIiBpZD0ibm9kZTYiPiYjeGE7PHRpdGxlPktleV9Qcm9jZXNzPC90aXRsZT4mI3hhOzxwYXRoIGQ9Ik0yMTY2LjQ4LC05NEMyMTY2LjQ4LC05NCAyMjgzLjQ4LC05NCAyMjgzLjQ4LC05NCAyMjg5LjQ4LC05NCAyMjk1LjQ4LC0xMDAgMjI5NS40OCwtMTA2IDIyOTUuNDgsLTEwNiAyMjk1LjQ4LC0xMTggMjI5NS40OCwtMTE4IDIyOTUuNDgsLTEyNCAyMjg5LjQ4LC0xMzAgMjI4My40OCwtMTMwIDIyODMuNDgsLTEzMCAyMTY2LjQ4LC0xMzAgMjE2Ni40OCwtMTMwIDIxNjAuNDgsLTEzMCAyMTU0LjQ4LC0xMjQgMjE1NC40OCwtMTE4IDIxNTQuNDgsLTExOCAyMTU0LjQ4LC0xMDYgMjE1NC40OCwtMTA2IDIxNTQuNDgsLTEwMCAyMTYwLjQ4LC05NCAyMTY2LjQ4LC05NCIgc3Ryb2tlPSJibGFjayIgZmlsbD0ibGlnaHRjeWFuIi8+JiN4YTs8dGV4dCBmb250LXNpemU9IjE0LjAwIiBmb250LWZhbWlseT0iSGVsdmV0aWNhLHNhbnMtU2VyaWYiIHk9Ii0xMDguMyIgeD0iMjIyNC45OCIgdGV4dC1hbmNob3I9Im1pZGRsZSI+UHJvY2VzcyBGbG93IFN0ZXA8L3RleHQ+JiN4YTs8L2c+JiN4YTsmI3hhOyYjeGE7PGcgY2xhc3M9Im5vZGUiIGlkPSJub2RlNyI+JiN4YTs8dGl0bGU+S2V5X0VkZ2VfVXNlczwvdGl0bGU+JiN4YTs8cG9seWdvbiBwb2ludHM9IjUzNCwtNTIgNDA0LC01MiA0MDQsLTE2IDUzNCwtMTYgNTM0LC01MiIgc3Ryb2tlPSJibGFjayIgZmlsbD0ibm9uZSIvPiYjeGE7PHRleHQgZm9udC1zaXplPSIxNC4wMCIgZm9udC1mYW1pbHk9IkhlbHZldGljYSxzYW5zLVNlcmlmIiB5PSItMzAuMyIgeD0iNDY5IiB0ZXh0LWFuY2hvcj0ibWlkZGxlIj5Vc2VzL0NvbmZpZ3VyZXM8L3RleHQ+JiN4YTs8L2c+JiN4YTsmI3hhOzxnIGNsYXNzPSJub2RlIiBpZD0ibm9kZTgiPiYjeGE7PHRpdGxlPktleV9FZGdlX0ludGVyYWN0czwvdGl0bGU+JiN4YTs8cG9seWdvbiBwb2ludHM9Ijk4OS43NCwtNTIgODUyLjc0LC01MiA4NTIuNzQsLTE2IDk4OS43NCwtMTYgOTg5Ljc0LC01MiIgc3Ryb2tlLWRhc2hhcnJheT0iNSwyIiBzdHJva2U9ImJsdWUiIGZpbGw9Im5vbmUiLz4mI3hhOzx0ZXh0IGZvbnQtc2l6ZT0iMTQuMDAiIGZvbnQtZmFtaWx5PSJIZWx2ZXRpY2Esc2Fucy1TZXJpZiIgeT0iLTMwLjMiIHg9IjkyMS4yNCIgdGV4dC1hbmNob3I9Im1pZGRsZSI+SW50ZXJhY3RzL0NvbGxpZGVzPC90ZXh0PiYjeGE7PC9nPiYjeGE7JiN4YTsmI3hhOzxnIGNsYXNzPSJub2RlIiBpZD0ibm9kZTkiPiYjeGE7PHRpdGxlPktleV9FZGdlX0Zsb3c8L3RpdGxlPiYjeGE7PHBvbHlnb24gcG9pbnRzPSIxNDQyLjk4LC01MiAxMzM3Ljk4LC01MiAxMzM3Ljk4LC0xNiAxNDQyLjk4LC0xNiAxNDQyLjk4LC01MiIgc3Ryb2tlLXdpZHRoPSIyIiBzdHJva2U9InJlZCIgZmlsbD0ibm9uZSIvPiYjeGE7PHRleHQgZm9udC1zaXplPSIxNC4wMCIgZm9udC1mYW1pbHk9IkhlbHZldGljYSxzYW5zLVNlcmlmIiB5PSItMzAuMyIgeD0iMTM5MC40OCIgdGV4dC1hbmNob3I9Im1pZGRsZSI+UHJvY2VzcyBGbG93PC90ZXh0PiYjeGE7PC9nPiYjeGE7JiN4YTsmI3hhOzxnIGNsYXNzPSJub2RlIiBpZD0ibm9kZTEwIj4mI3hhOzx0aXRsZT5QaHlzaWNzU2VydmVyM0Q8L3RpdGxlPiYjeGE7PGVsbGlwc2Ugcnk9IjE4IiByeD0iODcuMTgiIGN5PSItMTEwMSIgY3g9IjEzOTAuNDgiIHN0cm9rZT0iYmxhY2siIGZpbGw9ImxpZ2h0Ymx1ZSIvPiYjeGE7PHRleHQgZm9udC1zaXplPSIxNC4wMCIgZm9udC1mYW1pbHk9IkhlbHZldGljYSxzYW5zLVNlcmlmIiB5PSItMTA5Ny4zIiB4PSIxMzkwLjQ4IiB0ZXh0LWFuY2hvcj0ibWlkZGxlIj5QaHlzaWNzU2VydmVyM0Q8L3RleHQ+JiN4YTs8L2c+JiN4YTsmI3hhOzxnIGNsYXNzPSJub2RlIiBpZD0ibm9kZTExIj4mI3hhOzx0aXRsZT5NdWx0aXBsYXllclN5bmNocm9uaXplcjwvdGl0bGU+JiN4YTs8ZWxsaXBzZSByeT0iMTgiIHJ4PSIxMjAuNDgiIGN5PSItMTE4MCIgY3g9IjEzOTAuNDgiIHN0cm9rZT0iYmxhY2siIGZpbGw9ImxpZ2h0Ymx1ZSIvPiYjeGE7PHRleHQgZm9udC1zaXplPSIxNC4wMCIgZm9udC1mYW1pbHk9IkhlbHZldGljYSxzYW5zLVNlcmlmIiB5PSItMTE3Ni4zIiB4PSIxMzkwLjQ4IiB0ZXh0LWFuY2hvcj0ibWlkZGxlIj5NdWx0aXBsYXllclN5bmNocm9uaXplcjwvdGV4dD4mI3hhOzwvZz4mI3hhOyYjeGE7PGcgY2xhc3M9Im5vZGUiIGlkPSJub2RlMTIiPiYjeGE7PHRpdGxlPlZpc3VhbFNlcnZlcjwvdGl0bGU+JiN4YTs8ZWxsaXBzZSByeT0iMTgiIHJ4PSI2Ny42OSIgY3k9Ii0xMjU5IiBjeD0iMTM5MC40OCIgc3Ryb2tlPSJibGFjayIgZmlsbD0ibGlnaHRibHVlIi8+JiN4YTs8dGV4dCBmb250LXNpemU9IjE0LjAwIiBmb250LWZhbWlseT0iSGVsdmV0aWNhLHNhbnMtU2VyaWYiIHk9Ii0xMjU1LjMiIHg9IjEzOTAuNDgiIHRleHQtYW5jaG9yPSJtaWRkbGUiPlZpc3VhbFNlcnZlcjwvdGV4dD4mI3hhOzwvZz4mI3hhOyYjeGE7PGcgY2xhc3M9Im5vZGUiIGlkPSJub2RlMTMiPiYjeGE7PHRpdGxlPkFyZW5hPC90aXRsZT4mI3hhOzxwb2x5Z29uIHBvaW50cz0iMjc3LC0xMjY4IDI3NywtMTMzNiA2NjEsLTEzMzYgNjYxLC0xMjY4IDI3NywtMTI2OCIgc3Ryb2tlPSJibGFjayIgZmlsbD0id2hpdGUiLz4mI3hhOzx0ZXh0IGZvbnQtc2l6ZT0iMTQuMDAiIGZvbnQtZmFtaWx5PSJIZWx2ZXRpY2Esc2Fucy1TZXJpZiIgeT0iLTEyOTguMyIgeD0iMzU4LjUiIHRleHQtYW5jaG9yPSJtaWRkbGUiPkFyZW5hIChSb290IE5vZGUzRCk8L3RleHQ+JiN4YTs8cG9seWxpbmUgcG9pbnRzPSI0NDAsLTEyNjggNDQwLC0xMzM2IiBzdHJva2U9ImJsYWNrIiBmaWxsPSJub25lIi8+JiN4YTs8dGV4dCBmb250LXNpemU9IjE0LjAwIiBmb250LWZhbWlseT0iSGVsdmV0aWNhLHNhbnMtU2VyaWYiIHk9Ii0xMzIwLjgiIHg9IjQ0OCIgdGV4dC1hbmNob3I9InN0YXJ0Ij4rIF9yZWFkeSgpPC90ZXh0PiYjeGE7PHRleHQgZm9udC1zaXplPSIxNC4wMCIgZm9udC1mYW1pbHk9IkhlbHZldGljYSxzYW5zLVNlcmlmIiB5PSItMTMwNS44IiB4PSI0NDgiIHRleHQtYW5jaG9yPSJzdGFydCI+KyBsb2FkX21hcF9jb25maWcoKTwvdGV4dD4mI3hhOzx0ZXh0IGZvbnQtc2l6ZT0iMTQuMDAiIGZvbnQtZmFtaWx5PSJIZWx2ZXRpY2Esc2Fucy1TZXJpZiIgeT0iLTEyOTAuOCIgeD0iNDQ4IiB0ZXh0LWFuY2hvcj0ic3RhcnQiPisgc2V0dXBfZHluYW1pY19vYnN0YWNsZXMoKTwvdGV4dD4mI3hhOzx0ZXh0IGZvbnQtc2l6ZT0iMTQuMDAiIGZvbnQtZmFtaWx5PSJIZWx2ZXRpY2Esc2Fucy1TZXJpZiIgeT0iLTEyNzUuOCIgeD0iNDQ4IiB0ZXh0LWFuY2hvcj0ic3RhcnQiPisgdHJpZ2dlcl9tb2RpZmllcigpPC90ZXh0PiYjeGE7PC9nPiYjeGE7JiN4YTs8ZyBjbGFzcz0iZWRnZSIgaWQ9ImVkZ2UxNSI+JiN4YTs8dGl0bGU+QXJlbmEtJmd0O1BoeXNpY3NTZXJ2ZXIzRDwvdGl0bGU+JiN4YTs8cGF0aCBkPSJNNjQ2LjQ4LC0xMjY3LjlDNjQ2LjQ4LC0xMjEwLjU2IDY0Ni40OCwtMTEwMSA2NDYuNDgsLTExMDEgNjQ2LjQ4LC0xMTAxIDEyOTMuMzEsLTExMDEgMTI5My4zMSwtMTEwMSIgc3Ryb2tlPSJibGFjayIgZmlsbD0ibm9uZSIvPiYjeGE7PHBvbHlnb24gcG9pbnRzPSIxMjkzLjMxLC0xMTA0LjUgMTMwMy4zMSwtMTEwMSAxMjkzLjMxLC0xMDk3LjUgMTI5My4zMSwtMTEwNC41IiBzdHJva2U9ImJsYWNrIiBmaWxsPSJibGFjayIvPiYjeGE7PHRleHQgZm9udC1zaXplPSIxMC4wMCIgZm9udC1mYW1pbHk9IkhlbHZldGljYSxzYW5zLVNlcmlmIiB5PSItMTY4NSIgeD0iOTIxLjI0IiB0ZXh0LWFuY2hvcj0ibWlkZGxlIj51c2VzPC90ZXh0PiYjeGE7PC9nPiYjeGE7JiN4YTs8ZyBjbGFzcz0iZWRnZSIgaWQ9ImVkZ2UxNiI+JiN4YTs8dGl0bGU+QXJlbmEtJmd0O011bHRpcGxheWVyU3luY2hyb25pemVyPC90aXRsZT4mI3hhOzxwYXRoIGQ9Ik02NjEuMjEsLTEyNzIuMjVDOTA1LjM5LC0xMjcyLjI1IDEyOTUuNDgsLTEyNzIuMjUgMTI5NS40OCwtMTI3Mi4yNSAxMjk1LjQ4LC0xMjcyLjI1IDEyOTUuNDgsLTEyMDEuMzEgMTI5NS40OCwtMTIwMS4zMSIgc3Ryb2tlPSJibGFjayIgZmlsbD0ibm9uZSIvPiYjeGE7PHBvbHlnb24gcG9pbnRzPSIxMjk4Ljk4LC0xMjAxLjMxIDEyOTUuNDgsLTExOTEuMzEgMTI5MS45OCwtMTIwMS4zMSAxMjk4Ljk4LC0xMjAxLjMxIiBzdHJva2U9ImJsYWNrIiBmaWxsPSJibGFjayIvPiYjeGE7PHRleHQgZm9udC1zaXplPSIxMC4wMCIgZm9udC1mYW1pbHk9IkhlbHZldGljYSxzYW5zLVNlcmlmIiB5PSItMTU4OCIgeD0iOTIxLjI0IiB0ZXh0LWFuY2hvcj0ibWlkZGxlIj51c2VzPC90ZXh0PiYjeGE7PC9nPiYjeGE7JiN4YTs8ZyBjbGFzcz0iZWRnZSIgaWQ9ImVkZ2UxNyI+JiN4YTs8dGl0bGU+QXJlbmEtJmd0O1Zpc3VhbFNlcnZlcjwvdGl0bGU+JiN4YTs8cGF0aCBkPSJNNjYxLjA1LC0xMjczLjgzQzY2MS4wNSwtMTI3My44MyAxMzQxLjg0LC0xMjczLjgzIDEzNDEuODQsLTEyNzMuODMiIHN0cm9rZT0iYmxhY2siIGZpbGw9Im5vbmUiLz4mI3hhOzxwb2x5Z29uIHBvaW50cz0iMTM0MS44NCwtMTI3Ny4zMyAxMzUxLjg0LC0xMjczLjgzIDEzNDEuODQsLTEyNzAuMzMgMTM0MS44NCwtMTI3Ny4zMyIgc3Ryb2tlPSJibGFjayIgZmlsbD0iYmxhY2siLz4mI3hhOzx0ZXh0IGZvbnQtc2l6ZT0iMTAuMDAiIGZvbnQtZmFtaWx5PSJIZWx2ZXRpY2Esc2Fucy1TZXJpZiIgeT0iLTE0OTEiIHg9IjkyMS4yNCIgdGV4dC1hbmNob3I9Im1pZGRsZSI+dXNlczwvdGV4dD4mI3hhOzwvZz4mI3hhOyYjeGE7PGcgY2xhc3M9Im5vZGUiIGlkPSJub2RlMTQiPiYjeGE7PHRpdGxlPlBsYXRmb3JtPC90aXRsZT4mI3hhOzxwb2x5Z29uIHBvaW50cz0iOTgxLjc0LC05MTYgODYwLjc0LC05MTYgODYwLjc0LC04NzggOTgxLjc0LC04NzggOTgxLjc0LC05MTYiIHN0cm9rZT0iYmxhY2siIGZpbGw9IndoaXRlIi8+JiN4YTs8dGV4dCBmb250LXNpemU9IjE0LjAwIiBmb250LWZhbWlseT0iSGVsdmV0aWNhLHNhbnMtU2VyaWYiIHk9Ii05MDAuOCIgeD0iOTIxLjI0IiB0ZXh0LWFuY2hvcj0ibWlkZGxlIj5QbGF0Zm9ybTwvdGV4dD4mI3hhOzx0ZXh0IGZvbnQtc2l6ZT0iMTQuMDAiIGZvbnQtZmFtaWx5PSJIZWx2ZXRpY2Esc2Fucy1TZXJpZiIgeT0iLTg4NS44IiB4PSI5MjEuMjQiIHRleHQtYW5jaG9yPSJtaWRkbGUiPihTdGF0aWNCb2R5M0QpPC90ZXh0PiYjeGE7PC9nPiYjeGE7JiN4YTs8ZyBjbGFzcz0iZWRnZSIgaWQ9ImVkZ2U4Ij4mI3hhOzx0aXRsZT5BcmVuYS0mZ3Q7UGxhdGZvcm08L3RpdGxlPiYjeGE7PHBhdGggZD0iTTYwMi40OCwtMTI2Ny44MkM2MDIuNDgsLTExNzAuMTggNjAyLjQ4LC04OTcgNjAyLjQ4LC04OTcgNjAyLjQ4LC04OTcgODUwLjUzLC04OTcgODUwLjUzLC04OTciIHN0cm9rZT0iYmxhY2siIGZpbGw9Im5vbmUiLz4mI3hhOzxwb2x5Z29uIHBvaW50cz0iODUwLjUzLC05MDAuNSA4NjAuNTMsLTg5NyA4NTAuNTMsLTg5My41IDg1MC41MywtOTAwLjUiIHN0cm9rZT0iYmxhY2siIGZpbGw9ImJsYWNrIi8+JiN4YTs8L2c+JiN4YTsmI3hhOzxnIGNsYXNzPSJub2RlIiBpZD0ibm9kZTE1Ij4mI3hhOzx0aXRsZT5PYnN0YWNsZXNOb2RlPC90aXRsZT4mI3hhOzxwb2x5Z29uIHBvaW50cz0iOTk4Ljc0LC05OTcgODQzLjc0LC05OTcgODQzLjc0LC05NTkgOTk4Ljc0LC05NTkgOTk4Ljc0LC05OTciIHN0cm9rZT0iYmxhY2siIGZpbGw9IndoaXRlIi8+JiN4YTs8dGV4dCBmb250LXNpemU9IjE0LjAwIiBmb250LWZhbWlseT0iSGVsdmV0aWNhLHNhbnMtU2VyaWYiIHk9Ii05ODEuOCIgeD0iOTIxLjI0IiB0ZXh0LWFuY2hvcj0ibWlkZGxlIj5PYnN0YWNsZXM8L3RleHQ+JiN4YTs8dGV4dCBmb250LXNpemU9IjE0LjAwIiBmb250LWZhbWlseT0iSGVsdmV0aWNhLHNhbnMtU2VyaWYiIHk9Ii05NjYuOCIgeD0iOTIxLjI0IiB0ZXh0LWFuY2hvcj0ibWlkZGxlIj4oTm9kZTNEIENvbnRhaW5lcik8L3RleHQ+JiN4YTs8L2c+JiN4YTsmI3hhOzxnIGNsYXNzPSJlZGdlIiBpZD0iZWRnZTkiPiYjeGE7PHRpdGxlPkFyZW5hLSZndDtPYnN0YWNsZXNOb2RlPC90aXRsZT4mI3hhOzxwYXRoIGQ9Ik02MTcuNDgsLTEyNjcuOTRDNjE3LjQ4LC0xMTg0Ljc1IDYxNy40OCwtOTc4IDYxNy40OCwtOTc4IDYxNy40OCwtOTc4IDgzMy40MSwtOTc4IDgzMy40MSwtOTc4IiBzdHJva2U9ImJsYWNrIiBmaWxsPSJub25lIi8+JiN4YTs8cG9seWdvbiBwb2ludHM9IjgzMy40MSwtOTgxLjUgODQzLjQxLC05NzggODMzLjQxLC05NzQuNSA4MzMuNDEsLTk4MS41IiBzdHJva2U9ImJsYWNrIiBmaWxsPSJibGFjayIvPiYjeGE7PC9nPiYjeGE7JiN4YTs8ZyBjbGFzcz0ibm9kZSIgaWQ9Im5vZGUxNiI+JiN4YTs8dGl0bGU+U3Bhd25Qb2ludHM8L3RpdGxlPiYjeGE7PHBvbHlnb24gcG9pbnRzPSI5OTguNzQsLTExNTkgODQzLjc0LC0xMTU5IDg0My43NCwtMTEyMSA5OTguNzQsLTExMjEgOTk4Ljc0LC0xMTU5IiBzdHJva2U9ImJsYWNrIiBmaWxsPSJ3aGl0ZSIvPiYjeGE7PHRleHQgZm9udC1zaXplPSIxNC4wMCIgZm9udC1mYW1pbHk9IkhlbHZldGljYSxzYW5zLVNlcmlmIiB5PSItMTE0My44IiB4PSI5MjEuMjQiIHRleHQtYW5jaG9yPSJtaWRkbGUiPlNwYXduUG9pbnRzPC90ZXh0PiYjeGE7PHRleHQgZm9udC1zaXplPSIxNC4wMCIgZm9udC1mYW1pbHk9IkhlbHZldGljYSxzYW5zLVNlcmlmIiB5PSItMTEyOC44IiB4PSI5MjEuMjQiIHRleHQtYW5jaG9yPSJtaWRkbGUiPihOb2RlM0QgQ29udGFpbmVyKTwvdGV4dD4mI3hhOzwvZz4mI3hhOyYjeGE7PGcgY2xhc3M9ImVkZ2UiIGlkPSJlZGdlMTAiPiYjeGE7PHRpdGxlPkFyZW5hLSZndDtTcGF3blBvaW50czwvdGl0bGU+JiN4YTs8cGF0aCBkPSJNNjYxLjI0LC0xMjY5LjA4Qzc1Ny4zNiwtMTI2OS4wOCA4NTMuNDgsLTEyNjkuMDggODUzLjQ4LC0xMjY5LjA4IDg1My40OCwtMTI2OS4wOCA4NTMuNDgsLTExNjkuMDUgODUzLjQ4LC0xMTY5LjA1IiBzdHJva2U9ImJsYWNrIiBmaWxsPSJub25lIi8+JiN4YTs8cG9seWdvbiBwb2ludHM9Ijg1Ni45OCwtMTE2OS4wNSA4NTMuNDgsLTExNTkuMDUgODQ5Ljk4LC0xMTY5LjA1IDg1Ni45OCwtMTE2OS4wNSIgc3Ryb2tlPSJibGFjayIgZmlsbD0iYmxhY2siLz4mI3hhOzwvZz4mI3hhOyYjeGE7PGcgY2xhc3M9Im5vZGUiIGlkPSJub2RlMTciPiYjeGE7PHRpdGxlPlNwZWN0YXRvclpvbmU8L3RpdGxlPiYjeGE7PHBvbHlnb24gcG9pbnRzPSI5ODAuNzQsLTEyNDAgODYxLjc0LC0xMjQwIDg2MS43NCwtMTIwMiA5ODAuNzQsLTEyMDIgOTgwLjc0LC0xMjQwIiBzdHJva2U9ImJsYWNrIiBmaWxsPSJ3aGl0ZSIvPiYjeGE7PHRleHQgZm9udC1zaXplPSIxNC4wMCIgZm9udC1mYW1pbHk9IkhlbHZldGljYSxzYW5zLVNlcmlmIiB5PSItMTIyNC44IiB4PSI5MjEuMjQiIHRleHQtYW5jaG9yPSJtaWRkbGUiPlNwZWN0YXRvclpvbmU8L3RleHQ+JiN4YTs8dGV4dCBmb250LXNpemU9IjE0LjAwIiBmb250LWZhbWlseT0iSGVsdmV0aWNhLHNhbnMtU2VyaWYiIHk9Ii0xMjA5LjgiIHg9IjkyMS4yNCIgdGV4dC1hbmNob3I9Im1pZGRsZSI+KE5vZGUzRCk8L3RleHQ+JiN4YTs8L2c+JiN4YTsmI3hhOzxnIGNsYXNzPSJlZGdlIiBpZD0iZWRnZTExIj4mI3hhOzx0aXRsZT5BcmVuYS0mZ3Q7U3BlY3RhdG9yWm9uZTwvdGl0bGU+JiN4YTs8cGF0aCBkPSJNNjYxLjE0LC0xMjcwLjY3Qzc2Mi4yNSwtMTI3MC42NyA4NjUuNDgsLTEyNzAuNjcgODY1LjQ4LC0xMjcwLjY3IDg2NS40OCwtMTI3MC42NyA4NjUuNDgsLTEyNTAuMDYgODY1LjQ4LC0xMjUwLjA2IiBzdHJva2U9ImJsYWNrIiBmaWxsPSJub25lIi8+JiN4YTs8cG9seWdvbiBwb2ludHM9Ijg2OC45OCwtMTI1MC4wNiA4NjUuNDgsLTEyNDAuMDYgODYxLjk4LC0xMjUwLjA2IDg2OC45OCwtMTI1MC4wNiIgc3Ryb2tlPSJibGFjayIgZmlsbD0iYmxhY2siLz4mI3hhOzwvZz4mI3hhOyYjeGE7PGcgY2xhc3M9Im5vZGUiIGlkPSJub2RlMTgiPiYjeGE7PHRpdGxlPlZpc3VhbEVmZmVjdHM8L3RpdGxlPiYjeGE7PHBvbHlnb24gcG9pbnRzPSI5NzMuNzQsLTEzMjEgODY4Ljc0LC0xMzIxIDg2OC43NCwtMTI4MyA5NzMuNzQsLTEyODMgOTczLjc0LC0xMzIxIiBzdHJva2U9ImJsYWNrIiBmaWxsPSJ3aGl0ZSIvPiYjeGE7PHRleHQgZm9udC1zaXplPSIxNC4wMCIgZm9udC1mYW1pbHk9IkhlbHZldGljYSxzYW5zLVNlcmlmIiB5PSItMTMwNS44IiB4PSI5MjEuMjQiIHRleHQtYW5jaG9yPSJtaWRkbGUiPlZpc3VhbEVmZmVjdHM8L3RleHQ+JiN4YTs8dGV4dCBmb250LXNpemU9IjE0LjAwIiBmb250LWZhbWlseT0iSGVsdmV0aWNhLHNhbnMtU2VyaWYiIHk9Ii0xMjkwLjgiIHg9IjkyMS4yNCIgdGV4dC1hbmNob3I9Im1pZGRsZSI+KE5vZGUzRCk8L3RleHQ+JiN4YTs8L2c+JiN4YTsmI3hhOzxnIGNsYXNzPSJlZGdlIiBpZD0iZWRnZTEyIj4mI3hhOzx0aXRsZT5BcmVuYS0mZ3Q7VmlzdWFsRWZmZWN0czwvdGl0bGU+JiN4YTs8cGF0aCBkPSJNNjYxLjEyLC0xMzAyQzY2MS4xMiwtMTMwMiA4NTguNTEsLTEzMDIgODU4LjUxLC0xMzAyIiBzdHJva2U9ImJsYWNrIiBmaWxsPSJub25lIi8+JiN4YTs8cG9seWdvbiBwb2ludHM9Ijg1OC41MSwtMTMwNS41IDg2OC41MSwtMTMwMiA4NTguNTEsLTEyOTguNSA4NTguNTEsLTEzMDUuNSIgc3Ryb2tlPSJibGFjayIgZmlsbD0iYmxhY2siLz4mI3hhOzwvZz4mI3hhOyYjeGE7PGcgY2xhc3M9Im5vZGUiIGlkPSJub2RlMTkiPiYjeGE7PHRpdGxlPkludmlzaWJsZVdhbGxzPC90aXRsZT4mI3hhOzxwb2x5Z29uIHBvaW50cz0iOTgxLjc0LC0xMDc4IDg2MC43NCwtMTA3OCA4NjAuNzQsLTEwNDAgOTgxLjc0LC0xMDQwIDk4MS43NCwtMTA3OCIgc3Ryb2tlPSJibGFjayIgZmlsbD0id2hpdGUiLz4mI3hhOzx0ZXh0IGZvbnQtc2l6ZT0iMTQuMDAiIGZvbnQtZmFtaWx5PSJIZWx2ZXRpY2Esc2Fucy1TZXJpZiIgeT0iLTEwNjIuOCIgeD0iOTIxLjI0IiB0ZXh0LWFuY2hvcj0ibWlkZGxlIj5JbnZpc2libGVXYWxsczwvdGV4dD4mI3hhOzx0ZXh0IGZvbnQtc2l6ZT0iMTQuMDAiIGZvbnQtZmFtaWx5PSJIZWx2ZXRpY2Esc2Fucy1TZXJpZiIgeT0iLTEwNDcuOCIgeD0iOTIxLjI0IiB0ZXh0LWFuY2hvcj0ibWlkZGxlIj4oU3RhdGljQm9keTNEKTwvdGV4dD4mI3hhOzwvZz4mI3hhOyYjeGE7PGcgY2xhc3M9ImVkZ2UiIGlkPSJlZGdlMTMiPiYjeGE7PHRpdGxlPkFyZW5hLSZndDtJbnZpc2libGVXYWxsczwvdGl0bGU+JiN4YTs8cGF0aCBkPSJNNjMxLjQ4LC0xMjY3Ljg0QzYzMS40OCwtMTIwMi4zIDYzMS40OCwtMTA2NS4zMyA2MzEuNDgsLTEwNjUuMzMgNjMxLjQ4LC0xMDY1LjMzIDg1MC41LC0xMDY1LjMzIDg1MC41LC0xMDY1LjMzIiBzdHJva2U9ImJsYWNrIiBmaWxsPSJub25lIi8+JiN4YTs8cG9seWdvbiBwb2ludHM9Ijg1MC41LC0xMDY4LjgzIDg2MC41LC0xMDY1LjMzIDg1MC41LC0xMDYxLjgzIDg1MC41LC0xMDY4LjgzIiBzdHJva2U9ImJsYWNrIiBmaWxsPSJibGFjayIvPiYjeGE7PC9nPiYjeGE7JiN4YTs8ZyBjbGFzcz0ibm9kZSIgaWQ9Im5vZGUyMCI+JiN4YTs8dGl0bGU+Vm9pZEFyZWE8L3RpdGxlPiYjeGE7PHBvbHlnb24gcG9pbnRzPSI5NjAuMjQsLTE0MDIgODgyLjI0LC0xNDAyIDg4Mi4yNCwtMTM2NCA5NjAuMjQsLTEzNjQgOTYwLjI0LC0xNDAyIiBzdHJva2U9ImJsYWNrIiBmaWxsPSJ3aGl0ZSIvPiYjeGE7PHRleHQgZm9udC1zaXplPSIxNC4wMCIgZm9udC1mYW1pbHk9IkhlbHZldGljYSxzYW5zLVNlcmlmIiB5PSItMTM4Ni44IiB4PSI5MjEuMjQiIHRleHQtYW5jaG9yPSJtaWRkbGUiPlZvaWRBcmVhPC90ZXh0PiYjeGE7PHRleHQgZm9udC1zaXplPSIxNC4wMCIgZm9udC1mYW1pbHk9IkhlbHZldGljYSxzYW5zLVNlcmlmIiB5PSItMTM3MS44IiB4PSI5MjEuMjQiIHRleHQtYW5jaG9yPSJtaWRkbGUiPihBcmVhM0QpPC90ZXh0PiYjeGE7PC9nPiYjeGE7JiN4YTs8ZyBjbGFzcz0iZWRnZSIgaWQ9ImVkZ2UxNCI+JiN4YTs8dGl0bGU+QXJlbmEtJmd0O1ZvaWRBcmVhPC90aXRsZT4mI3hhOzxwYXRoIGQ9Ik02NjEuMjIsLTEzMzMuMzhDNzg0LjQ2LC0xMzMzLjM4IDkyMS40OCwtMTMzMy4zOCA5MjEuNDgsLTEzMzMuMzggOTIxLjQ4LC0xMzMzLjM4IDkyMS40OCwtMTM1My45NiA5MjEuNDgsLTEzNTMuOTYiIHN0cm9rZT0iYmxhY2siIGZpbGw9Im5vbmUiLz4mI3hhOzxwb2x5Z29uIHBvaW50cz0iOTE3Ljk4LC0xMzUzLjk2IDkyMS40OCwtMTM2My45NiA5MjQuOTgsLTEzNTMuOTYgOTE3Ljk4LC0xMzUzLjk2IiBzdHJva2U9ImJsYWNrIiBmaWxsPSJibGFjayIvPiYjeGE7PC9nPiYjeGE7JiN4YTs8ZyBjbGFzcz0ibm9kZSIgaWQ9Im5vZGUyMSI+JiN4YTs8dGl0bGU+TWFwQ29uZmlnPC90aXRsZT4mI3hhOzxwb2x5Z29uIHBvaW50cz0iMTE4OC40OCwtMTQwNiAxMTg4LjQ4LC0xNTA0IDE1OTIuNDgsLTE1MDQgMTU5Mi40OCwtMTQwNiAxMTg4LjQ4LC0xNDA2IiBzdHJva2U9ImJsYWNrIiBmaWxsPSJ5ZWxsb3ciLz4mI3hhOzx0ZXh0IGZvbnQtc2l6ZT0iMTQuMDAiIGZvbnQtZmFtaWx5PSJIZWx2ZXRpY2Esc2Fucy1TZXJpZiIgeT0iLTE0NTEuMyIgeD0iMTI5MS40OCIgdGV4dC1hbmNob3I9Im1pZGRsZSI+bWFwX2NvbmZpZy50cmVzIChSZXNvdXJjZSk8L3RleHQ+JiN4YTs8cG9seWxpbmUgcG9pbnRzPSIxMzk0LjQ4LC0xNDA2IDEzOTQuNDgsLTE1MDQiIHN0cm9rZT0iYmxhY2siIGZpbGw9Im5vbmUiLz4mI3hhOzx0ZXh0IGZvbnQtc2l6ZT0iMTQuMDAiIGZvbnQtZmFtaWx5PSJIZWx2ZXRpY2Esc2Fucy1TZXJpZiIgeT0iLTE0ODguOCIgeD0iMTQwMi40OCIgdGV4dC1hbmNob3I9InN0YXJ0Ij4rIG5hbWU6IFN0cmluZzwvdGV4dD4mI3hhOzx0ZXh0IGZvbnQtc2l6ZT0iMTQuMDAiIGZvbnQtZmFtaWx5PSJIZWx2ZXRpY2Esc2Fucy1TZXJpZiIgeT0iLTE0NzMuOCIgeD0iMTQwMi40OCIgdGV4dC1hbmNob3I9InN0YXJ0Ij4rIHRoZW1lOiBTdHJpbmc8L3RleHQ+JiN4YTs8dGV4dCBmb250LXNpemU9IjE0LjAwIiBmb250LWZhbWlseT0iSGVsdmV0aWNhLHNhbnMtU2VyaWYiIHk9Ii0xNDU4LjgiIHg9IjE0MDIuNDgiIHRleHQtYW5jaG9yPSJzdGFydCI+KyBwbGF0Zm9ybV9zaXplOiBWZWN0b3IzPC90ZXh0PiYjeGE7PHRleHQgZm9udC1zaXplPSIxNC4wMCIgZm9udC1mYW1pbHk9IkhlbHZldGljYSxzYW5zLVNlcmlmIiB5PSItMTQ0My44IiB4PSIxNDAyLjQ4IiB0ZXh0LWFuY2hvcj0ic3RhcnQiPisgc3Bhd25fcG9pbnRzOiBBcnJheTwvdGV4dD4mI3hhOzx0ZXh0IGZvbnQtc2l6ZT0iMTQuMDAiIGZvbnQtZmFtaWx5PSJIZWx2ZXRpY2Esc2Fucy1TZXJpZiIgeT0iLTE0MjguOCIgeD0iMTQwMi40OCIgdGV4dC1hbmNob3I9InN0YXJ0Ij4rIG9ic3RhY2xlczogQXJyYXk8L3RleHQ+JiN4YTs8dGV4dCBmb250LXNpemU9IjE0LjAwIiBmb250LWZhbWlseT0iSGVsdmV0aWNhLHNhbnMtU2VyaWYiIHk9Ii0xNDEzLjgiIHg9IjE0MDIuNDgiIHRleHQtYW5jaG9yPSJzdGFydCI+KyBtb2RpZmllcl9zdXBwb3J0OiBBcnJheTwvdGV4dD4mI3hhOzwvZz4mI3hhOyYjeGE7PGcgY2xhc3M9ImVkZ2UiIGlkPSJlZGdlMTgiPiYjeGE7PHRpdGxlPkFyZW5hLSZndDtNYXBDb25maWc8L3RpdGxlPiYjeGE7PHBhdGggZD0iTTY2MS4zOSwtMTMzMC4yNUM4ODYuNjksLTEzMzAuMjUgMTIyOS40OCwtMTMzMC4yNSAxMjI5LjQ4LC0xMzMwLjI1IDEyMjkuNDgsLTEzMzAuMjUgMTIyOS40OCwtMTM5NS43IDEyMjkuNDgsLTEzOTUuNyIgc3Ryb2tlPSJibGFjayIgZmlsbD0ibm9uZSIvPiYjeGE7PHBvbHlnb24gcG9pbnRzPSIxMjI1Ljk4LC0xMzk1LjcgMTIyOS40OCwtMTQwNS43IDEyMzIuOTgsLTEzOTUuNyAxMjI1Ljk4LC0xMzk1LjciIHN0cm9rZT0iYmxhY2siIGZpbGw9ImJsYWNrIi8+JiN4YTs8dGV4dCBmb250LXNpemU9IjEwLjAwIiBmb250LWZhbWlseT0iSGVsdmV0aWNhLHNhbnMtU2VyaWYiIHk9Ii0xNzgyIiB4PSI5MjEuMjQiIHRleHQtYW5jaG9yPSJtaWRkbGUiPmNvbmZpZ3VyZWQgYnk8L3RleHQ+JiN4YTs8L2c+JiN4YTsmI3hhOzxnIGNsYXNzPSJlZGdlIiBpZD0iZWRnZTI1Ij4mI3hhOzx0aXRsZT5QbGF0Zm9ybS0mZ3Q7UGh5c2ljc1NlcnZlcjNEPC90aXRsZT4mI3hhOzxwYXRoIGQ9Ik05ODEuNzksLTg5N0MxMDkxLjQsLTg5NyAxMzExLjQ4LC04OTcgMTMxMS40OCwtODk3IDEzMTEuNDgsLTg5NyAxMzExLjQ4LC0xMDgzLjI1IDEzMTEuNDgsLTEwODMuMjUiIHN0cm9rZS1kYXNoYXJyYXk9IjUsMiIgc3Ryb2tlPSJibHVlIiBmaWxsPSJub25lIi8+JiN4YTs8cG9seWdvbiBwb2ludHM9IjEzMDcuOTgsLTEwODMuMjUgMTMxMS40OCwtMTA5My4yNSAxMzE0Ljk4LC0xMDgzLjI1IDEzMDcuOTgsLTEwODMuMjUiIHN0cm9rZT0iYmx1ZSIgZmlsbD0iYmx1ZSIvPiYjeGE7PHRleHQgZm9udC1zaXplPSIxMC4wMCIgZm9udC1mYW1pbHk9IkhlbHZldGljYSxzYW5zLVNlcmlmIiB5PSItOTExIiB4PSIxMTA4LjQ4IiB0ZXh0LWFuY2hvcj0ibWlkZGxlIj5jb2xsaXNpb248L3RleHQ+JiN4YTs8L2c+JiN4YTsmI3hhOzxnIGNsYXNzPSJlZGdlIiBpZD0iZWRnZTIzIj4mI3hhOzx0aXRsZT5PYnN0YWNsZXNOb2RlLSZndDtQaHlzaWNzU2VydmVyM0Q8L3RpdGxlPiYjeGE7PHBhdGggZD0iTTk5OC44NywtOTc4QzExMTIuMTcsLTk3OCAxMzA5LjQ4LC05NzggMTMwOS40OCwtOTc4IDEzMDkuNDgsLTk3OCAxMzA5LjQ4LC0xMDg0LjAzIDEzMDkuNDgsLTEwODQuMDMiIHN0cm9rZS1kYXNoYXJyYXk9IjUsMiIgc3Ryb2tlPSJibHVlIiBmaWxsPSJub25lIi8+JiN4YTs8cG9seWdvbiBwb2ludHM9IjEzMDUuOTgsLTEwODQuMDMgMTMwOS40OCwtMTA5NC4wMyAxMzEyLjk4LC0xMDg0LjAzIDEzMDUuOTgsLTEwODQuMDMiIHN0cm9rZT0iYmx1ZSIgZmlsbD0iYmx1ZSIvPiYjeGE7PHRleHQgZm9udC1zaXplPSIxMC4wMCIgZm9udC1mYW1pbHk9IkhlbHZldGljYSxzYW5zLVNlcmlmIiB5PSItMTA0MCIgeD0iMTEwOC40OCIgdGV4dC1hbmNob3I9Im1pZGRsZSI+aW50ZXJhY3RzIHZpYTwvdGV4dD4mI3hhOzwvZz4mI3hhOyYjeGE7PGcgY2xhc3M9ImVkZ2UiIGlkPSJlZGdlMjQiPiYjeGE7PHRpdGxlPk9ic3RhY2xlc05vZGUtJmd0O011bHRpcGxheWVyU3luY2hyb25pemVyPC90aXRsZT4mI3hhOzxwYXRoIGQ9Ik05OTguOTEsLTk4Ny41QzExMDYuNDIsLTk4Ny41IDEyODcuNDgsLTk4Ny41IDEyODcuNDgsLTk4Ny41IDEyODcuNDgsLTk4Ny41IDEyODcuNDgsLTExNjAuNDUgMTI4Ny40OCwtMTE2MC40NSIgc3Ryb2tlLWRhc2hhcnJheT0iNSwyIiBzdHJva2U9ImJsdWUiIGZpbGw9Im5vbmUiLz4mI3hhOzxwb2x5Z29uIHBvaW50cz0iMTI4My45OCwtMTE2MC40NSAxMjg3LjQ4LC0xMTcwLjQ1IDEyOTAuOTgsLTExNjAuNDUgMTI4My45OCwtMTE2MC40NSIgc3Ryb2tlPSJibHVlIiBmaWxsPSJibHVlIi8+JiN4YTs8dGV4dCBmb250LXNpemU9IjEwLjAwIiBmb250LWZhbWlseT0iSGVsdmV0aWNhLHNhbnMtU2VyaWYiIHk9Ii0xMDk5IiB4PSIxMTA4LjQ4IiB0ZXh0LWFuY2hvcj0ibWlkZGxlIj5zeW5jcyBzdGF0ZSB2aWE8L3RleHQ+JiN4YTs8L2c+JiN4YTsmI3hhOzxnIGNsYXNzPSJub2RlIiBpZD0ibm9kZTIyIj4mI3hhOzx0aXRsZT5PYnN0YWNsZUFzc2V0czwvdGl0bGU+JiN4YTs8cG9seWdvbiBwb2ludHM9IjE4NjguNDgsLTEzOTYgMTg2NS40OCwtMTQwMCAxODQ0LjQ4LC0xNDAwIDE4NDEuNDgsLTEzOTYgMTc0MC40OCwtMTM5NiAxNzQwLjQ4LC0xMzU4IDE4NjguNDgsLTEzNTggMTg2OC40OCwtMTM5NiIgc3Ryb2tlPSJibGFjayIgZmlsbD0ib3JhbmdlIi8+JiN4YTs8dGV4dCBmb250LXNpemU9IjE0LjAwIiBmb250LWZhbWlseT0iSGVsdmV0aWNhLHNhbnMtU2VyaWYiIHk9Ii0xMzgwLjgiIHg9IjE4MDQuNDgiIHRleHQtYW5jaG9yPSJtaWRkbGUiPk9ic3RhY2xlIEFzc2V0czwvdGV4dD4mI3hhOzx0ZXh0IGZvbnQtc2l6ZT0iMTQuMDAiIGZvbnQtZmFtaWx5PSJIZWx2ZXRpY2Esc2Fucy1TZXJpZiIgeT0iLTEzNjUuOCIgeD0iMTgwNC40OCIgdGV4dC1hbmNob3I9Im1pZGRsZSI+KC50c2NuLCAuZ2QpPC90ZXh0PiYjeGE7PC9nPiYjeGE7JiN4YTs8ZyBjbGFzcz0iZWRnZSIgaWQ9ImVkZ2UxOSI+JiN4YTs8dGl0bGU+T2JzdGFjbGVzTm9kZS0mZ3Q7T2JzdGFjbGVBc3NldHM8L3RpdGxlPiYjeGE7PHBhdGggZD0iTTk5OC44NSwtOTY4LjVDMTIxNC4zOCwtOTY4LjUgMTgwNC40OCwtOTY4LjUgMTgwNC40OCwtOTY4LjUgMTgwNC40OCwtOTY4LjUgMTgwNC40OCwtMTM0Ny44NSAxODA0LjQ4LC0xMzQ3Ljg1IiBzdHJva2U9ImJsYWNrIiBmaWxsPSJub25lIi8+JiN4YTs8cG9seWdvbiBwb2ludHM9IjE4MDAuOTgsLTEzNDcuODUgMTgwNC40OCwtMTM1Ny44NSAxODA3Ljk4LC0xMzQ3Ljg1IDE4MDAuOTgsLTEzNDcuODUiIHN0cm9rZT0iYmxhY2siIGZpbGw9ImJsYWNrIi8+JiN4YTs8dGV4dCBmb250LXNpemU9IjEwLjAwIiBmb250LWZhbWlseT0iSGVsdmV0aWNhLHNhbnMtU2VyaWYiIHk9Ii05NzAiIHg9IjEzOTAuNDgiIHRleHQtYW5jaG9yPSJtaWRkbGUiPmxvYWRzPC90ZXh0PiYjeGE7PC9nPiYjeGE7JiN4YTs8ZyBjbGFzcz0iZWRnZSIgaWQ9ImVkZ2UyMCI+JiN4YTs8dGl0bGU+VmlzdWFsRWZmZWN0cy0mZ3Q7VmlzdWFsU2VydmVyPC90aXRsZT4mI3hhOzxwYXRoIGQ9Ik05MjEuNDgsLTEyODIuOTZDOTIxLjQ4LC0xMjc4LjcgOTIxLjQ4LC0xMjc1LjQyIDkyMS40OCwtMTI3NS40MiA5MjEuNDgsLTEyNzUuNDIgMTM1Mi41NSwtMTI3NS40MiAxMzUyLjU1LC0xMjc1LjQyIiBzdHJva2U9ImJsYWNrIiBmaWxsPSJub25lIi8+JiN4YTs8cG9seWdvbiBwb2ludHM9IjEzNTIuNTUsLTEyNzguOTIgMTM2Mi41NSwtMTI3NS40MiAxMzUyLjU1LC0xMjcxLjkyIDEzNTIuNTUsLTEyNzguOTIiIHN0cm9rZT0iYmxhY2siIGZpbGw9ImJsYWNrIi8+JiN4YTs8dGV4dCBmb250LXNpemU9IjEwLjAwIiBmb250LWZhbWlseT0iSGVsdmV0aWNhLHNhbnMtU2VyaWYiIHk9Ii0xMjY5IiB4PSIxMTA4LjQ4IiB0ZXh0LWFuY2hvcj0ibWlkZGxlIj5yZW5kZXJzIHZpYTwvdGV4dD4mI3hhOzwvZz4mI3hhOyYjeGE7PGcgY2xhc3M9Im5vZGUiIGlkPSJub2RlMjMiPiYjeGE7PHRpdGxlPlZpc3VhbEFzc2V0czwvdGl0bGU+JiN4YTs8cG9seWdvbiBwb2ludHM9IjE0NjEuNDgsLTEzNjIgMTQ1OC40OCwtMTM2NiAxNDM3LjQ4LC0xMzY2IDE0MzQuNDgsLTEzNjIgMTMxOS40OCwtMTM2MiAxMzE5LjQ4LC0xMzI0IDE0NjEuNDgsLTEzMjQgMTQ2MS40OCwtMTM2MiIgc3Ryb2tlPSJibGFjayIgZmlsbD0ib3JhbmdlIi8+JiN4YTs8dGV4dCBmb250LXNpemU9IjE0LjAwIiBmb250LWZhbWlseT0iSGVsdmV0aWNhLHNhbnMtU2VyaWYiIHk9Ii0xMzQ2LjgiIHg9IjEzOTAuNDgiIHRleHQtYW5jaG9yPSJtaWRkbGUiPlZpc3VhbCBBc3NldHM8L3RleHQ+JiN4YTs8dGV4dCBmb250LXNpemU9IjE0LjAwIiBmb250LWZhbWlseT0iSGVsdmV0aWNhLHNhbnMtU2VyaWYiIHk9Ii0xMzMxLjgiIHg9IjEzOTAuNDgiIHRleHQtYW5jaG9yPSJtaWRkbGUiPihNb2RlbHMsIFNoYWRlcnMpPC90ZXh0PiYjeGE7PC9nPiYjeGE7JiN4YTs8ZyBjbGFzcz0iZWRnZSIgaWQ9ImVkZ2UyMSI+JiN4YTs8dGl0bGU+VmlzdWFsRWZmZWN0cy0mZ3Q7VmlzdWFsQXNzZXRzPC90aXRsZT4mI3hhOzxwYXRoIGQ9Ik05NjcuNDgsLTEzMjEuMDRDOTY3LjQ4LC0xMzI0LjU1IDk2Ny40OCwtMTMyNy4xMiA5NjcuNDgsLTEzMjcuMTIgOTY3LjQ4LC0xMzI3LjEyIDEzMDkuMiwtMTMyNy4xMiAxMzA5LjIsLTEzMjcuMTIiIHN0cm9rZT0iYmxhY2siIGZpbGw9Im5vbmUiLz4mI3hhOzxwb2x5Z29uIHBvaW50cz0iMTMwOS4yLC0xMzMwLjYzIDEzMTkuMiwtMTMyNy4xMiAxMzA5LjIsLTEzMjMuNjMgMTMwOS4yLC0xMzMwLjYzIiBzdHJva2U9ImJsYWNrIiBmaWxsPSJibGFjayIvPiYjeGE7PHRleHQgZm9udC1zaXplPSIxMC4wMCIgZm9udC1mYW1pbHk9IkhlbHZldGljYSxzYW5zLVNlcmlmIiB5PSItMTM0MCIgeD0iMTEwOC40OCIgdGV4dC1hbmNob3I9Im1pZGRsZSI+dXNlczwvdGV4dD4mI3hhOzwvZz4mI3hhOyYjeGE7PGcgY2xhc3M9ImVkZ2UiIGlkPSJlZGdlMjYiPiYjeGE7PHRpdGxlPkludmlzaWJsZVdhbGxzLSZndDtQaHlzaWNzU2VydmVyM0Q8L3RpdGxlPiYjeGE7PHBhdGggZD0iTTk4MS44NiwtMTA1OUMxMDkwLjM1LC0xMDU5IDEzMDYuNDgsLTEwNTkgMTMwNi40OCwtMTA1OSAxMzA2LjQ4LC0xMDU5IDEzMDYuNDgsLTEwODYuMTggMTMwNi40OCwtMTA4Ni4xOCIgc3Ryb2tlLWRhc2hhcnJheT0iNSwyIiBzdHJva2U9ImJsdWUiIGZpbGw9Im5vbmUiLz4mI3hhOzxwb2x5Z29uIHBvaW50cz0iMTMwMi45OCwtMTA4Ni4xOCAxMzA2LjQ4LC0xMDk2LjE4IDEzMDkuOTgsLTEwODYuMTggMTMwMi45OCwtMTA4Ni4xOCIgc3Ryb2tlPSJibHVlIiBmaWxsPSJibHVlIi8+JiN4YTs8dGV4dCBmb250LXNpemU9IjEwLjAwIiBmb250LWZhbWlseT0iSGVsdmV0aWNhLHNhbnMtU2VyaWYiIHk9Ii0xMTU4IiB4PSIxMTA4LjQ4IiB0ZXh0LWFuY2hvcj0ibWlkZGxlIj5jb2xsaXNpb248L3RleHQ+JiN4YTs8L2c+JiN4YTsmI3hhOzxnIGNsYXNzPSJub2RlIiBpZD0ibm9kZTI4Ij4mI3hhOzx0aXRsZT5QMzwvdGl0bGU+JiN4YTs8cGF0aCBkPSJNMzkxLC01ODlDMzkxLC01ODkgNTQ3LC01ODkgNTQ3LC01ODkgNTUzLC01ODkgNTU5LC01OTUgNTU5LC02MDEgNTU5LC02MDEgNTU5LC02MTUgNTU5LC02MTUgNTU5LC02MjEgNTUzLC02MjcgNTQ3LC02MjcgNTQ3LC02MjcgMzkxLC02MjcgMzkxLC02MjcgMzg1LC02MjcgMzc5LC02MjEgMzc5LC02MTUgMzc5LC02MTUgMzc5LC02MDEgMzc5LC02MDEgMzc5LC01OTUgMzg1LC01ODkgMzkxLC01ODkiIHN0cm9rZT0iYmxhY2siIGZpbGw9ImxpZ2h0Y3lhbiIvPiYjeGE7PHRleHQgZm9udC1zaXplPSIxNC4wMCIgZm9udC1mYW1pbHk9IkhlbHZldGljYSxzYW5zLVNlcmlmIiB5PSItNjExLjgiIHg9IjQ2OSIgdGV4dC1hbmNob3I9Im1pZGRsZSI+Vm9pZEFyZWEgZGV0ZWN0cyBQbGF5ZXI8L3RleHQ+JiN4YTs8dGV4dCBmb250LXNpemU9IjE0LjAwIiBmb250LWZhbWlseT0iSGVsdmV0aWNhLHNhbnMtU2VyaWYiIHk9Ii01OTYuOCIgeD0iNDY5IiB0ZXh0LWFuY2hvcj0ibWlkZGxlIj4oYm9keV9lbnRlcmVkIHNpZ25hbCk8L3RleHQ+JiN4YTs8L2c+JiN4YTsmI3hhOzxnIGNsYXNzPSJlZGdlIiBpZD0iZWRnZTM3Ij4mI3hhOzx0aXRsZT5Wb2lkQXJlYS0mZ3Q7UDM8L3RpdGxlPiYjeGE7PHBhdGggZD0iTTg4Mi4wNiwtMTM3Ni42N0M4NTcuMTIsLTEzNzYuNjcgODI5LjQ4LC0xMzc2LjY3IDgyOS40OCwtMTM3Ni42NyA4MjkuNDgsLTEzNzYuNjcgODI5LjQ4LC02MDggODI5LjQ4LC02MDggODI5LjQ4LC02MDggNTY5LjAzLC02MDggNTY5LjAzLC02MDgiIHN0cm9rZS13aWR0aD0iMiIgc3Ryb2tlPSJyZWQiIGZpbGw9Im5vbmUiLz4mI3hhOzxwb2x5Z29uIHBvaW50cz0iNTY5LjAzLC02MDQuNSA1NTkuMDMsLTYwOCA1NjkuMDMsLTYxMS41IDU2OS4wMywtNjA0LjUiIHN0cm9rZS13aWR0aD0iMiIgc3Ryb2tlPSJyZWQiIGZpbGw9InJlZCIvPiYjeGE7PHRleHQgZm9udC1zaXplPSIxMC4wMCIgZm9udC1mYW1pbHk9IkhlbHZldGljYSxzYW5zLVNlcmlmIiB5PSItMTQwNyIgeD0iNzM3LjUiIHRleHQtYW5jaG9yPSJtaWRkbGUiPnNpZ25hbHM8L3RleHQ+JiN4YTs8L2c+JiN4YTsmI3hhOzxnIGNsYXNzPSJlZGdlIiBpZD0iZWRnZTIyIj4mI3hhOzx0aXRsZT5NYXBDb25maWctJmd0O09ic3RhY2xlQXNzZXRzPC90aXRsZT4mI3hhOzxwYXRoIGQ9Ik0xNTUyLjQ4LC0xNDA1LjgxQzE1NTIuNDgsLTEzOTEuNjcgMTU1Mi40OCwtMTM4MCAxNTUyLjQ4LC0xMzgwIDE1NTIuNDgsLTEzODAgMTczMC4yNCwtMTM4MCAxNzMwLjI0LC0xMzgwIiBzdHJva2U9ImJsYWNrIiBmaWxsPSJub25lIi8+JiN4YTs8cG9seWdvbiBwb2ludHM9IjE3MzAuMjQsLTEzODMuNSAxNzQwLjI0LC0xMzgwIDE3MzAuMjQsLTEzNzYuNSAxNzMwLjI0LC0xMzgzLjUiIHN0cm9rZT0iYmxhY2siIGZpbGw9ImJsYWNrIi8+JiN4YTs8dGV4dCBmb250LXNpemU9IjEwLjAwIiBmb250LWZhbWlseT0iSGVsdmV0aWNhLHNhbnMtU2VyaWYiIHk9Ii0xNDE0IiB4PSIxNjYxLjQ4IiB0ZXh0LWFuY2hvcj0ibWlkZGxlIj5yZWZlcmVuY2VzPC90ZXh0PiYjeGE7PC9nPiYjeGE7JiN4YTs8ZyBjbGFzcz0ibm9kZSIgaWQ9Im5vZGUyNCI+JiN4YTs8dGl0bGU+UGxheWVyPC90aXRsZT4mI3hhOzxwb2x5Z29uIHBvaW50cz0iNTIxLjUsLTMwMCA0MTYuNSwtMzAwIDQxNi41LC0yOTYgNDEyLjUsLTI5NiA0MTIuNSwtMjkyIDQxNi41LC0yOTIgNDE2LjUsLTI3MiA0MTIuNSwtMjcyIDQxMi41LC0yNjggNDE2LjUsLTI2OCA0MTYuNSwtMjY0IDUyMS41LC0yNjQgNTIxLjUsLTMwMCIgc3Ryb2tlPSJibGFjayIgZmlsbD0icGluayIvPiYjeGE7PHBvbHlsaW5lIHBvaW50cz0iNDE2LjUsLTI5NiA0MjAuNSwtMjk2IDQyMC41LC0yOTIgNDE2LjUsLTI5MiIgc3Ryb2tlPSJibGFjayIgZmlsbD0ibm9uZSIvPiYjeGE7PHBvbHlsaW5lIHBvaW50cz0iNDE2LjUsLTI3MiA0MjAuNSwtMjcyIDQyMC41LC0yNjggNDE2LjUsLTI2OCIgc3Ryb2tlPSJibGFjayIgZmlsbD0ibm9uZSIvPiYjeGE7PHRleHQgZm9udC1zaXplPSIxNC4wMCIgZm9udC1mYW1pbHk9IkhlbHZldGljYSxzYW5zLVNlcmlmIiB5PSItMjc4LjMiIHg9IjQ2OSIgdGV4dC1hbmNob3I9Im1pZGRsZSI+UGxheWVyIE1vZGVsPC90ZXh0PiYjeGE7PC9nPiYjeGE7JiN4YTs8ZyBjbGFzcz0iZWRnZSIgaWQ9ImVkZ2UzMSI+JiN4YTs8dGl0bGU+UGxheWVyLSZndDtQbGF0Zm9ybTwvdGl0bGU+JiN4YTs8cGF0aCBkPSJNNTIxLjYsLTI3M0M2MzYuODYsLTI3MyA5MDEuNDgsLTI3MyA5MDEuNDgsLTI3MyA5MDEuNDgsLTI3MyA5MDEuNDgsLTg2Ny45OCA5MDEuNDgsLTg2Ny45OCIgc3Ryb2tlLWRhc2hhcnJheT0iNSwyIiBzdHJva2U9ImJsdWUiIGZpbGw9Im5vbmUiLz4mI3hhOzxwb2x5Z29uIHBvaW50cz0iODk3Ljk4LC04NjcuOTggOTAxLjQ4LC04NzcuOTggOTA0Ljk4LC04NjcuOTggODk3Ljk4LC04NjcuOTgiIHN0cm9rZT0iYmx1ZSIgZmlsbD0iYmx1ZSIvPiYjeGE7PHRleHQgZm9udC1zaXplPSIxMC4wMCIgZm9udC1mYW1pbHk9IkhlbHZldGljYSxzYW5zLVNlcmlmIiB5PSItMzMzIiB4PSI3MzcuNSIgdGV4dC1hbmNob3I9Im1pZGRsZSI+bW92ZXMgb248L3RleHQ+JiN4YTs8L2c+JiN4YTsmI3hhOzxnIGNsYXNzPSJlZGdlIiBpZD0iZWRnZTMzIj4mI3hhOzx0aXRsZT5QbGF5ZXItJmd0O09ic3RhY2xlc05vZGU8L3RpdGxlPiYjeGE7PHBhdGggZD0iTTUyMS41LC0yODJDNjI1Ljg4LC0yODIgODQ5LjQ4LC0yODIgODQ5LjQ4LC0yODIgODQ5LjQ4LC0yODIgODQ5LjQ4LC05NDguNjYgODQ5LjQ4LC05NDguNjYiIHN0cm9rZS1kYXNoYXJyYXk9IjUsMiIgc3Ryb2tlPSJibHVlIiBmaWxsPSJub25lIi8+JiN4YTs8cG9seWdvbiBwb2ludHM9Ijg0NS45OCwtOTQ4LjY2IDg0OS40OCwtOTU4LjY2IDg1Mi45OCwtOTQ4LjY2IDg0NS45OCwtOTQ4LjY2IiBzdHJva2U9ImJsdWUiIGZpbGw9ImJsdWUiLz4mI3hhOzx0ZXh0IGZvbnQtc2l6ZT0iMTAuMDAiIGZvbnQtZmFtaWx5PSJIZWx2ZXRpY2Esc2Fucy1TZXJpZiIgeT0iLTc1NiIgeD0iNzM3LjUiIHRleHQtYW5jaG9yPSJtaWRkbGUiPmludGVyYWN0cyB3aXRoPC90ZXh0PiYjeGE7PC9nPiYjeGE7JiN4YTs8ZyBjbGFzcz0iZWRnZSIgaWQ9ImVkZ2UzMiI+JiN4YTs8dGl0bGU+UGxheWVyLSZndDtTcGF3blBvaW50czwvdGl0bGU+JiN4YTs8cGF0aCBkPSJNNTIxLjYsLTI5MUM2MDAuMDIsLTI5MSA3MzguNDgsLTI5MSA3MzguNDgsLTI5MSA3MzguNDgsLTI5MSA3MzguNDgsLTExNDAgNzM4LjQ4LC0xMTQwIDczOC40OCwtMTE0MCA4MzMuNzMsLTExNDAgODMzLjczLC0xMTQwIiBzdHJva2UtZGFzaGFycmF5PSI1LDIiIHN0cm9rZT0iYmx1ZSIgZmlsbD0ibm9uZSIvPiYjeGE7PHBvbHlnb24gcG9pbnRzPSI4MzMuNzMsLTExNDMuNSA4NDMuNzMsLTExNDAgODMzLjczLC0xMTM2LjUgODMzLjczLC0xMTQzLjUiIHN0cm9rZT0iYmx1ZSIgZmlsbD0iYmx1ZSIvPiYjeGE7PHRleHQgZm9udC1zaXplPSIxMC4wMCIgZm9udC1mYW1pbHk9IkhlbHZldGljYSxzYW5zLVNlcmlmIiB5PSItODgwIiB4PSI3MzcuNSIgdGV4dC1hbmNob3I9Im1pZGRsZSI+c3Bhd25zIGF0PC90ZXh0PiYjeGE7PC9nPiYjeGE7JiN4YTs8ZyBjbGFzcz0ibm9kZSIgaWQ9Im5vZGUyNiI+JiN4YTs8dGl0bGU+UDE8L3RpdGxlPiYjeGE7PHBhdGggZD0iTTM5Mi41LC03OTRDMzkyLjUsLTc5NCA1NDUuNSwtNzk0IDU0NS41LC03OTQgNTUxLjUsLTc5NCA1NTcuNSwtODAwIDU1Ny41LC04MDYgNTU3LjUsLTgwNiA1NTcuNSwtODE4IDU1Ny41LC04MTggNTU3LjUsLTgyNCA1NTEuNSwtODMwIDU0NS41LC04MzAgNTQ1LjUsLTgzMCAzOTIuNSwtODMwIDM5Mi41LC04MzAgMzg2LjUsLTgzMCAzODAuNSwtODI0IDM4MC41LC04MTggMzgwLjUsLTgxOCAzODAuNSwtODA2IDM4MC41LC04MDYgMzgwLjUsLTgwMCAzODYuNSwtNzk0IDM5Mi41LC03OTQiIHN0cm9rZT0iYmxhY2siIGZpbGw9ImxpZ2h0Y3lhbiIvPiYjeGE7PHRleHQgZm9udC1zaXplPSIxNC4wMCIgZm9udC1mYW1pbHk9IkhlbHZldGljYSxzYW5zLVNlcmlmIiB5PSItODA4LjMiIHg9IjQ2OSIgdGV4dC1hbmNob3I9Im1pZGRsZSI+UGxheWVyIGZhbGxzIG9mZiBQbGF0Zm9ybTwvdGV4dD4mI3hhOzwvZz4mI3hhOyYjeGE7PGcgY2xhc3M9ImVkZ2UiIGlkPSJlZGdlMzQiPiYjeGE7PHRpdGxlPlBsYXllci0mZ3Q7UDE8L3RpdGxlPiYjeGE7PHBhdGggZD0iTTQxNi4zMSwtMjc2QzM2Ny41MywtMjc2IDMwMi40OCwtMjc2IDMwMi40OCwtMjc2IDMwMi40OCwtMjc2IDMwMi40OCwtODEyIDMwMi40OCwtODEyIDMwMi40OCwtODEyIDM3MC4zOCwtODEyIDM3MC4zOCwtODEyIiBzdHJva2Utd2lkdGg9IjIiIHN0cm9rZT0icmVkIiBmaWxsPSJub25lIi8+JiN4YTs8cG9seWdvbiBwb2ludHM9IjM3MC4zOCwtODE1LjUgMzgwLjM4LC04MTIgMzcwLjM4LC04MDguNSAzNzAuMzgsLTgxNS41IiBzdHJva2Utd2lkdGg9IjIiIHN0cm9rZT0icmVkIiBmaWxsPSJyZWQiLz4mI3hhOzx0ZXh0IGZvbnQtc2l6ZT0iMTAuMDAiIGZvbnQtZmFtaWx5PSJIZWx2ZXRpY2Esc2Fucy1TZXJpZiIgeT0iLTU2OC41IiB4PSIyMDgiIHRleHQtYW5jaG9yPSJtaWRkbGUiPmZhbGxzPC90ZXh0PiYjeGE7PC9nPiYjeGE7JiN4YTs8ZyBjbGFzcz0ibm9kZSIgaWQ9Im5vZGUzMCI+JiN4YTs8dGl0bGU+UDU8L3RpdGxlPiYjeGE7PHBhdGggZD0iTTM2MywtMzg2QzM2MywtMzg2IDU3NSwtMzg2IDU3NSwtMzg2IDU4MSwtMzg2IDU4NywtMzkyIDU4NywtMzk4IDU4NywtMzk4IDU4NywtNDEwIDU4NywtNDEwIDU4NywtNDE2IDU4MSwtNDIyIDU3NSwtNDIyIDU3NSwtNDIyIDM2MywtNDIyIDM2MywtNDIyIDM1NywtNDIyIDM1MSwtNDE2IDM1MSwtNDEwIDM1MSwtNDEwIDM1MSwtMzk4IDM1MSwtMzk4IDM1MSwtMzkyIDM1NywtMzg2IDM2MywtMzg2IiBzdHJva2U9ImJsYWNrIiBmaWxsPSJsaWdodGN5YW4iLz4mI3hhOzx0ZXh0IGZvbnQtc2l6ZT0iMTQuMDAiIGZvbnQtZmFtaWx5PSJIZWx2ZXRpY2Esc2Fucy1TZXJpZiIgeT0iLTQwMC4zIiB4PSI0NjkiIHRleHQtYW5jaG9yPSJtaWRkbGUiPlBsYXllciBtb3ZlZCB0byBTcGVjdGF0b3Jab25lPC90ZXh0PiYjeGE7PC9nPiYjeGE7JiN4YTs8ZyBjbGFzcz0iZWRnZSIgaWQ9ImVkZ2U0MCI+JiN4YTs8dGl0bGU+UGxheWVyLSZndDtQNTwvdGl0bGU+JiN4YTs8cGF0aCBkPSJNNDY5LjQ4LC0zMDBDNDY5LjQ4LC0zMDAgNDY5LjQ4LC0zNzUuOTIgNDY5LjQ4LC0zNzUuOTIiIHN0cm9rZS13aWR0aD0iMiIgc3Ryb2tlPSJyZWQiIGZpbGw9Im5vbmUiLz4mI3hhOzxwb2x5Z29uIHBvaW50cz0iNDY1Ljk4LC0zNzUuOTIgNDY5LjQ4LC0zODUuOTIgNDcyLjk4LC0zNzUuOTIgNDY1Ljk4LC0zNzUuOTIiIHN0cm9rZS13aWR0aD0iMiIgc3Ryb2tlPSJyZWQiIGZpbGw9InJlZCIvPiYjeGE7PC9nPiYjeGE7JiN4YTs8ZyBjbGFzcz0ibm9kZSIgaWQ9Im5vZGUyNSI+JiN4YTs8dGl0bGU+QmFsbDwvdGl0bGU+JiN4YTs8cG9seWdvbiBwb2ludHM9IjUyNy41LC0yMjEgNDEwLjUsLTIyMSA0MTAuNSwtMjE3IDQwNi41LC0yMTcgNDA2LjUsLTIxMyA0MTAuNSwtMjEzIDQxMC41LC0xOTEgNDA2LjUsLTE5MSA0MDYuNSwtMTg3IDQxMC41LC0xODcgNDEwLjUsLTE4MyA1MjcuNSwtMTgzIDUyNy41LC0yMjEiIHN0cm9rZT0iYmxhY2siIGZpbGw9InBpbmsiLz4mI3hhOzxwb2x5bGluZSBwb2ludHM9IjQxMC41LC0yMTcgNDE0LjUsLTIxNyA0MTQuNSwtMjEzIDQxMC41LC0yMTMiIHN0cm9rZT0iYmxhY2siIGZpbGw9Im5vbmUiLz4mI3hhOzxwb2x5bGluZSBwb2ludHM9IjQxMC41LC0xOTEgNDE0LjUsLTE5MSA0MTQuNSwtMTg3IDQxMC41LC0xODciIHN0cm9rZT0iYmxhY2siIGZpbGw9Im5vbmUiLz4mI3hhOzx0ZXh0IGZvbnQtc2l6ZT0iMTQuMDAiIGZvbnQtZmFtaWx5PSJIZWx2ZXRpY2Esc2Fucy1TZXJpZiIgeT0iLTIwNS44IiB4PSI0NjkiIHRleHQtYW5jaG9yPSJtaWRkbGUiPkRvZGdlYmFsbDwvdGV4dD4mI3hhOzx0ZXh0IGZvbnQtc2l6ZT0iMTQuMDAiIGZvbnQtZmFtaWx5PSJIZWx2ZXRpY2Esc2Fucy1TZXJpZiIgeT0iLTE5MC44IiB4PSI0NjkiIHRleHQtYW5jaG9yPSJtaWRkbGUiPihSaWdpZEJvZHkzRCk8L3RleHQ+JiN4YTs8L2c+JiN4YTsmI3hhOzxnIGNsYXNzPSJlZGdlIiBpZD0iZWRnZTI3Ij4mI3hhOzx0aXRsZT5CYWxsLSZndDtQaHlzaWNzU2VydmVyM0Q8L3RpdGxlPiYjeGE7PHBhdGggZD0iTTUyNy43OCwtMTkwLjZDNzE5LjUyLC0xOTAuNiAxMzE0LjQ4LC0xOTAuNiAxMzE0LjQ4LC0xOTAuNiAxMzE0LjQ4LC0xOTAuNiAxMzE0LjQ4LC0xMDgxLjk5IDEzMTQuNDgsLTEwODEuOTkiIHN0cm9rZS1kYXNoYXJyYXk9IjUsMiIgc3Ryb2tlPSJibHVlIiBmaWxsPSJub25lIi8+JiN4YTs8cG9seWdvbiBwb2ludHM9IjEzMTAuOTgsLTEwODEuOTkgMTMxNC40OCwtMTA5MS45OSAxMzE3Ljk4LC0xMDgxLjk5IDEzMTAuOTgsLTEwODEuOTkiIHN0cm9rZT0iYmx1ZSIgZmlsbD0iYmx1ZSIvPiYjeGE7PHRleHQgZm9udC1zaXplPSIxMC4wMCIgZm9udC1mYW1pbHk9IkhlbHZldGljYSxzYW5zLVNlcmlmIiB5PSItMjQ5IiB4PSI5MjEuMjQiIHRleHQtYW5jaG9yPSJtaWRkbGUiPnBoeXNpY3M8L3RleHQ+JiN4YTs8L2c+JiN4YTsmI3hhOzxnIGNsYXNzPSJlZGdlIiBpZD0iZWRnZTI5Ij4mI3hhOzx0aXRsZT5CYWxsLSZndDtQbGF0Zm9ybTwvdGl0bGU+JiN4YTs8cGF0aCBkPSJNNTI3Ljg4LC0xOTguMkM2NTQuNTQsLTE5OC4yIDk0MS40OCwtMTk4LjIgOTQxLjQ4LC0xOTguMiA5NDEuNDgsLTE5OC4yIDk0MS40OCwtODY3Ljk1IDk0MS40OCwtODY3Ljk1IiBzdHJva2UtZGFzaGFycmF5PSI1LDIiIHN0cm9rZT0iYmx1ZSIgZmlsbD0ibm9uZSIvPiYjeGE7PHBvbHlnb24gcG9pbnRzPSI5MzcuOTgsLTg2Ny45NSA5NDEuNDgsLTg3Ny45NSA5NDQuOTgsLTg2Ny45NSA5MzcuOTgsLTg2Ny45NSIgc3Ryb2tlPSJibHVlIiBmaWxsPSJibHVlIi8+JiN4YTs8dGV4dCBmb250LXNpemU9IjEwLjAwIiBmb250LWZhbWlseT0iSGVsdmV0aWNhLHNhbnMtU2VyaWYiIHk9Ii02MTQiIHg9IjczNy41IiB0ZXh0LWFuY2hvcj0ibWlkZGxlIj5jb2xsaWRlcyB3aXRoPC90ZXh0PiYjeGE7PC9nPiYjeGE7JiN4YTs8ZyBjbGFzcz0iZWRnZSIgaWQ9ImVkZ2UzMCI+JiN4YTs8dGl0bGU+QmFsbC0mZ3Q7T2JzdGFjbGVzTm9kZTwvdGl0bGU+JiN4YTs8cGF0aCBkPSJNNTI3LjcsLTIwNS44QzYzNS44MSwtMjA1LjggODU1LjQ4LC0yMDUuOCA4NTUuNDgsLTIwNS44IDg1NS40OCwtMjA1LjggODU1LjQ4LC05NDguOTEgODU1LjQ4LC05NDguOTEiIHN0cm9rZS1kYXNoYXJyYXk9IjUsMiIgc3Ryb2tlPSJibHVlIiBmaWxsPSJub25lIi8+JiN4YTs8cG9seWdvbiBwb2ludHM9Ijg1MS45OCwtOTQ4LjkxIDg1NS40OCwtOTU4LjkxIDg1OC45OCwtOTQ4LjkxIDg1MS45OCwtOTQ4LjkxIiBzdHJva2U9ImJsdWUiIGZpbGw9ImJsdWUiLz4mI3hhOzx0ZXh0IGZvbnQtc2l6ZT0iMTAuMDAiIGZvbnQtZmFtaWx5PSJIZWx2ZXRpY2Esc2Fucy1TZXJpZiIgeT0iLTY4OSIgeD0iNzM3LjUiIHRleHQtYW5jaG9yPSJtaWRkbGUiPmNvbGxpZGVzIHdpdGg8L3RleHQ+JiN4YTs8L2c+JiN4YTsmI3hhOzxnIGNsYXNzPSJlZGdlIiBpZD0iZWRnZTI4Ij4mI3hhOzx0aXRsZT5CYWxsLSZndDtJbnZpc2libGVXYWxsczwvdGl0bGU+JiN4YTs8cGF0aCBkPSJNNTI3LjU2LC0yMTMuNEM2MTYuNzcsLTIxMy40IDc3Ni40OCwtMjEzLjQgNzc2LjQ4LC0yMTMuNCA3NzYuNDgsLTIxMy40IDc3Ni40OCwtMTA1Mi42NyA3NzYuNDgsLTEwNTIuNjcgNzc2LjQ4LC0xMDUyLjY3IDg1MC42OSwtMTA1Mi42NyA4NTAuNjksLTEwNTIuNjciIHN0cm9rZS1kYXNoYXJyYXk9IjUsMiIgc3Ryb2tlPSJibHVlIiBmaWxsPSJub25lIi8+JiN4YTs8cG9seWdvbiBwb2ludHM9Ijg1MC42OSwtMTA1Ni4xNyA4NjAuNjksLTEwNTIuNjcgODUwLjY5LC0xMDQ5LjE3IDg1MC42OSwtMTA1Ni4xNyIgc3Ryb2tlPSJibHVlIiBmaWxsPSJibHVlIi8+JiN4YTs8dGV4dCBmb250LXNpemU9IjEwLjAwIiBmb250LWZhbWlseT0iSGVsdmV0aWNhLHNhbnMtU2VyaWYiIHk9Ii04MTkiIHg9IjczNy41IiB0ZXh0LWFuY2hvcj0ibWlkZGxlIj5jb2xsaWRlcyB3aXRoPC90ZXh0PiYjeGE7PC9nPiYjeGE7JiN4YTs8ZyBjbGFzcz0ibm9kZSIgaWQ9Im5vZGUyNyI+JiN4YTs8dGl0bGU+UDI8L3RpdGxlPiYjeGE7PHBhdGggZD0iTTM5NC41LC02NzFDMzk0LjUsLTY3MSA1NDMuNSwtNjcxIDU0My41LC02NzEgNTQ5LjUsLTY3MSA1NTUuNSwtNjc3IDU1NS41LC02ODMgNTU1LjUsLTY4MyA1NTUuNSwtNjk1IDU1NS41LC02OTUgNTU1LjUsLTcwMSA1NDkuNSwtNzA3IDU0My41LC03MDcgNTQzLjUsLTcwNyAzOTQuNSwtNzA3IDM5NC41LC03MDcgMzg4LjUsLTcwNyAzODIuNSwtNzAxIDM4Mi41LC02OTUgMzgyLjUsLTY5NSAzODIuNSwtNjgzIDM4Mi41LC02ODMgMzgyLjUsLTY3NyAzODguNSwtNjcxIDM5NC41LC02NzEiIHN0cm9rZT0iYmxhY2siIGZpbGw9ImxpZ2h0Y3lhbiIvPiYjeGE7PHRleHQgZm9udC1zaXplPSIxNC4wMCIgZm9udC1mYW1pbHk9IkhlbHZldGljYSxzYW5zLVNlcmlmIiB5PSItNjg1LjMiIHg9IjQ2OSIgdGV4dC1hbmNob3I9Im1pZGRsZSI+UGxheWVyIGVudGVycyBWb2lkQXJlYTwvdGV4dD4mI3hhOzwvZz4mI3hhOyYjeGE7PGcgY2xhc3M9ImVkZ2UiIGlkPSJlZGdlMzUiPiYjeGE7PHRpdGxlPlAxLSZndDtQMjwvdGl0bGU+JiN4YTs8cGF0aCBkPSJNNDY5LjQ4LC03OTMuODVDNDY5LjQ4LC03OTMuODUgNDY5LjQ4LC03MTcuMjIgNDY5LjQ4LC03MTcuMjIiIHN0cm9rZS13aWR0aD0iMiIgc3Ryb2tlPSJyZWQiIGZpbGw9Im5vbmUiLz4mI3hhOzxwb2x5Z29uIHBvaW50cz0iNDcyLjk4LC03MTcuMjIgNDY5LjQ4LC03MDcuMjIgNDY1Ljk4LC03MTcuMjIgNDcyLjk4LC03MTcuMjIiIHN0cm9rZS13aWR0aD0iMiIgc3Ryb2tlPSJyZWQiIGZpbGw9InJlZCIvPiYjeGE7PC9nPiYjeGE7JiN4YTs8ZyBjbGFzcz0iZWRnZSIgaWQ9ImVkZ2UzNiI+JiN4YTs8dGl0bGU+UDItJmd0O1ZvaWRBcmVhPC90aXRsZT4mI3hhOzxwYXRoIGQ9Ik01NjUuODEsLTY4OUM1NjUuODEsLTY4OSA2OTkuNDgsLTY4OSA2OTkuNDgsLTY4OSA2OTkuNDgsLTY4OSA2OTkuNDgsLTEzODkuMzMgNjk5LjQ4LC0xMzg5LjMzIDY5OS40OCwtMTM4OS4zMyA4MTguNDQsLTEzODkuMzMgODgyLjEsLTEzODkuMzMiIHN0cm9rZS13aWR0aD0iMiIgc3Ryb2tlPSJyZWQiIGZpbGw9Im5vbmUiLz4mI3hhOzxwb2x5Z29uIHBvaW50cz0iNTY1LjgxLC02ODUuNSA1NTUuODEsLTY4OSA1NjUuODEsLTY5Mi41IDU2NS44MSwtNjg1LjUiIHN0cm9rZS13aWR0aD0iMiIgc3Ryb2tlPSJyZWQiIGZpbGw9InJlZCIvPiYjeGE7PHRleHQgZm9udC1zaXplPSIxMC4wMCIgZm9udC1mYW1pbHk9IkhlbHZldGljYSxzYW5zLVNlcmlmIiB5PSItNTIzIiB4PSI3MzcuNSIgdGV4dC1hbmNob3I9Im1pZGRsZSI+ZW50ZXJzPC90ZXh0PiYjeGE7PC9nPiYjeGE7JiN4YTs8ZyBjbGFzcz0ibm9kZSIgaWQ9Im5vZGUyOSI+JiN4YTs8dGl0bGU+UDQ8L3RpdGxlPiYjeGE7PHBhdGggZD0iTTM4MS41LC00NjZDMzgxLjUsLTQ2NiA1NTYuNSwtNDY2IDU1Ni41LC00NjYgNTYyLjUsLTQ2NiA1NjguNSwtNDcyIDU2OC41LC00NzggNTY4LjUsLTQ3OCA1NjguNSwtNDkwIDU2OC41LC00OTAgNTY4LjUsLTQ5NiA1NjIuNSwtNTAyIDU1Ni41LC01MDIgNTU2LjUsLTUwMiAzODEuNSwtNTAyIDM4MS41LC01MDIgMzc1LjUsLTUwMiAzNjkuNSwtNDk2IDM2OS41LC00OTAgMzY5LjUsLTQ5MCAzNjkuNSwtNDc4IDM2OS41LC00NzggMzY5LjUsLTQ3MiAzNzUuNSwtNDY2IDM4MS41LC00NjYiIHN0cm9rZT0iYmxhY2siIGZpbGw9ImxpZ2h0Y3lhbiIvPiYjeGE7PHRleHQgZm9udC1zaXplPSIxNC4wMCIgZm9udC1mYW1pbHk9IkhlbHZldGljYSxzYW5zLVNlcmlmIiB5PSItNDgwLjMiIHg9IjQ2OSIgdGV4dC1hbmNob3I9Im1pZGRsZSI+RWxpbWluYXRpb24gbG9naWMgdHJpZ2dlcmVkPC90ZXh0PiYjeGE7PC9nPiYjeGE7JiN4YTs8ZyBjbGFzcz0iZWRnZSIgaWQ9ImVkZ2UzOCI+JiN4YTs8dGl0bGU+UDMtJmd0O1A0PC90aXRsZT4mI3hhOzxwYXRoIGQ9Ik00NjkuNDgsLTU4OC45QzQ2OS40OCwtNTg4LjkgNDY5LjQ4LC01MTIuMTIgNDY5LjQ4LC01MTIuMTIiIHN0cm9rZS13aWR0aD0iMiIgc3Ryb2tlPSJyZWQiIGZpbGw9Im5vbmUiLz4mI3hhOzxwb2x5Z29uIHBvaW50cz0iNDcyLjk4LC01MTIuMTIgNDY5LjQ4LC01MDIuMTIgNDY1Ljk4LC01MTIuMTIgNDcyLjk4LC01MTIuMTIiIHN0cm9rZS13aWR0aD0iMiIgc3Ryb2tlPSJyZWQiIGZpbGw9InJlZCIvPiYjeGE7PC9nPiYjeGE7JiN4YTs8ZyBjbGFzcz0iZWRnZSIgaWQ9ImVkZ2UzOSI+JiN4YTs8dGl0bGU+UDQtJmd0O1BsYXllcjwvdGl0bGU+JiN4YTs8cGF0aCBkPSJNMzY5LjI0LC00ODRDMzQ1LjI5LC00ODQgMzI2LjQ4LC00ODQgMzI2LjQ4LC00ODQgMzI2LjQ4LC00ODQgMzI2LjQ4LC0yODggMzI2LjQ4LC0yODggMzI2LjQ4LC0yODggNDA2LjM0LC0yODggNDA2LjM0LC0yODgiIHN0cm9rZS13aWR0aD0iMiIgc3Ryb2tlPSJyZWQiIGZpbGw9Im5vbmUiLz4mI3hhOzxwb2x5Z29uIHBvaW50cz0iNDA2LjM0LC0yOTEuNSA0MTYuMzQsLTI4OCA0MDYuMzQsLTI4NC41IDQwNi4zNCwtMjkxLjUiIHN0cm9rZS13aWR0aD0iMiIgc3Ryb2tlPSJyZWQiIGZpbGw9InJlZCIvPiYjeGE7PHRleHQgZm9udC1zaXplPSIxMC4wMCIgZm9udC1mYW1pbHk9IkhlbHZldGljYSxzYW5zLVNlcmlmIiB5PSItMzc5LjUiIHg9IjIwOCIgdGV4dC1hbmNob3I9Im1pZGRsZSI+ZWxpbWluYXRlczwvdGV4dD4mI3hhOzwvZz4mI3hhOyYjeGE7PGcgY2xhc3M9ImVkZ2UiIGlkPSJlZGdlNDEiPiYjeGE7PHRpdGxlPlA1LSZndDtTcGVjdGF0b3Jab25lPC90aXRsZT4mI3hhOzxwYXRoIGQ9Ik01NzguNDgsLTQyMi4yMUM1NzguNDgsLTU0Mi43NiA1NzguNDgsLTEyMjEgNTc4LjQ4LC0xMjIxIDU3OC40OCwtMTIyMSA4NTEuNTQsLTEyMjEgODUxLjU0LC0xMjIxIiBzdHJva2Utd2lkdGg9IjIiIHN0cm9rZT0icmVkIiBmaWxsPSJub25lIi8+JiN4YTs8cG9seWdvbiBwb2ludHM9Ijg1MS41NCwtMTIyNC41IDg2MS41NCwtMTIyMSA4NTEuNTQsLTEyMTcuNSA4NTEuNTQsLTEyMjQuNSIgc3Ryb2tlLXdpZHRoPSIyIiBzdHJva2U9InJlZCIgZmlsbD0icmVkIi8+JiN4YTs8dGV4dCBmb250LXNpemU9IjEwLjAwIiBmb250LWZhbWlseT0iSGVsdmV0aWNhLHNhbnMtU2VyaWYiIHk9Ii0zOTkiIHg9IjczNy41IiB0ZXh0LWFuY2hvcj0ibWlkZGxlIj5hcnJpdmVzIGF0PC90ZXh0PiYjeGE7PC9nPiYjeGE7PC9nPiYjeGE7PC9zdmc+;" vertex="1" parent="1">
          <mxGeometry x="-3020" y="-1030" width="1200" height="931" as="geometry" />
        </mxCell>
        <mxCell id="Ni-ygV4cIkI_FydpOJnQ-221" value="Catching/Knocking" style="swimlane;whiteSpace=wrap;html=1;strokeColor=light-dark(#000000,#000000);strokeWidth=4;align=center;" vertex="1" parent="1">
          <mxGeometry x="-1090" y="-1370" width="730" height="250" as="geometry" />
        </mxCell>
        <mxCell id="Ni-ygV4cIkI_FydpOJnQ-222" value="Variables" style="swimlane;fontStyle=0;childLayout=stackLayout;horizontal=1;startSize=30;horizontalStack=0;resizeParent=1;resizeParentMax=0;resizeLast=0;collapsible=1;marginBottom=0;whiteSpace=wrap;html=1;strokeColor=light-dark(#000000,#000000);strokeWidth=4;" vertex="1" parent="Ni-ygV4cIkI_FydpOJnQ-221">
          <mxGeometry x="30" y="40" width="190" height="180" as="geometry" />
        </mxCell>
        <mxCell id="Ni-ygV4cIkI_FydpOJnQ-223" value="var has_ball: bool" style="text;strokeColor=none;fillColor=none;align=left;verticalAlign=middle;spacingLeft=4;spacingRight=4;overflow=hidden;points=[[0,0.5],[1,0.5]];portConstraint=eastwest;rotatable=0;whiteSpace=wrap;html=1;fontColor=light-dark(#000000,#000000);fontSize=12;" vertex="1" parent="Ni-ygV4cIkI_FydpOJnQ-222">
          <mxGeometry y="30" width="190" height="30" as="geometry" />
        </mxCell>
        <mxCell id="Ni-ygV4cIkI_FydpOJnQ-224" value="var ball_speed: float" style="text;strokeColor=none;fillColor=none;align=left;verticalAlign=middle;spacingLeft=4;spacingRight=4;overflow=hidden;points=[[0,0.5],[1,0.5]];portConstraint=eastwest;rotatable=0;whiteSpace=wrap;html=1;fontColor=light-dark(#000000,#000000);fontSize=12;" vertex="1" parent="Ni-ygV4cIkI_FydpOJnQ-222">
          <mxGeometry y="60" width="190" height="30" as="geometry" />
        </mxCell>
        <mxCell id="Ni-ygV4cIkI_FydpOJnQ-225" value="var target_location: Vector2" style="text;strokeColor=none;fillColor=none;align=left;verticalAlign=middle;spacingLeft=4;spacingRight=4;overflow=hidden;points=[[0,0.5],[1,0.5]];portConstraint=eastwest;rotatable=0;whiteSpace=wrap;html=1;fontColor=light-dark(#000000,#000000);fontSize=12;" vertex="1" parent="Ni-ygV4cIkI_FydpOJnQ-222">
          <mxGeometry y="90" width="190" height="30" as="geometry" />
        </mxCell>
        <mxCell id="Ni-ygV4cIkI_FydpOJnQ-226" value="var is_reachable: bool" style="text;strokeColor=none;fillColor=none;align=left;verticalAlign=middle;spacingLeft=4;spacingRight=4;overflow=hidden;points=[[0,0.5],[1,0.5]];portConstraint=eastwest;rotatable=0;whiteSpace=wrap;html=1;fontColor=light-dark(#000000,#000000);fontSize=12;" vertex="1" parent="Ni-ygV4cIkI_FydpOJnQ-222">
          <mxGeometry y="120" width="190" height="30" as="geometry" />
        </mxCell>
        <mxCell id="Ni-ygV4cIkI_FydpOJnQ-227" value="var target_radius: float" style="text;strokeColor=none;fillColor=none;align=left;verticalAlign=middle;spacingLeft=4;spacingRight=4;overflow=hidden;points=[[0,0.5],[1,0.5]];portConstraint=eastwest;rotatable=0;whiteSpace=wrap;html=1;fontColor=light-dark(#000000,#000000);fontSize=12;" vertex="1" parent="Ni-ygV4cIkI_FydpOJnQ-222">
          <mxGeometry y="150" width="190" height="30" as="geometry" />
        </mxCell>
        <mxCell id="Ni-ygV4cIkI_FydpOJnQ-228" value="Methods" style="swimlane;fontStyle=0;childLayout=stackLayout;horizontal=1;startSize=30;horizontalStack=0;resizeParent=1;resizeParentMax=0;resizeLast=0;collapsible=1;marginBottom=0;whiteSpace=wrap;html=1;strokeColor=light-dark(#000000,#000000);strokeWidth=4;" vertex="1" parent="Ni-ygV4cIkI_FydpOJnQ-221">
          <mxGeometry x="250" y="40" width="450" height="180" as="geometry" />
        </mxCell>
        <mxCell id="Ni-ygV4cIkI_FydpOJnQ-229" value="activate_target (ball_node: Node, hit_location: Vector2, is_catch: bool)" style="text;strokeColor=none;fillColor=none;align=left;verticalAlign=middle;spacingLeft=4;spacingRight=4;overflow=hidden;points=[[0,0.5],[1,0.5]];portConstraint=eastwest;rotatable=0;whiteSpace=wrap;html=1;labelBackgroundColor=none;fontColor=light-dark(#000000,#000000);" vertex="1" parent="Ni-ygV4cIkI_FydpOJnQ-228">
          <mxGeometry y="30" width="450" height="30" as="geometry" />
        </mxCell>
        <mxCell id="Ni-ygV4cIkI_FydpOJnQ-230" value="display_target (pos: Vector2, radius: float)" style="text;strokeColor=none;fillColor=none;align=left;verticalAlign=middle;spacingLeft=4;spacingRight=4;overflow=hidden;points=[[0,0.5],[1,0.5]];portConstraint=eastwest;rotatable=0;whiteSpace=wrap;html=1;labelBackgroundColor=none;fontColor=light-dark(#000000,#000000);" vertex="1" parent="Ni-ygV4cIkI_FydpOJnQ-228">
          <mxGeometry y="60" width="450" height="30" as="geometry" />
        </mxCell>
        <mxCell id="Ni-ygV4cIkI_FydpOJnQ-231" value="hide_target ()" style="text;strokeColor=none;fillColor=none;align=left;verticalAlign=middle;spacingLeft=4;spacingRight=4;overflow=hidden;points=[[0,0.5],[1,0.5]];portConstraint=eastwest;rotatable=0;whiteSpace=wrap;html=1;labelBackgroundColor=none;fontColor=light-dark(#000000,#000000);" vertex="1" parent="Ni-ygV4cIkI_FydpOJnQ-228">
          <mxGeometry y="90" width="450" height="30" as="geometry" />
        </mxCell>
        <mxCell id="Ni-ygV4cIkI_FydpOJnQ-232" value="try_click (pos: Vector2)" style="text;strokeColor=none;fillColor=none;align=left;verticalAlign=middle;spacingLeft=4;spacingRight=4;overflow=hidden;points=[[0,0.5],[1,0.5]];portConstraint=eastwest;rotatable=0;whiteSpace=wrap;html=1;labelBackgroundColor=none;fontColor=light-dark(#000000,#000000);" vertex="1" parent="Ni-ygV4cIkI_FydpOJnQ-228">
          <mxGeometry y="120" width="450" height="30" as="geometry" />
        </mxCell>
        <mxCell id="Ni-ygV4cIkI_FydpOJnQ-233" value="resolve_catch (ball: Node)" style="text;strokeColor=none;fillColor=none;align=left;verticalAlign=middle;spacingLeft=4;spacingRight=4;overflow=hidden;points=[[0,0.5],[1,0.5]];portConstraint=eastwest;rotatable=0;whiteSpace=wrap;html=1;labelBackgroundColor=none;fontColor=light-dark(#000000,#000000);" vertex="1" parent="Ni-ygV4cIkI_FydpOJnQ-228">
          <mxGeometry y="150" width="450" height="30" as="geometry" />
        </mxCell>
        <mxCell id="Ni-ygV4cIkI_FydpOJnQ-336" value="Game Manager" style="swimlane;fontStyle=0;align=center;verticalAlign=top;childLayout=stackLayout;horizontal=1;startSize=26;horizontalStack=0;resizeParent=1;resizeLast=0;collapsible=1;marginBottom=0;rounded=0;shadow=0;strokeWidth=4;strokeColor=light-dark(#000000,#000000);" vertex="1" parent="1">
          <mxGeometry x="1110" y="-1130" width="160" height="190" as="geometry">
            <mxRectangle x="230" y="140" width="160" height="26" as="alternateBounds" />
          </mxGeometry>
        </mxCell>
        <mxCell id="Ni-ygV4cIkI_FydpOJnQ-337" value="players - array of players" style="text;align=left;verticalAlign=top;spacingLeft=4;spacingRight=4;overflow=hidden;rotatable=0;points=[[0,0.5],[1,0.5]];portConstraint=eastwest;fontColor=light-dark(#000000,#000000);strokeColor=light-dark(#000000,#000000);strokeWidth=4;" vertex="1" parent="Ni-ygV4cIkI_FydpOJnQ-336">
          <mxGeometry y="26" width="160" height="26" as="geometry" />
        </mxCell>
        <mxCell id="Ni-ygV4cIkI_FydpOJnQ-338" value="teams - array of teams" style="text;align=left;verticalAlign=top;spacingLeft=4;spacingRight=4;overflow=hidden;rotatable=0;points=[[0,0.5],[1,0.5]];portConstraint=eastwest;rounded=0;shadow=0;html=0;fontColor=light-dark(#000000,#000000);strokeColor=light-dark(#000000,#000000);strokeWidth=4;" vertex="1" parent="Ni-ygV4cIkI_FydpOJnQ-336">
          <mxGeometry y="52" width="160" height="26" as="geometry" />
        </mxCell>
        <mxCell id="Ni-ygV4cIkI_FydpOJnQ-339" value="balls - array of balls" style="text;align=left;verticalAlign=top;spacingLeft=4;spacingRight=4;overflow=hidden;rotatable=0;points=[[0,0.5],[1,0.5]];portConstraint=eastwest;fontColor=light-dark(#000000,#000000);strokeColor=light-dark(#000000,#000000);strokeWidth=4;" vertex="1" parent="Ni-ygV4cIkI_FydpOJnQ-336">
          <mxGeometry y="78" width="160" height="26" as="geometry" />
        </mxCell>
        <mxCell id="Ni-ygV4cIkI_FydpOJnQ-340" value="gameClock - double" style="text;align=left;verticalAlign=top;spacingLeft=4;spacingRight=4;overflow=hidden;rotatable=0;points=[[0,0.5],[1,0.5]];portConstraint=eastwest;rounded=0;shadow=0;html=0;fontColor=light-dark(#000000,#000000);strokeColor=light-dark(#000000,#000000);strokeWidth=4;" vertex="1" parent="Ni-ygV4cIkI_FydpOJnQ-336">
          <mxGeometry y="104" width="160" height="26" as="geometry" />
        </mxCell>
        <mxCell id="Ni-ygV4cIkI_FydpOJnQ-341" value="map - String" style="text;html=1;align=left;verticalAlign=middle;whiteSpace=wrap;rounded=0;fontColor=light-dark(#000000,#000000);strokeColor=light-dark(#000000,#000000);strokeWidth=4;" vertex="1" parent="Ni-ygV4cIkI_FydpOJnQ-336">
          <mxGeometry y="130" width="160" height="30" as="geometry" />
        </mxCell>
        <mxCell id="Ni-ygV4cIkI_FydpOJnQ-342" value="hoardingTimer - double" style="text;html=1;align=left;verticalAlign=middle;whiteSpace=wrap;rounded=0;strokeColor=light-dark(#000000,#000000);strokeWidth=4;fontColor=light-dark(#000000,#000000);" vertex="1" parent="Ni-ygV4cIkI_FydpOJnQ-336">
          <mxGeometry y="160" width="160" height="30" as="geometry" />
        </mxCell>
        <mxCell id="Ni-ygV4cIkI_FydpOJnQ-343" value="Team" style="swimlane;fontStyle=0;align=center;verticalAlign=top;childLayout=stackLayout;horizontal=1;startSize=26;horizontalStack=0;resizeParent=1;resizeLast=0;collapsible=1;marginBottom=0;rounded=0;shadow=0;strokeWidth=4;strokeColor=light-dark(#000000,#000000);" vertex="1" parent="1">
          <mxGeometry x="780" y="-890" width="190" height="138" as="geometry">
            <mxRectangle x="130" y="380" width="160" height="26" as="alternateBounds" />
          </mxGeometry>
        </mxCell>
        <mxCell id="Ni-ygV4cIkI_FydpOJnQ-344" value="players - array of players on team" style="text;align=left;verticalAlign=top;spacingLeft=4;spacingRight=4;overflow=hidden;rotatable=0;points=[[0,0.5],[1,0.5]];portConstraint=eastwest;fontColor=light-dark(#000000,#000000);strokeColor=light-dark(#000000,#000000);strokeWidth=4;" vertex="1" parent="Ni-ygV4cIkI_FydpOJnQ-343">
          <mxGeometry y="26" width="190" height="26" as="geometry" />
        </mxCell>
        <mxCell id="Ni-ygV4cIkI_FydpOJnQ-345" value="teamColor - String" style="text;html=1;align=left;verticalAlign=middle;whiteSpace=wrap;rounded=0;fontColor=light-dark(#000000,#000000);strokeColor=light-dark(#000000,#000000);strokeWidth=4;" vertex="1" parent="Ni-ygV4cIkI_FydpOJnQ-343">
          <mxGeometry y="52" width="190" height="30" as="geometry" />
        </mxCell>
        <mxCell id="Ni-ygV4cIkI_FydpOJnQ-346" value="roundWins - int" style="text;align=left;verticalAlign=top;spacingLeft=4;spacingRight=4;overflow=hidden;rotatable=0;points=[[0,0.5],[1,0.5]];portConstraint=eastwest;rounded=0;shadow=0;html=0;fontColor=light-dark(#000000,#000000);strokeColor=light-dark(#000000,#000000);strokeWidth=4;" vertex="1" parent="Ni-ygV4cIkI_FydpOJnQ-343">
          <mxGeometry y="82" width="190" height="26" as="geometry" />
        </mxCell>
        <mxCell id="Ni-ygV4cIkI_FydpOJnQ-347" value="isHoarding - boolean" style="text;html=1;align=left;verticalAlign=middle;whiteSpace=wrap;rounded=0;fontColor=light-dark(#000000,#000000);strokeColor=light-dark(#000000,#000000);strokeWidth=4;" vertex="1" parent="Ni-ygV4cIkI_FydpOJnQ-343">
          <mxGeometry y="108" width="190" height="30" as="geometry" />
        </mxCell>
        <mxCell id="Ni-ygV4cIkI_FydpOJnQ-348" value="Ball" style="swimlane;fontStyle=0;align=center;verticalAlign=top;childLayout=stackLayout;horizontal=1;startSize=26;horizontalStack=0;resizeParent=1;resizeLast=0;collapsible=1;marginBottom=0;rounded=0;shadow=0;strokeWidth=4;strokeColor=light-dark(#000000,#000000);" vertex="1" parent="1">
          <mxGeometry x="1350" y="-890" width="210" height="180" as="geometry">
            <mxRectangle x="340" y="380" width="170" height="26" as="alternateBounds" />
          </mxGeometry>
        </mxCell>
        <mxCell id="Ni-ygV4cIkI_FydpOJnQ-349" value="inHand - boolean" style="text;align=left;verticalAlign=top;spacingLeft=4;spacingRight=4;overflow=hidden;rotatable=0;points=[[0,0.5],[1,0.5]];portConstraint=eastwest;fontColor=light-dark(#000000,#000000);strokeColor=light-dark(#000000,#000000);strokeWidth=4;" vertex="1" parent="Ni-ygV4cIkI_FydpOJnQ-348">
          <mxGeometry y="26" width="210" height="26" as="geometry" />
        </mxCell>
        <mxCell id="Ni-ygV4cIkI_FydpOJnQ-350" value="velocity - int" style="text;html=1;align=left;verticalAlign=middle;whiteSpace=wrap;rounded=0;fontColor=light-dark(#000000,#000000);strokeColor=light-dark(#000000,#000000);strokeWidth=4;" vertex="1" parent="Ni-ygV4cIkI_FydpOJnQ-348">
          <mxGeometry y="52" width="210" height="30" as="geometry" />
        </mxCell>
        <mxCell id="Ni-ygV4cIkI_FydpOJnQ-351" value="holder - String" style="text;html=1;align=left;verticalAlign=middle;whiteSpace=wrap;rounded=0;fontColor=light-dark(#000000,#000000);strokeColor=light-dark(#000000,#000000);strokeWidth=4;" vertex="1" parent="Ni-ygV4cIkI_FydpOJnQ-348">
          <mxGeometry y="82" width="210" height="30" as="geometry" />
        </mxCell>
        <mxCell id="Ni-ygV4cIkI_FydpOJnQ-352" value="position - array" style="text;html=1;align=left;verticalAlign=middle;whiteSpace=wrap;rounded=0;fontColor=light-dark(#000000,#000000);strokeColor=light-dark(#000000,#000000);strokeWidth=4;" vertex="1" parent="Ni-ygV4cIkI_FydpOJnQ-348">
          <mxGeometry y="112" width="210" height="30" as="geometry" />
        </mxCell>
        <mxCell id="Ni-ygV4cIkI_FydpOJnQ-353" value="ballHolder - String" style="text;html=1;align=left;verticalAlign=middle;whiteSpace=wrap;rounded=0;fontColor=light-dark(#000000,#000000);strokeColor=light-dark(#000000,#000000);strokeWidth=4;" vertex="1" parent="Ni-ygV4cIkI_FydpOJnQ-348">
          <mxGeometry y="142" width="210" height="30" as="geometry" />
        </mxCell>
        <mxCell id="Ni-ygV4cIkI_FydpOJnQ-354" value="Player" style="swimlane;fontStyle=0;align=center;verticalAlign=top;childLayout=stackLayout;horizontal=1;startSize=26;horizontalStack=0;resizeParent=1;resizeLast=0;collapsible=1;marginBottom=0;rounded=0;shadow=0;strokeWidth=4;strokeColor=light-dark(#000000,#000000);" vertex="1" parent="1">
          <mxGeometry x="1110" y="-890" width="160" height="270" as="geometry">
            <mxRectangle x="550" y="140" width="160" height="26" as="alternateBounds" />
          </mxGeometry>
        </mxCell>
        <mxCell id="Ni-ygV4cIkI_FydpOJnQ-355" value="name - String" style="text;align=left;verticalAlign=top;spacingLeft=4;spacingRight=4;overflow=hidden;rotatable=0;points=[[0,0.5],[1,0.5]];portConstraint=eastwest;fontColor=light-dark(#000000,#000000);strokeColor=light-dark(#000000,#000000);strokeWidth=4;" vertex="1" parent="Ni-ygV4cIkI_FydpOJnQ-354">
          <mxGeometry y="26" width="160" height="26" as="geometry" />
        </mxCell>
        <mxCell id="Ni-ygV4cIkI_FydpOJnQ-356" value="team - String" style="text;align=left;verticalAlign=top;spacingLeft=4;spacingRight=4;overflow=hidden;rotatable=0;points=[[0,0.5],[1,0.5]];portConstraint=eastwest;rounded=0;shadow=0;html=0;fontColor=light-dark(#000000,#000000);strokeColor=light-dark(#000000,#000000);strokeWidth=4;" vertex="1" parent="Ni-ygV4cIkI_FydpOJnQ-354">
          <mxGeometry y="52" width="160" height="26" as="geometry" />
        </mxCell>
        <mxCell id="Ni-ygV4cIkI_FydpOJnQ-357" value="livesRemaining - int" style="text;align=left;verticalAlign=top;spacingLeft=4;spacingRight=4;overflow=hidden;rotatable=0;points=[[0,0.5],[1,0.5]];portConstraint=eastwest;rounded=0;shadow=0;html=0;fontColor=light-dark(#000000,#000000);strokeColor=light-dark(#000000,#000000);strokeWidth=4;" vertex="1" parent="Ni-ygV4cIkI_FydpOJnQ-354">
          <mxGeometry y="78" width="160" height="26" as="geometry" />
        </mxCell>
        <mxCell id="Ni-ygV4cIkI_FydpOJnQ-358" value="isAlive - boolean" style="text;align=left;verticalAlign=top;spacingLeft=4;spacingRight=4;overflow=hidden;rotatable=0;points=[[0,0.5],[1,0.5]];portConstraint=eastwest;rounded=0;shadow=0;html=0;fontColor=light-dark(#000000,#000000);strokeColor=light-dark(#000000,#000000);strokeWidth=4;" vertex="1" parent="Ni-ygV4cIkI_FydpOJnQ-354">
          <mxGeometry y="104" width="160" height="26" as="geometry" />
        </mxCell>
        <mxCell id="Ni-ygV4cIkI_FydpOJnQ-359" value="hasBall - boolean" style="text;align=left;verticalAlign=top;spacingLeft=4;spacingRight=4;overflow=hidden;rotatable=0;points=[[0,0.5],[1,0.5]];portConstraint=eastwest;rounded=0;shadow=0;html=0;fontColor=light-dark(#000000,#000000);strokeColor=light-dark(#000000,#000000);strokeWidth=4;" vertex="1" parent="Ni-ygV4cIkI_FydpOJnQ-354">
          <mxGeometry y="130" width="160" height="26" as="geometry" />
        </mxCell>
        <mxCell id="Ni-ygV4cIkI_FydpOJnQ-360" value="position - array" style="text;align=left;verticalAlign=top;spacingLeft=4;spacingRight=4;overflow=hidden;rotatable=0;points=[[0,0.5],[1,0.5]];portConstraint=eastwest;fontColor=light-dark(#000000,#000000);strokeColor=light-dark(#000000,#000000);strokeWidth=4;" vertex="1" parent="Ni-ygV4cIkI_FydpOJnQ-354">
          <mxGeometry y="156" width="160" height="26" as="geometry" />
        </mxCell>
        <mxCell id="Ni-ygV4cIkI_FydpOJnQ-361" value="Output As Label" style="text;align=left;verticalAlign=top;spacingLeft=4;spacingRight=4;overflow=hidden;rotatable=0;points=[[0,0.5],[1,0.5]];portConstraint=eastwest;fontColor=light-dark(#000000,#000000);strokeColor=light-dark(#000000,#000000);strokeWidth=4;" vertex="1" parent="Ni-ygV4cIkI_FydpOJnQ-354">
          <mxGeometry y="182" width="160" height="28" as="geometry" />
        </mxCell>
        <mxCell id="Ni-ygV4cIkI_FydpOJnQ-362" value="isCatching - boolean" style="text;html=1;align=left;verticalAlign=middle;whiteSpace=wrap;rounded=0;strokeColor=light-dark(#000000,#000000);strokeWidth=4;fontColor=light-dark(#000000,#000000);" vertex="1" parent="Ni-ygV4cIkI_FydpOJnQ-354">
          <mxGeometry y="210" width="160" height="30" as="geometry" />
        </mxCell>
        <mxCell id="Ni-ygV4cIkI_FydpOJnQ-363" value="isBlocking - boolean" style="text;html=1;align=left;verticalAlign=middle;whiteSpace=wrap;rounded=0;strokeColor=light-dark(#000000,#000000);strokeWidth=4;fontColor=light-dark(#000000,#000000);" vertex="1" parent="Ni-ygV4cIkI_FydpOJnQ-354">
          <mxGeometry y="240" width="160" height="30" as="geometry" />
        </mxCell>
        <mxCell id="Ni-ygV4cIkI_FydpOJnQ-364" style="edgeStyle=orthogonalEdgeStyle;rounded=0;orthogonalLoop=1;jettySize=auto;html=1;exitX=1;exitY=0.5;exitDx=0;exitDy=0;entryX=0;entryY=0.046;entryDx=0;entryDy=0;entryPerimeter=0;strokeColor=light-dark(#000000,#000000);strokeWidth=4;" edge="1" parent="1" source="Ni-ygV4cIkI_FydpOJnQ-344" target="Ni-ygV4cIkI_FydpOJnQ-354">
          <mxGeometry relative="1" as="geometry">
            <Array as="points">
              <mxPoint x="970" y="-851" />
              <mxPoint x="970" y="-850" />
              <mxPoint x="1050" y="-850" />
              <mxPoint x="1050" y="-880" />
            </Array>
          </mxGeometry>
        </mxCell>
        <mxCell id="Ni-ygV4cIkI_FydpOJnQ-365" style="edgeStyle=orthogonalEdgeStyle;rounded=0;orthogonalLoop=1;jettySize=auto;html=1;exitX=1;exitY=0.5;exitDx=0;exitDy=0;entryX=0.995;entryY=0.055;entryDx=0;entryDy=0;entryPerimeter=0;strokeColor=light-dark(#000000,#000000);strokeWidth=4;" edge="1" parent="1" source="Ni-ygV4cIkI_FydpOJnQ-337" target="Ni-ygV4cIkI_FydpOJnQ-354">
          <mxGeometry relative="1" as="geometry" />
        </mxCell>
        <mxCell id="Ni-ygV4cIkI_FydpOJnQ-366" style="edgeStyle=orthogonalEdgeStyle;rounded=0;orthogonalLoop=1;jettySize=auto;html=1;entryX=0.5;entryY=0;entryDx=0;entryDy=0;strokeColor=light-dark(#000000,#000000);strokeWidth=4;" edge="1" parent="1" source="Ni-ygV4cIkI_FydpOJnQ-338" target="Ni-ygV4cIkI_FydpOJnQ-343">
          <mxGeometry relative="1" as="geometry" />
        </mxCell>
        <mxCell id="Ni-ygV4cIkI_FydpOJnQ-367" style="edgeStyle=orthogonalEdgeStyle;rounded=0;orthogonalLoop=1;jettySize=auto;html=1;entryX=0.5;entryY=0;entryDx=0;entryDy=0;strokeColor=light-dark(#000000,#000000);strokeWidth=4;" edge="1" parent="1" source="Ni-ygV4cIkI_FydpOJnQ-339" target="Ni-ygV4cIkI_FydpOJnQ-348">
          <mxGeometry relative="1" as="geometry" />
        </mxCell>
        <mxCell id="Ni-ygV4cIkI_FydpOJnQ-368" style="edgeStyle=orthogonalEdgeStyle;rounded=0;orthogonalLoop=1;jettySize=auto;html=1;entryX=1;entryY=0.091;entryDx=0;entryDy=0;entryPerimeter=0;strokeColor=light-dark(#000000,#000000);strokeWidth=4;" edge="1" parent="1" source="Ni-ygV4cIkI_FydpOJnQ-356" target="Ni-ygV4cIkI_FydpOJnQ-343">
          <mxGeometry relative="1" as="geometry" />
        </mxCell>
        <mxCell id="Ni-ygV4cIkI_FydpOJnQ-369" style="edgeStyle=orthogonalEdgeStyle;rounded=0;orthogonalLoop=1;jettySize=auto;html=1;entryX=-0.005;entryY=0.086;entryDx=0;entryDy=0;entryPerimeter=0;fontColor=light-dark(#000000,#000000);strokeColor=light-dark(#000000,#000000);strokeWidth=4;" edge="1" parent="1" source="Ni-ygV4cIkI_FydpOJnQ-359" target="Ni-ygV4cIkI_FydpOJnQ-348">
          <mxGeometry relative="1" as="geometry" />
        </mxCell>
        <mxCell id="Ni-ygV4cIkI_FydpOJnQ-401" value="&lt;h1 style=&quot;margin-top: 0px;&quot;&gt;How it all works&lt;/h1&gt;&lt;p&gt;&lt;font style=&quot;color: light-dark(rgb(0, 0, 0), rgb(0, 0, 0));&quot;&gt;Camera is child of a pivot which rotates based on direction the character looks. Also child of pivot is a raycast3d, essentially a pointer which gives data on if an object collides with it, what that object is, collision point, etc. If raycast colliding with ball that is in air and left mouse button clicked, pick up function is run to give ball to player.&amp;nbsp;&lt;/font&gt;&lt;/p&gt;" style="text;html=1;whiteSpace=wrap;overflow=hidden;rounded=0;strokeColor=light-dark(#000000,#000000);strokeWidth=4;" vertex="1" parent="1">
          <mxGeometry x="-2565" y="59" width="360" height="260" as="geometry" />
        </mxCell>
        <mxCell id="Ni-ygV4cIkI_FydpOJnQ-402" style="edgeStyle=orthogonalEdgeStyle;rounded=0;orthogonalLoop=1;jettySize=auto;html=1;exitX=0.5;exitY=1;exitDx=0;exitDy=0;strokeColor=light-dark(#000000,#000000);strokeWidth=4;" edge="1" parent="1" source="Ni-ygV4cIkI_FydpOJnQ-401" target="Ni-ygV4cIkI_FydpOJnQ-401">
          <mxGeometry relative="1" as="geometry" />
        </mxCell>
        <mxCell id="Ni-ygV4cIkI_FydpOJnQ-403" style="edgeStyle=orthogonalEdgeStyle;rounded=0;orthogonalLoop=1;jettySize=auto;html=1;entryX=0.5;entryY=0;entryDx=0;entryDy=0;strokeColor=light-dark(#000000,#000000);strokeWidth=4;" edge="1" parent="1" source="Ni-ygV4cIkI_FydpOJnQ-404" target="Ni-ygV4cIkI_FydpOJnQ-406">
          <mxGeometry relative="1" as="geometry" />
        </mxCell>
        <mxCell id="Ni-ygV4cIkI_FydpOJnQ-404" value="" style="rounded=0;whiteSpace=wrap;html=1;strokeColor=light-dark(#000000,#000000);strokeWidth=4;" vertex="1" parent="1">
          <mxGeometry x="-2140" y="274" width="120" height="60" as="geometry" />
        </mxCell>
        <mxCell id="Ni-ygV4cIkI_FydpOJnQ-405" value="&lt;font style=&quot;font-size: 17px;&quot;&gt;Player Node&lt;/font&gt;" style="text;html=1;align=center;verticalAlign=middle;whiteSpace=wrap;rounded=0;strokeColor=light-dark(#000000,#000000);strokeWidth=4;" vertex="1" parent="1">
          <mxGeometry x="-2130" y="289" width="100" height="30" as="geometry" />
        </mxCell>
        <mxCell id="Ni-ygV4cIkI_FydpOJnQ-406" value="RayCast3d" style="swimlane;fontStyle=0;childLayout=stackLayout;horizontal=1;startSize=30;horizontalStack=0;resizeParent=1;resizeParentMax=0;resizeLast=0;collapsible=1;marginBottom=0;whiteSpace=wrap;html=1;strokeColor=light-dark(#000000,#000000);strokeWidth=4;" vertex="1" parent="1">
          <mxGeometry x="-2270" y="389" width="140" height="80" as="geometry" />
        </mxCell>
        <mxCell id="Ni-ygV4cIkI_FydpOJnQ-407" value="Fixed size pointing out of camera, returns object collided with" style="text;strokeColor=light-dark(#000000,#000000);fillColor=none;align=left;verticalAlign=middle;spacingLeft=4;spacingRight=4;overflow=hidden;points=[[0,0.5],[1,0.5]];portConstraint=eastwest;rotatable=0;whiteSpace=wrap;html=1;fontColor=light-dark(#000000,#000000);strokeWidth=4;" vertex="1" parent="Ni-ygV4cIkI_FydpOJnQ-406">
          <mxGeometry y="30" width="140" height="50" as="geometry" />
        </mxCell>
        <mxCell id="Ni-ygV4cIkI_FydpOJnQ-408" value="Player Script" style="swimlane;fontStyle=0;childLayout=stackLayout;horizontal=1;startSize=30;horizontalStack=0;resizeParent=1;resizeParentMax=0;resizeLast=0;collapsible=1;marginBottom=0;whiteSpace=wrap;html=1;strokeColor=light-dark(#000000,#000000);strokeWidth=4;" vertex="1" parent="1">
          <mxGeometry x="-2005" y="389" width="230" height="170" as="geometry" />
        </mxCell>
        <mxCell id="Ni-ygV4cIkI_FydpOJnQ-409" style="edgeStyle=orthogonalEdgeStyle;rounded=0;orthogonalLoop=1;jettySize=auto;html=1;fontColor=light-dark(#000000,#000000);strokeColor=light-dark(#000000,#000000);strokeWidth=4;" edge="1" parent="Ni-ygV4cIkI_FydpOJnQ-408" source="Ni-ygV4cIkI_FydpOJnQ-410">
          <mxGeometry relative="1" as="geometry">
            <mxPoint x="-120" y="50" as="targetPoint" />
          </mxGeometry>
        </mxCell>
        <mxCell id="Ni-ygV4cIkI_FydpOJnQ-410" value="Catch Func ()&lt;div&gt;&lt;span style=&quot;white-space: pre;&quot;&gt;&#x9;&lt;/span&gt;if raycast colliding ball &amp;amp; cooldown &lt;span style=&quot;white-space: pre;&quot;&gt;&#x9;&lt;/span&gt;&amp;amp; catchable&lt;br&gt;&lt;/div&gt;&lt;div&gt;&lt;span style=&quot;white-space: pre;&quot;&gt;&#x9;&lt;/span&gt;&lt;span style=&quot;white-space: pre;&quot;&gt;&#x9;&lt;/span&gt;pick up func&lt;/div&gt;&lt;div&gt;&lt;span style=&quot;white-space: pre;&quot;&gt;&#x9;&lt;/span&gt;&lt;span style=&quot;white-space: pre;&quot;&gt;&#x9;&lt;/span&gt;revive elimPlayers[0]&lt;br&gt;&lt;/div&gt;" style="text;strokeColor=light-dark(#000000,#000000);fillColor=none;align=left;verticalAlign=middle;spacingLeft=4;spacingRight=4;overflow=hidden;points=[[0,0.5],[1,0.5]];portConstraint=eastwest;rotatable=0;whiteSpace=wrap;html=1;fontColor=light-dark(#000000,#000000);strokeWidth=4;" vertex="1" parent="Ni-ygV4cIkI_FydpOJnQ-408">
          <mxGeometry y="30" width="230" height="80" as="geometry" />
        </mxCell>
        <mxCell id="Ni-ygV4cIkI_FydpOJnQ-411" value="Catch Cooldown - timer" style="text;strokeColor=light-dark(#000000,#000000);fillColor=none;align=left;verticalAlign=middle;spacingLeft=4;spacingRight=4;overflow=hidden;points=[[0,0.5],[1,0.5]];portConstraint=eastwest;rotatable=0;whiteSpace=wrap;html=1;fontColor=light-dark(#000000,#000000);strokeWidth=4;" vertex="1" parent="Ni-ygV4cIkI_FydpOJnQ-408">
          <mxGeometry y="110" width="230" height="60" as="geometry" />
        </mxCell>
        <mxCell id="Ni-ygV4cIkI_FydpOJnQ-412" style="edgeStyle=orthogonalEdgeStyle;rounded=0;orthogonalLoop=1;jettySize=auto;html=1;entryX=0.571;entryY=0;entryDx=0;entryDy=0;entryPerimeter=0;strokeColor=light-dark(#000000,#000000);strokeWidth=4;" edge="1" parent="1" target="Ni-ygV4cIkI_FydpOJnQ-408">
          <mxGeometry relative="1" as="geometry">
            <mxPoint x="-2080" y="359" as="sourcePoint" />
          </mxGeometry>
        </mxCell>
        <mxCell id="Ni-ygV4cIkI_FydpOJnQ-413" value="" style="rounded=0;whiteSpace=wrap;html=1;strokeColor=light-dark(#000000,#000000);strokeWidth=4;" vertex="1" parent="1">
          <mxGeometry x="-2435" y="409" width="120" height="60" as="geometry" />
        </mxCell>
        <mxCell id="Ni-ygV4cIkI_FydpOJnQ-414" value="&lt;font style=&quot;font-size: 17px;&quot;&gt;Ball Node&lt;/font&gt;" style="text;html=1;align=center;verticalAlign=middle;whiteSpace=wrap;rounded=0;strokeColor=light-dark(#000000,#000000);strokeWidth=4;" vertex="1" parent="1">
          <mxGeometry x="-2425" y="424" width="100" height="30" as="geometry" />
        </mxCell>
        <mxCell id="Ni-ygV4cIkI_FydpOJnQ-415" style="edgeStyle=orthogonalEdgeStyle;rounded=0;orthogonalLoop=1;jettySize=auto;html=1;entryX=1;entryY=0.5;entryDx=0;entryDy=0;strokeColor=light-dark(#000000,#000000);strokeWidth=4;" edge="1" parent="1" source="Ni-ygV4cIkI_FydpOJnQ-407" target="Ni-ygV4cIkI_FydpOJnQ-413">
          <mxGeometry relative="1" as="geometry" />
        </mxCell>
        <mxCell id="Ni-ygV4cIkI_FydpOJnQ-416" value="Game Manager" style="swimlane;fontStyle=0;childLayout=stackLayout;horizontal=1;startSize=30;horizontalStack=0;resizeParent=1;resizeParentMax=0;resizeLast=0;collapsible=1;marginBottom=0;whiteSpace=wrap;html=1;strokeColor=light-dark(#000000,#000000);strokeWidth=4;" vertex="1" parent="1">
          <mxGeometry x="-1945" y="269" width="140" height="60" as="geometry" />
        </mxCell>
        <mxCell id="Ni-ygV4cIkI_FydpOJnQ-417" value="Elim Players - array" style="text;strokeColor=light-dark(#000000,#000000);fillColor=none;align=left;verticalAlign=middle;spacingLeft=4;spacingRight=4;overflow=hidden;points=[[0,0.5],[1,0.5]];portConstraint=eastwest;rotatable=0;whiteSpace=wrap;html=1;fontColor=light-dark(#000000,#000000);strokeWidth=4;" vertex="1" parent="Ni-ygV4cIkI_FydpOJnQ-416">
          <mxGeometry y="30" width="140" height="30" as="geometry" />
        </mxCell>
        <mxCell id="Ni-ygV4cIkI_FydpOJnQ-418" style="edgeStyle=orthogonalEdgeStyle;rounded=0;orthogonalLoop=1;jettySize=auto;html=1;entryX=1;entryY=0.5;entryDx=0;entryDy=0;strokeColor=light-dark(#000000,#000000);strokeWidth=4;" edge="1" parent="1" source="Ni-ygV4cIkI_FydpOJnQ-410" target="Ni-ygV4cIkI_FydpOJnQ-417">
          <mxGeometry relative="1" as="geometry" />
        </mxCell>
        <mxCell id="Ni-ygV4cIkI_FydpOJnQ-419" value="Ball Node" style="swimlane;fontStyle=0;childLayout=stackLayout;horizontal=1;startSize=30;horizontalStack=0;resizeParent=1;resizeParentMax=0;resizeLast=0;collapsible=1;marginBottom=0;whiteSpace=wrap;html=1;strokeColor=light-dark(#000000,#000000);strokeWidth=4;" vertex="1" parent="1">
          <mxGeometry x="-1735" y="379" width="140" height="60" as="geometry" />
        </mxCell>
        <mxCell id="Ni-ygV4cIkI_FydpOJnQ-420" value="Catchable - bool" style="text;strokeColor=light-dark(#000000,#000000);fillColor=none;align=left;verticalAlign=middle;spacingLeft=4;spacingRight=4;overflow=hidden;points=[[0,0.5],[1,0.5]];portConstraint=eastwest;rotatable=0;whiteSpace=wrap;html=1;fontColor=light-dark(#000000,#000000);strokeWidth=4;" vertex="1" parent="Ni-ygV4cIkI_FydpOJnQ-419">
          <mxGeometry y="30" width="140" height="30" as="geometry" />
        </mxCell>
        <mxCell id="Ni-ygV4cIkI_FydpOJnQ-421" style="edgeStyle=orthogonalEdgeStyle;rounded=0;orthogonalLoop=1;jettySize=auto;html=1;entryX=0.5;entryY=1;entryDx=0;entryDy=0;entryPerimeter=0;fontColor=light-dark(#000000,#000000);strokeColor=light-dark(#000000,#000000);strokeWidth=4;" edge="1" parent="1" source="Ni-ygV4cIkI_FydpOJnQ-410" target="Ni-ygV4cIkI_FydpOJnQ-420">
          <mxGeometry relative="1" as="geometry" />
        </mxCell>
        <mxCell id="Ni-ygV4cIkI_FydpOJnQ-422" style="edgeStyle=orthogonalEdgeStyle;rounded=0;orthogonalLoop=1;jettySize=auto;html=1;entryX=0;entryY=0.5;entryDx=0;entryDy=0;fontColor=light-dark(#000000,#000000);strokeColor=light-dark(#000000,#000000);strokeWidth=4;" edge="1" parent="1" source="Ni-ygV4cIkI_FydpOJnQ-407" target="Ni-ygV4cIkI_FydpOJnQ-410">
          <mxGeometry relative="1" as="geometry">
            <Array as="points">
              <mxPoint x="-2065" y="439" />
              <mxPoint x="-2065" y="459" />
            </Array>
          </mxGeometry>
        </mxCell>
        <mxCell id="Ni-ygV4cIkI_FydpOJnQ-457" value="" style="shape=image;verticalLabelPosition=bottom;labelBackgroundColor=default;verticalAlign=top;aspect=fixed;imageAspect=0;editableCssRules=.*;image=data:image/svg+xml,PHN2ZyB4bWxuczp4bGluaz0iaHR0cDovL3d3dy53My5vcmcvMTk5OS94bGluayIgeG1sbnM9Imh0dHA6Ly93d3cudzMub3JnLzIwMDAvc3ZnIiB2aWV3Qm94PSIwIDAgMjA3MSAxMjA4IiBoZWlnaHQ9IjEyMDgiIHdpZHRoPSIyMDcxIj4mI3hhOzxnIHRyYW5zZm9ybT0ic2NhbGUoMSAxKSByb3RhdGUoMCkgdHJhbnNsYXRlKDQgMTIwNCkiIGNsYXNzPSJncmFwaCIgaWQ9ImdyYXBoMCI+JiN4YTs8dGl0bGU+U291bmRTeXN0ZW1BcmNoaXRlY3R1cmU8L3RpdGxlPiYjeGE7PHBvbHlnb24gcG9pbnRzPSItNCw0IC00LC0xMjA0IDIwNjcsLTEyMDQgMjA2Nyw0IC00LDQiIHN0cm9rZT0idHJhbnNwYXJlbnQiIGZpbGw9IndoaXRlIi8+JiN4YTs8ZyBjbGFzcz0iY2x1c3RlciIgaWQ9ImNsdXN0MSI+JiN4YTs8dGl0bGU+Y2x1c3Rlcl9rZXk8L3RpdGxlPiYjeGE7PHBvbHlnb24gcG9pbnRzPSI4LC0zMjggOCwtMTE5MSAzNDYsLTExOTEgMzQ2LC0zMjggOCwtMzI4IiBzdHJva2U9ImJsYWNrIiBmaWxsPSJpdm9yeSIvPiYjeGE7PHRleHQgZm9udC1zaXplPSIxNC4wMCIgZm9udC1mYW1pbHk9IlRpbWVzLHNlcmlmIiB5PSItMTE3NS44IiB4PSIxNzciIHRleHQtYW5jaG9yPSJtaWRkbGUiPktleTwvdGV4dD4mI3hhOzwvZz4mI3hhOzxnIGNsYXNzPSJjbHVzdGVyIiBpZD0iY2x1c3QyIj4mI3hhOzx0aXRsZT5jbHVzdGVyX2dhbWVwbGF5PC90aXRsZT4mI3hhOzxwb2x5Z29uIHBvaW50cz0iMTEwOSwtMTA5MiAxMTA5LC0xMTkyIDE1MTMsLTExOTIgMTUxMywtMTA5MiAxMTA5LC0xMDkyIiBzdHJva2U9ImJsYWNrIiBmaWxsPSJhbGljZWJsdWUiLz4mI3hhOzx0ZXh0IGZvbnQtc2l6ZT0iMTQuMDAiIGZvbnQtZmFtaWx5PSJUaW1lcyxzZXJpZiIgeT0iLTExNzYuOCIgeD0iMTMxMSIgdGV4dC1hbmNob3I9Im1pZGRsZSI+R2FtZXBsYXkgTGF5ZXI8L3RleHQ+JiN4YTs8L2c+JiN4YTs8ZyBjbGFzcz0iY2x1c3RlciIgaWQ9ImNsdXN0MyI+JiN4YTs8dGl0bGU+Y2x1c3Rlcl9hdWRpb21hbmFnZXI8L3RpdGxlPiYjeGE7PHBvbHlnb24gcG9pbnRzPSIxMjMyLC04NTggMTIzMiwtMTAyNyAxNDQyLC0xMDI3IDE0NDIsLTg1OCAxMjMyLC04NTgiIHN0cm9rZT0iYmxhY2siIGZpbGw9Im1pc3R5cm9zZSIvPiYjeGE7PHRleHQgZm9udC1zaXplPSIxNC4wMCIgZm9udC1mYW1pbHk9IlRpbWVzLHNlcmlmIiB5PSItMTAxMS44IiB4PSIxMzM3IiB0ZXh0LWFuY2hvcj0ibWlkZGxlIj5BdWRpbyBNYW5hZ2VtZW50PC90ZXh0PiYjeGE7PC9nPiYjeGE7PGcgY2xhc3M9ImNsdXN0ZXIiIGlkPSJjbHVzdDQiPiYjeGE7PHRpdGxlPmNsdXN0ZXJfcGxheWJhY2s8L3RpdGxlPiYjeGE7PHBvbHlnb24gcG9pbnRzPSI1MDgsLTY4NS41IDUwOCwtNzg1LjUgMTU5OCwtNzg1LjUgMTU5OCwtNjg1LjUgNTA4LC02ODUuNSIgc3Ryb2tlPSJibGFjayIgZmlsbD0ibGlnaHRjeWFuIi8+JiN4YTs8dGV4dCBmb250LXNpemU9IjE0LjAwIiBmb250LWZhbWlseT0iVGltZXMsc2VyaWYiIHk9Ii03NzAuMyIgeD0iMTA1MyIgdGV4dC1hbmNob3I9Im1pZGRsZSI+UGxheWJhY2sgTm9kZXM8L3RleHQ+JiN4YTs8L2c+JiN4YTs8ZyBjbGFzcz0iY2x1c3RlciIgaWQ9ImNsdXN0NSI+JiN4YTs8dGl0bGU+Y2x1c3Rlcl9hc3NldHM8L3RpdGxlPiYjeGE7PHBvbHlnb24gcG9pbnRzPSIxNjk3LC02NzggMTY5NywtNzkzIDE4OTUsLTc5MyAxODk1LC02NzggMTY5NywtNjc4IiBzdHJva2U9ImJsYWNrIiBmaWxsPSJsZW1vbmNoaWZmb24iLz4mI3hhOzx0ZXh0IGZvbnQtc2l6ZT0iMTQuMDAiIGZvbnQtZmFtaWx5PSJUaW1lcyxzZXJpZiIgeT0iLTc3Ny44IiB4PSIxNzk2IiB0ZXh0LWFuY2hvcj0ibWlkZGxlIj5BdWRpbyBBc3NldHM8L3RleHQ+JiN4YTs8L2c+JiN4YTs8ZyBjbGFzcz0iY2x1c3RlciIgaWQ9ImNsdXN0NiI+JiN4YTs8dGl0bGU+Y2x1c3Rlcl9nb2RvdF9hdWRpbzwvdGl0bGU+JiN4YTs8cG9seWdvbiBwb2ludHM9Ijc0NywtOCA3NDcsLTYxMyAxMjkzLC02MTMgMTI5MywtOCA3NDcsLTgiIHN0cm9rZT0iYmxhY2siIGZpbGw9ImhvbmV5ZGV3Ii8+JiN4YTs8dGV4dCBmb250LXNpemU9IjE0LjAwIiBmb250LWZhbWlseT0iVGltZXMsc2VyaWYiIHk9Ii01OTcuOCIgeD0iMTAyMCIgdGV4dC1hbmNob3I9Im1pZGRsZSI+R29kb3QgQXVkaW8gRW5naW5lPC90ZXh0PiYjeGE7PC9nPiYjeGE7PGcgY2xhc3M9ImNsdXN0ZXIiIGlkPSJjbHVzdDciPiYjeGE7PHRpdGxlPmNsdXN0ZXJfYnVzZXM8L3RpdGxlPiYjeGE7PHBvbHlnb24gcG9pbnRzPSI3NTUsLTE2IDc1NSwtNTgyIDEyODUsLTU4MiAxMjg1LC0xNiA3NTUsLTE2IiBzdHJva2U9ImJsYWNrIiBmaWxsPSJwZWFjaHB1ZmYiLz4mI3hhOzx0ZXh0IGZvbnQtc2l6ZT0iMTQuMDAiIGZvbnQtZmFtaWx5PSJUaW1lcyxzZXJpZiIgeT0iLTU2Ni44IiB4PSIxMDIwIiB0ZXh0LWFuY2hvcj0ibWlkZGxlIj5BdWRpbyBCdXNlczwvdGV4dD4mI3hhOzwvZz4mI3hhOyYjeGE7PGcgY2xhc3M9Im5vZGUiIGlkPSJub2RlMSI+JiN4YTs8dGl0bGU+S2V5X0NvbXBvbmVudDwvdGl0bGU+JiN4YTs8cG9seWdvbiBwb2ludHM9IjMzNy41LC0xMTM3IDE4NC41LC0xMTM3IDE4NC41LC0xMTAxIDMzNy41LC0xMTAxIDMzNy41LC0xMTM3IiBzdHJva2U9ImJsYWNrIiBmaWxsPSJsaWdodGJsdWUiLz4mI3hhOzx0ZXh0IGZvbnQtc2l6ZT0iMTQuMDAiIGZvbnQtZmFtaWx5PSJIZWx2ZXRpY2Esc2Fucy1TZXJpZiIgeT0iLTExMTUuMyIgeD0iMjYxIiB0ZXh0LWFuY2hvcj0ibWlkZGxlIj5TeXN0ZW0gQ29tcG9uZW50PC90ZXh0PiYjeGE7PC9nPiYjeGE7JiN4YTs8ZyBjbGFzcz0ibm9kZSIgaWQ9Im5vZGUyIj4mI3hhOzx0aXRsZT5LZXlfTm9kZTwvdGl0bGU+JiN4YTs8cG9seWdvbiBwb2ludHM9IjMxOSwtOTM3LjUgMjIxLC05MzcuNSAyMjEsLTkzMy41IDIxNywtOTMzLjUgMjE3LC05MjkuNSAyMjEsLTkyOS41IDIyMSwtOTA5LjUgMjE3LC05MDkuNSAyMTcsLTkwNS41IDIyMSwtOTA1LjUgMjIxLC05MDEuNSAzMTksLTkwMS41IDMxOSwtOTM3LjUiIHN0cm9rZT0iYmxhY2siIGZpbGw9ImxpZ2h0Z3JlZW4iLz4mI3hhOzxwb2x5bGluZSBwb2ludHM9IjIyMSwtOTMzLjUgMjI1LC05MzMuNSAyMjUsLTkyOS41IDIyMSwtOTI5LjUiIHN0cm9rZT0iYmxhY2siIGZpbGw9Im5vbmUiLz4mI3hhOzxwb2x5bGluZSBwb2ludHM9IjIyMSwtOTA5LjUgMjI1LC05MDkuNSAyMjUsLTkwNS41IDIyMSwtOTA1LjUiIHN0cm9rZT0iYmxhY2siIGZpbGw9Im5vbmUiLz4mI3hhOzx0ZXh0IGZvbnQtc2l6ZT0iMTQuMDAiIGZvbnQtZmFtaWx5PSJIZWx2ZXRpY2Esc2Fucy1TZXJpZiIgeT0iLTkxNS44IiB4PSIyNzAiIHRleHQtYW5jaG9yPSJtaWRkbGUiPkdvZG90IE5vZGU8L3RleHQ+JiN4YTs8L2c+JiN4YTsmI3hhOyYjeGE7PGcgY2xhc3M9Im5vZGUiIGlkPSJub2RlMyI+JiN4YTs8dGl0bGU+S2V5X1Jlc291cmNlPC90aXRsZT4mI3hhOzxwb2x5Z29uIHBvaW50cz0iMzMwLC03MzAuNSAyMTQsLTczMC41IDIxNCwtNjk0LjUgMzM2LC02OTQuNSAzMzYsLTcyNC41IDMzMCwtNzMwLjUiIHN0cm9rZT0iYmxhY2siIGZpbGw9InllbGxvdyIvPiYjeGE7PHBvbHlsaW5lIHBvaW50cz0iMzMwLC03MzAuNSAzMzAsLTcyNC41IiBzdHJva2U9ImJsYWNrIiBmaWxsPSJub25lIi8+JiN4YTs8cG9seWxpbmUgcG9pbnRzPSIzMzYsLTcyNC41IDMzMCwtNzI0LjUiIHN0cm9rZT0iYmxhY2siIGZpbGw9Im5vbmUiLz4mI3hhOzx0ZXh0IGZvbnQtc2l6ZT0iMTQuMDAiIGZvbnQtZmFtaWx5PSJIZWx2ZXRpY2Esc2Fucy1TZXJpZiIgeT0iLTcwOC44IiB4PSIyNzUiIHRleHQtYW5jaG9yPSJtaWRkbGUiPlJlc291cmNlL0Fzc2V0PC90ZXh0PiYjeGE7PC9nPiYjeGE7JiN4YTsmI3hhOzxnIGNsYXNzPSJub2RlIiBpZD0ibm9kZTQiPiYjeGE7PHRpdGxlPktleV9CdXM8L3RpdGxlPiYjeGE7PHBvbHlnb24gcG9pbnRzPSIzMTUuNSwtNTI4IDMxMi41LC01MzIgMjkxLjUsLTUzMiAyODguNSwtNTI4IDIyOC41LC01MjggMjI4LjUsLTQ5MiAzMTUuNSwtNDkyIDMxNS41LC01MjgiIHN0cm9rZT0iYmxhY2siIGZpbGw9Im9yYW5nZSIvPiYjeGE7PHRleHQgZm9udC1zaXplPSIxNC4wMCIgZm9udC1mYW1pbHk9IkhlbHZldGljYSxzYW5zLVNlcmlmIiB5PSItNTA2LjMiIHg9IjI3MiIgdGV4dC1hbmNob3I9Im1pZGRsZSI+QXVkaW8gQnVzPC90ZXh0PiYjeGE7PC9nPiYjeGE7JiN4YTsmI3hhOzxnIGNsYXNzPSJub2RlIiBpZD0ibm9kZTUiPiYjeGE7PHRpdGxlPktleV9TaW5nbGV0b248L3RpdGxlPiYjeGE7PHBhdGggZD0iTTIwMiwtMzM2LjVDMjAyLC0zMzYuNSAzMjYsLTMzNi41IDMyNiwtMzM2LjUgMzMyLC0zMzYuNSAzMzgsLTM0Mi41IDMzOCwtMzQ4LjUgMzM4LC0zNDguNSAzMzgsLTM2MC41IDMzOCwtMzYwLjUgMzM4LC0zNjYuNSAzMzIsLTM3Mi41IDMyNiwtMzcyLjUgMzI2LC0zNzIuNSAyMDIsLTM3Mi41IDIwMiwtMzcyLjUgMTk2LC0zNzIuNSAxOTAsLTM2Ni41IDE5MCwtMzYwLjUgMTkwLC0zNjAuNSAxOTAsLTM0OC41IDE5MCwtMzQ4LjUgMTkwLC0zNDIuNSAxOTYsLTMzNi41IDIwMiwtMzM2LjUiIHN0cm9rZT0iYmxhY2siIGZpbGw9ImxpZ2h0Y29yYWwiLz4mI3hhOzx0ZXh0IGZvbnQtc2l6ZT0iMTQuMDAiIGZvbnQtZmFtaWx5PSJIZWx2ZXRpY2Esc2Fucy1TZXJpZiIgeT0iLTM1MC44IiB4PSIyNjQiIHRleHQtYW5jaG9yPSJtaWRkbGUiPkF1dG9sb2FkIFNpbmdsZXRvbjwvdGV4dD4mI3hhOzwvZz4mI3hhOyYjeGE7JiN4YTs8ZyBjbGFzcz0ibm9kZSIgaWQ9Im5vZGU2Ij4mI3hhOzx0aXRsZT5LZXlfRWRnZV9UcmlnZ2VyPC90aXRsZT4mI3hhOzxwb2x5Z29uIHBvaW50cz0iMTI2LC0xMTM3IDE2LC0xMTM3IDE2LC0xMTAxIDEyNiwtMTEwMSAxMjYsLTExMzciIHN0cm9rZT0iYmxhY2siIGZpbGw9Im5vbmUiLz4mI3hhOzx0ZXh0IGZvbnQtc2l6ZT0iMTQuMDAiIGZvbnQtZmFtaWx5PSJIZWx2ZXRpY2Esc2Fucy1TZXJpZiIgeT0iLTExMTUuMyIgeD0iNzEiIHRleHQtYW5jaG9yPSJtaWRkbGUiPlRyaWdnZXJzL0NhbGxzPC90ZXh0PiYjeGE7PC9nPiYjeGE7JiN4YTs8ZyBjbGFzcz0ibm9kZSIgaWQ9Im5vZGU3Ij4mI3hhOzx0aXRsZT5LZXlfRWRnZV9EYXRhRmxvdzwvdGl0bGU+JiN4YTs8cG9seWdvbiBwb2ludHM9IjE0Ny41LC05MzcuNSAxOC41LC05MzcuNSAxOC41LC05MDEuNSAxNDcuNSwtOTAxLjUgMTQ3LjUsLTkzNy41IiBzdHJva2UtZGFzaGFycmF5PSI1LDIiIHN0cm9rZT0iYmx1ZSIgZmlsbD0ibm9uZSIvPiYjeGE7PHRleHQgZm9udC1zaXplPSIxNC4wMCIgZm9udC1mYW1pbHk9IkhlbHZldGljYSxzYW5zLVNlcmlmIiB5PSItOTE1LjgiIHg9IjgzIiB0ZXh0LWFuY2hvcj0ibWlkZGxlIj5BdWRpbyBEYXRhIEZsb3c8L3RleHQ+JiN4YTs8L2c+JiN4YTsmI3hhOyYjeGE7PGcgY2xhc3M9Im5vZGUiIGlkPSJub2RlOCI+JiN4YTs8dGl0bGU+S2V5X0VkZ2VfQ29udHJvbDwvdGl0bGU+JiN4YTs8cG9seWdvbiBwb2ludHM9IjE1NiwtNzMwLjUgMTYsLTczMC41IDE2LC02OTQuNSAxNTYsLTY5NC41IDE1NiwtNzMwLjUiIHN0cm9rZS1kYXNoYXJyYXk9IjEsNSIgc3Ryb2tlPSJyZWQiIGZpbGw9Im5vbmUiLz4mI3hhOzx0ZXh0IGZvbnQtc2l6ZT0iMTQuMDAiIGZvbnQtZmFtaWx5PSJIZWx2ZXRpY2Esc2Fucy1TZXJpZiIgeT0iLTcwOC44IiB4PSI4NiIgdGV4dC1hbmNob3I9Im1pZGRsZSI+Q29udHJvbHMvTWFuYWdlczwvdGV4dD4mI3hhOzwvZz4mI3hhOyYjeGE7JiN4YTs8ZyBjbGFzcz0ibm9kZSIgaWQ9Im5vZGU5Ij4mI3hhOzx0aXRsZT5HYW1lT2JqZWN0czwvdGl0bGU+JiN4YTs8cG9seWdvbiBwb2ludHM9IjEzMzMsLTExMzggMTExNywtMTEzOCAxMTE3LC0xMTAwIDEzMzMsLTExMDAgMTMzMywtMTEzOCIgc3Ryb2tlPSJibGFjayIgZmlsbD0ibGlnaHRibHVlIi8+JiN4YTs8dGV4dCBmb250LXNpemU9IjE0LjAwIiBmb250LWZhbWlseT0iSGVsdmV0aWNhLHNhbnMtU2VyaWYiIHk9Ii0xMTIyLjgiIHg9IjEyMjUiIHRleHQtYW5jaG9yPSJtaWRkbGUiPkdhbWUgT2JqZWN0czwvdGV4dD4mI3hhOzx0ZXh0IGZvbnQtc2l6ZT0iMTQuMDAiIGZvbnQtZmFtaWx5PSJIZWx2ZXRpY2Esc2Fucy1TZXJpZiIgeT0iLTExMDcuOCIgeD0iMTIyNSIgdGV4dC1hbmNob3I9Im1pZGRsZSI+KFBsYXllciwgQmFsbCwgT2JzdGFjbGVzLCBldGMuKTwvdGV4dD4mI3hhOzwvZz4mI3hhOyYjeGE7PGcgY2xhc3M9Im5vZGUiIGlkPSJub2RlMTEiPiYjeGE7PHRpdGxlPkF1ZGlvTWFuYWdlcjwvdGl0bGU+JiN4YTs8cGF0aCBkPSJNMTI1MiwtODY2LjVDMTI1MiwtODY2LjUgMTQyMiwtODY2LjUgMTQyMiwtODY2LjUgMTQyOCwtODY2LjUgMTQzNCwtODcyLjUgMTQzNCwtODc4LjUgMTQzNCwtODc4LjUgMTQzNCwtOTYwLjUgMTQzNCwtOTYwLjUgMTQzNCwtOTY2LjUgMTQyOCwtOTcyLjUgMTQyMiwtOTcyLjUgMTQyMiwtOTcyLjUgMTI1MiwtOTcyLjUgMTI1MiwtOTcyLjUgMTI0NiwtOTcyLjUgMTI0MCwtOTY2LjUgMTI0MCwtOTYwLjUgMTI0MCwtOTYwLjUgMTI0MCwtODc4LjUgMTI0MCwtODc4LjUgMTI0MCwtODcyLjUgMTI0NiwtODY2LjUgMTI1MiwtODY2LjUiIHN0cm9rZT0iYmxhY2siIGZpbGw9ImxpZ2h0Y29yYWwiLz4mI3hhOzx0ZXh0IGZvbnQtc2l6ZT0iMTQuMDAiIGZvbnQtZmFtaWx5PSJIZWx2ZXRpY2Esc2Fucy1TZXJpZiIgeT0iLTk1Ny4zIiB4PSIxMzM3IiB0ZXh0LWFuY2hvcj0ibWlkZGxlIj5BdWRpb01hbmFnZXIgKEF1dG9sb2FkKTwvdGV4dD4mI3hhOzxwb2x5bGluZSBwb2ludHM9IjEyNDAsLTk0OS41IDE0MzQsLTk0OS41IiBzdHJva2U9ImJsYWNrIiBmaWxsPSJub25lIi8+JiN4YTs8dGV4dCBmb250LXNpemU9IjE0LjAwIiBmb250LWZhbWlseT0iSGVsdmV0aWNhLHNhbnMtU2VyaWYiIHk9Ii05MzQuMyIgeD0iMTI0OCIgdGV4dC1hbmNob3I9InN0YXJ0Ij4rIHBsYXlfc2Z4KCk8L3RleHQ+JiN4YTs8dGV4dCBmb250LXNpemU9IjE0LjAwIiBmb250LWZhbWlseT0iSGVsdmV0aWNhLHNhbnMtU2VyaWYiIHk9Ii05MTkuMyIgeD0iMTI0OCIgdGV4dC1hbmNob3I9InN0YXJ0Ij4rIHBsYXlfdWlfc2Z4KCk8L3RleHQ+JiN4YTs8dGV4dCBmb250LXNpemU9IjE0LjAwIiBmb250LWZhbWlseT0iSGVsdmV0aWNhLHNhbnMtU2VyaWYiIHk9Ii05MDQuMyIgeD0iMTI0OCIgdGV4dC1hbmNob3I9InN0YXJ0Ij4rIHBsYXlfbXVzaWMoKTwvdGV4dD4mI3hhOzx0ZXh0IGZvbnQtc2l6ZT0iMTQuMDAiIGZvbnQtZmFtaWx5PSJIZWx2ZXRpY2Esc2Fucy1TZXJpZiIgeT0iLTg4OS4zIiB4PSIxMjQ4IiB0ZXh0LWFuY2hvcj0ic3RhcnQiPisgc2V0X2J1c192b2x1bWUoKTwvdGV4dD4mI3hhOzx0ZXh0IGZvbnQtc2l6ZT0iMTQuMDAiIGZvbnQtZmFtaWx5PSJIZWx2ZXRpY2Esc2Fucy1TZXJpZiIgeT0iLTg3NC4zIiB4PSIxMjQ4IiB0ZXh0LWFuY2hvcj0ic3RhcnQiPisgbWFuYWdlX3Bvb2xzKCk8L3RleHQ+JiN4YTs8L2c+JiN4YTsmI3hhOzxnIGNsYXNzPSJlZGdlIiBpZD0iZWRnZTE4Ij4mI3hhOzx0aXRsZT5HYW1lT2JqZWN0cy0mZ3Q7QXVkaW9NYW5hZ2VyPC90aXRsZT4mI3hhOzxwYXRoIGQ9Ik0xMjg2LjUsLTEwOTkuODdDMTI4Ni41LC0xMDk5Ljg3IDEyODYuNSwtOTgyLjg4IDEyODYuNSwtOTgyLjg4IiBzdHJva2U9ImJsYWNrIiBmaWxsPSJub25lIi8+JiN4YTs8cG9seWdvbiBwb2ludHM9IjEyOTAsLTk4Mi44OCAxMjg2LjUsLTk3Mi44OCAxMjgzLC05ODIuODggMTI5MCwtOTgyLjg4IiBzdHJva2U9ImJsYWNrIiBmaWxsPSJibGFjayIvPiYjeGE7PHRleHQgZm9udC1zaXplPSIxMC4wMCIgZm9udC1mYW1pbHk9IkhlbHZldGljYSxzYW5zLVNlcmlmIiB5PSItMTAzOCIgeD0iMTI5Mi41IiB0ZXh0LWFuY2hvcj0ibWlkZGxlIj5SZXF1ZXN0IFNGWCBQbGF5YmFjazwvdGV4dD4mI3hhOzwvZz4mI3hhOyYjeGE7PGcgY2xhc3M9Im5vZGUiIGlkPSJub2RlMTAiPiYjeGE7PHRpdGxlPlVJU2NlbmVzPC90aXRsZT4mI3hhOzxwb2x5Z29uIHBvaW50cz0iMTUwNC41LC0xMTM4IDEzOTEuNSwtMTEzOCAxMzkxLjUsLTExMDAgMTUwNC41LC0xMTAwIDE1MDQuNSwtMTEzOCIgc3Ryb2tlPSJibGFjayIgZmlsbD0ibGlnaHRibHVlIi8+JiN4YTs8dGV4dCBmb250LXNpemU9IjE0LjAwIiBmb250LWZhbWlseT0iSGVsdmV0aWNhLHNhbnMtU2VyaWYiIHk9Ii0xMTIyLjgiIHg9IjE0NDgiIHRleHQtYW5jaG9yPSJtaWRkbGUiPlVJIFNjZW5lczwvdGV4dD4mI3hhOzx0ZXh0IGZvbnQtc2l6ZT0iMTQuMDAiIGZvbnQtZmFtaWx5PSJIZWx2ZXRpY2Esc2Fucy1TZXJpZiIgeT0iLTExMDcuOCIgeD0iMTQ0OCIgdGV4dC1hbmNob3I9Im1pZGRsZSI+KE1lbnVzLCBIVUQpPC90ZXh0PiYjeGE7PC9nPiYjeGE7JiN4YTs8ZyBjbGFzcz0iZWRnZSIgaWQ9ImVkZ2UxOSI+JiN4YTs8dGl0bGU+VUlTY2VuZXMtJmd0O0F1ZGlvTWFuYWdlcjwvdGl0bGU+JiN4YTs8cGF0aCBkPSJNMTQxMi43NSwtMTA5OS44N0MxNDEyLjc1LC0xMDk5Ljg3IDE0MTIuNzUsLTk4Mi44OCAxNDEyLjc1LC05ODIuODgiIHN0cm9rZT0iYmxhY2siIGZpbGw9Im5vbmUiLz4mI3hhOzxwb2x5Z29uIHBvaW50cz0iMTQxNi4yNSwtOTgyLjg4IDE0MTIuNzUsLTk3Mi44OCAxNDA5LjI1LC05ODIuODggMTQxNi4yNSwtOTgyLjg4IiBzdHJva2U9ImJsYWNrIiBmaWxsPSJibGFjayIvPiYjeGE7PHRleHQgZm9udC1zaXplPSIxMC4wMCIgZm9udC1mYW1pbHk9IkhlbHZldGljYSxzYW5zLVNlcmlmIiB5PSItMTAzOCIgeD0iMTUwMS41IiB0ZXh0LWFuY2hvcj0ibWlkZGxlIj5SZXF1ZXN0IFVJL011c2ljIFBsYXliYWNrPC90ZXh0PiYjeGE7PC9nPiYjeGE7JiN4YTs8ZyBjbGFzcz0ibm9kZSIgaWQ9Im5vZGUxMiI+JiN4YTs8dGl0bGU+QVNQX1Bvb2w8L3RpdGxlPiYjeGE7PHBvbHlnb24gcG9pbnRzPSIxMzEwLC03MzEuNSAxMDkyLC03MzEuNSAxMDkyLC03MjcuNSAxMDg4LC03MjcuNSAxMDg4LC03MjMuNSAxMDkyLC03MjMuNSAxMDkyLC03MDEuNSAxMDg4LC03MDEuNSAxMDg4LC02OTcuNSAxMDkyLC02OTcuNSAxMDkyLC02OTMuNSAxMzEwLC02OTMuNSAxMzEwLC03MzEuNSIgc3Ryb2tlPSJibGFjayIgZmlsbD0ibGlnaHRncmVlbiIvPiYjeGE7PHBvbHlsaW5lIHBvaW50cz0iMTA5MiwtNzI3LjUgMTA5NiwtNzI3LjUgMTA5NiwtNzIzLjUgMTA5MiwtNzIzLjUiIHN0cm9rZT0iYmxhY2siIGZpbGw9Im5vbmUiLz4mI3hhOzxwb2x5bGluZSBwb2ludHM9IjEwOTIsLTcwMS41IDEwOTYsLTcwMS41IDEwOTYsLTY5Ny41IDEwOTIsLTY5Ny41IiBzdHJva2U9ImJsYWNrIiBmaWxsPSJub25lIi8+JiN4YTs8dGV4dCBmb250LXNpemU9IjE0LjAwIiBmb250LWZhbWlseT0iSGVsdmV0aWNhLHNhbnMtU2VyaWYiIHk9Ii03MTYuMyIgeD0iMTIwMSIgdGV4dC1hbmNob3I9Im1pZGRsZSI+QXVkaW9TdHJlYW1QbGF5ZXIgUG9vbDwvdGV4dD4mI3hhOzx0ZXh0IGZvbnQtc2l6ZT0iMTQuMDAiIGZvbnQtZmFtaWx5PSJIZWx2ZXRpY2Esc2Fucy1TZXJpZiIgeT0iLTcwMS4zIiB4PSIxMjAxIiB0ZXh0LWFuY2hvcj0ibWlkZGxlIj4oTWFuYWdlZCBieSBBdWRpb01hbmFnZXIpPC90ZXh0PiYjeGE7PC9nPiYjeGE7JiN4YTs8ZyBjbGFzcz0iZWRnZSIgaWQ9ImVkZ2UyMCI+JiN4YTs8dGl0bGU+QXVkaW9NYW5hZ2VyLSZndDtBU1BfUG9vbDwvdGl0bGU+JiN4YTs8cGF0aCBkPSJNMTI3NSwtODY2LjQ2QzEyNzUsLTg2Ni40NiAxMjc1LC03NDEuNzIgMTI3NSwtNzQxLjcyIiBzdHJva2UtZGFzaGFycmF5PSIxLDUiIHN0cm9rZT0icmVkIiBmaWxsPSJub25lIi8+JiN4YTs8cG9seWdvbiBwb2ludHM9IjEyNzguNSwtNzQxLjcyIDEyNzUsLTczMS43MiAxMjcxLjUsLTc0MS43MiAxMjc4LjUsLTc0MS43MiIgc3Ryb2tlPSJyZWQiIGZpbGw9InJlZCIvPiYjeGE7PHRleHQgZm9udC1zaXplPSIxMC4wMCIgZm9udC1mYW1pbHk9IkhlbHZldGljYSxzYW5zLVNlcmlmIiB5PSItODA0IiB4PSIxMjI1LjUiIHRleHQtYW5jaG9yPSJtaWRkbGUiPk1hbmFnZXM8L3RleHQ+JiN4YTs8L2c+JiN4YTsmI3hhOzxnIGNsYXNzPSJub2RlIiBpZD0ibm9kZTEzIj4mI3hhOzx0aXRsZT5BU1AzRF9Qb29sPC90aXRsZT4mI3hhOzxwb2x5Z29uIHBvaW50cz0iMTAzNCwtNzMxLjUgODE2LC03MzEuNSA4MTYsLTcyNy41IDgxMiwtNzI3LjUgODEyLC03MjMuNSA4MTYsLTcyMy41IDgxNiwtNzAxLjUgODEyLC03MDEuNSA4MTIsLTY5Ny41IDgxNiwtNjk3LjUgODE2LC02OTMuNSAxMDM0LC02OTMuNSAxMDM0LC03MzEuNSIgc3Ryb2tlPSJibGFjayIgZmlsbD0ibGlnaHRncmVlbiIvPiYjeGE7PHBvbHlsaW5lIHBvaW50cz0iODE2LC03MjcuNSA4MjAsLTcyNy41IDgyMCwtNzIzLjUgODE2LC03MjMuNSIgc3Ryb2tlPSJibGFjayIgZmlsbD0ibm9uZSIvPiYjeGE7PHBvbHlsaW5lIHBvaW50cz0iODE2LC03MDEuNSA4MjAsLTcwMS41IDgyMCwtNjk3LjUgODE2LC02OTcuNSIgc3Ryb2tlPSJibGFjayIgZmlsbD0ibm9uZSIvPiYjeGE7PHRleHQgZm9udC1zaXplPSIxNC4wMCIgZm9udC1mYW1pbHk9IkhlbHZldGljYSxzYW5zLVNlcmlmIiB5PSItNzE2LjMiIHg9IjkyNSIgdGV4dC1hbmNob3I9Im1pZGRsZSI+QXVkaW9TdHJlYW1QbGF5ZXIzRCBQb29sPC90ZXh0PiYjeGE7PHRleHQgZm9udC1zaXplPSIxNC4wMCIgZm9udC1mYW1pbHk9IkhlbHZldGljYSxzYW5zLVNlcmlmIiB5PSItNzAxLjMiIHg9IjkyNSIgdGV4dC1hbmNob3I9Im1pZGRsZSI+KE1hbmFnZWQgYnkgQXVkaW9NYW5hZ2VyKTwvdGV4dD4mI3hhOzwvZz4mI3hhOyYjeGE7PGcgY2xhc3M9ImVkZ2UiIGlkPSJlZGdlMjEiPiYjeGE7PHRpdGxlPkF1ZGlvTWFuYWdlci0mZ3Q7QVNQM0RfUG9vbDwvdGl0bGU+JiN4YTs8cGF0aCBkPSJNMTIzOS44OCwtODc3QzExMTguMDgsLTg3NyA5MjUsLTg3NyA5MjUsLTg3NyA5MjUsLTg3NyA5MjUsLTc0MS42OSA5MjUsLTc0MS42OSIgc3Ryb2tlLWRhc2hhcnJheT0iMSw1IiBzdHJva2U9InJlZCIgZmlsbD0ibm9uZSIvPiYjeGE7PHBvbHlnb24gcG9pbnRzPSI5MjguNSwtNzQxLjY5IDkyNSwtNzMxLjY5IDkyMS41LC03NDEuNjkgOTI4LjUsLTc0MS42OSIgc3Ryb2tlPSJyZWQiIGZpbGw9InJlZCIvPiYjeGE7PHRleHQgZm9udC1zaXplPSIxMC4wMCIgZm9udC1mYW1pbHk9IkhlbHZldGljYSxzYW5zLVNlcmlmIiB5PSItODA0IiB4PSIxMDMzLjUiIHRleHQtYW5jaG9yPSJtaWRkbGUiPk1hbmFnZXM8L3RleHQ+JiN4YTs8L2c+JiN4YTsmI3hhOzxnIGNsYXNzPSJub2RlIiBpZD0ibm9kZTE0Ij4mI3hhOzx0aXRsZT5BU1BfQXR0YWNoZWQ8L3RpdGxlPiYjeGE7PHBvbHlnb24gcG9pbnRzPSIxNTkwLC03MzEuNSAxMzY4LC03MzEuNSAxMzY4LC03MjcuNSAxMzY0LC03MjcuNSAxMzY0LC03MjMuNSAxMzY4LC03MjMuNSAxMzY4LC03MDEuNSAxMzY0LC03MDEuNSAxMzY0LC02OTcuNSAxMzY4LC02OTcuNSAxMzY4LC02OTMuNSAxNTkwLC02OTMuNSAxNTkwLC03MzEuNSIgc3Ryb2tlPSJibGFjayIgZmlsbD0ibGlnaHRncmVlbiIvPiYjeGE7PHBvbHlsaW5lIHBvaW50cz0iMTM2OCwtNzI3LjUgMTM3MiwtNzI3LjUgMTM3MiwtNzIzLjUgMTM2OCwtNzIzLjUiIHN0cm9rZT0iYmxhY2siIGZpbGw9Im5vbmUiLz4mI3hhOzxwb2x5bGluZSBwb2ludHM9IjEzNjgsLTcwMS41IDEzNzIsLTcwMS41IDEzNzIsLTY5Ny41IDEzNjgsLTY5Ny41IiBzdHJva2U9ImJsYWNrIiBmaWxsPSJub25lIi8+JiN4YTs8dGV4dCBmb250LXNpemU9IjE0LjAwIiBmb250LWZhbWlseT0iSGVsdmV0aWNhLHNhbnMtU2VyaWYiIHk9Ii03MTYuMyIgeD0iMTQ3OSIgdGV4dC1hbmNob3I9Im1pZGRsZSI+QXR0YWNoZWQgQXVkaW9TdHJlYW1QbGF5ZXJzPC90ZXh0PiYjeGE7PHRleHQgZm9udC1zaXplPSIxNC4wMCIgZm9udC1mYW1pbHk9IkhlbHZldGljYSxzYW5zLVNlcmlmIiB5PSItNzAxLjMiIHg9IjE0NzkiIHRleHQtYW5jaG9yPSJtaWRkbGUiPihVSSwgTXVzaWMpPC90ZXh0PiYjeGE7PC9nPiYjeGE7JiN4YTs8ZyBjbGFzcz0iZWRnZSIgaWQ9ImVkZ2UyMiI+JiN4YTs8dGl0bGU+QXVkaW9NYW5hZ2VyLSZndDtBU1BfQXR0YWNoZWQ8L3RpdGxlPiYjeGE7PHBhdGggZD0iTTEzOTAsLTg2Ni40NkMxMzkwLC04NjYuNDYgMTM5MCwtNzQxLjcyIDEzOTAsLTc0MS43MiIgc3Ryb2tlLWRhc2hhcnJheT0iMSw1IiBzdHJva2U9InJlZCIgZmlsbD0ibm9uZSIvPiYjeGE7PHBvbHlnb24gcG9pbnRzPSIxMzkzLjUsLTc0MS43MiAxMzkwLC03MzEuNzIgMTM4Ni41LC03NDEuNzIgMTM5My41LC03NDEuNzIiIHN0cm9rZT0icmVkIiBmaWxsPSJyZWQiLz4mI3hhOzx0ZXh0IGZvbnQtc2l6ZT0iMTAuMDAiIGZvbnQtZmFtaWx5PSJIZWx2ZXRpY2Esc2Fucy1TZXJpZiIgeT0iLTgwNCIgeD0iMTQ5MS41IiB0ZXh0LWFuY2hvcj0ibWlkZGxlIj5NYW5hZ2VzPC90ZXh0PiYjeGE7PC9nPiYjeGE7JiN4YTs8ZyBjbGFzcz0ibm9kZSIgaWQ9Im5vZGUxNSI+JiN4YTs8dGl0bGU+QVNQM0RfQXR0YWNoZWQ8L3RpdGxlPiYjeGE7PHBvbHlnb24gcG9pbnRzPSI3NTgsLTczMS41IDUxNiwtNzMxLjUgNTE2LC03MjcuNSA1MTIsLTcyNy41IDUxMiwtNzIzLjUgNTE2LC03MjMuNSA1MTYsLTcwMS41IDUxMiwtNzAxLjUgNTEyLC02OTcuNSA1MTYsLTY5Ny41IDUxNiwtNjkzLjUgNzU4LC02OTMuNSA3NTgsLTczMS41IiBzdHJva2U9ImJsYWNrIiBmaWxsPSJsaWdodGdyZWVuIi8+JiN4YTs8cG9seWxpbmUgcG9pbnRzPSI1MTYsLTcyNy41IDUyMCwtNzI3LjUgNTIwLC03MjMuNSA1MTYsLTcyMy41IiBzdHJva2U9ImJsYWNrIiBmaWxsPSJub25lIi8+JiN4YTs8cG9seWxpbmUgcG9pbnRzPSI1MTYsLTcwMS41IDUyMCwtNzAxLjUgNTIwLC02OTcuNSA1MTYsLTY5Ny41IiBzdHJva2U9ImJsYWNrIiBmaWxsPSJub25lIi8+JiN4YTs8dGV4dCBmb250LXNpemU9IjE0LjAwIiBmb250LWZhbWlseT0iSGVsdmV0aWNhLHNhbnMtU2VyaWYiIHk9Ii03MTYuMyIgeD0iNjM3IiB0ZXh0LWFuY2hvcj0ibWlkZGxlIj5BdHRhY2hlZCBBdWRpb1N0cmVhbVBsYXllcjNEczwvdGV4dD4mI3hhOzx0ZXh0IGZvbnQtc2l6ZT0iMTQuMDAiIGZvbnQtZmFtaWx5PSJIZWx2ZXRpY2Esc2Fucy1TZXJpZiIgeT0iLTcwMS4zIiB4PSI2MzciIHRleHQtYW5jaG9yPSJtaWRkbGUiPihPbiBHYW1lIE9iamVjdHMpPC90ZXh0PiYjeGE7PC9nPiYjeGE7JiN4YTs8ZyBjbGFzcz0iZWRnZSIgaWQ9ImVkZ2UyMyI+JiN4YTs8dGl0bGU+QXVkaW9NYW5hZ2VyLSZndDtBU1AzRF9BdHRhY2hlZDwvdGl0bGU+JiN4YTs8cGF0aCBkPSJNMTIzOS42NiwtODg5QzEwNTYuMTcsLTg4OSA2NzcuMzMsLTg4OSA2NzcuMzMsLTg4OSA2NzcuMzMsLTg4OSA2NzcuMzMsLTc0MS43MiA2NzcuMzMsLTc0MS43MiIgc3Ryb2tlLWRhc2hhcnJheT0iMSw1IiBzdHJva2U9InJlZCIgZmlsbD0ibm9uZSIvPiYjeGE7PHBvbHlnb24gcG9pbnRzPSI2ODAuODMsLTc0MS43MiA2NzcuMzMsLTczMS43MiA2NzMuODMsLTc0MS43MiA2ODAuODMsLTc0MS43MiIgc3Ryb2tlPSJyZWQiIGZpbGw9InJlZCIvPiYjeGE7PHRleHQgZm9udC1zaXplPSIxMC4wMCIgZm9udC1mYW1pbHk9IkhlbHZldGljYSxzYW5zLVNlcmlmIiB5PSItODA0IiB4PSI3NTEuNSIgdGV4dC1hbmNob3I9Im1pZGRsZSI+Q29udHJvbHM8L3RleHQ+JiN4YTs8L2c+JiN4YTsmI3hhOzxnIGNsYXNzPSJub2RlIiBpZD0ibm9kZTE2Ij4mI3hhOzx0aXRsZT5BdWRpb0Fzc2V0czwvdGl0bGU+JiN4YTs8cG9seWdvbiBwb2ludHM9IjE4ODAuNSwtNzM5IDE3MDUuNSwtNzM5IDE3MDUuNSwtNjg2IDE4ODYuNSwtNjg2IDE4ODYuNSwtNzMzIDE4ODAuNSwtNzM5IiBzdHJva2U9ImJsYWNrIiBmaWxsPSJ5ZWxsb3ciLz4mI3hhOzxwb2x5bGluZSBwb2ludHM9IjE4ODAuNSwtNzM5IDE4ODAuNSwtNzMzIiBzdHJva2U9ImJsYWNrIiBmaWxsPSJub25lIi8+JiN4YTs8cG9seWxpbmUgcG9pbnRzPSIxODg2LjUsLTczMyAxODgwLjUsLTczMyIgc3Ryb2tlPSJibGFjayIgZmlsbD0ibm9uZSIvPiYjeGE7PHRleHQgZm9udC1zaXplPSIxNC4wMCIgZm9udC1mYW1pbHk9IkhlbHZldGljYSxzYW5zLVNlcmlmIiB5PSItNzIzLjgiIHg9IjE3OTYiIHRleHQtYW5jaG9yPSJtaWRkbGUiPkF1ZGlvU3RyZWFtIFJlc291cmNlczwvdGV4dD4mI3hhOzx0ZXh0IGZvbnQtc2l6ZT0iMTQuMDAiIGZvbnQtZmFtaWx5PSJIZWx2ZXRpY2Esc2Fucy1TZXJpZiIgeT0iLTcwOC44IiB4PSIxNzk2IiB0ZXh0LWFuY2hvcj0ibWlkZGxlIj4oLm9nZywgLndhdik8L3RleHQ+JiN4YTs8dGV4dCBmb250LXNpemU9IjE0LjAwIiBmb250LWZhbWlseT0iSGVsdmV0aWNhLHNhbnMtU2VyaWYiIHk9Ii02OTMuOCIgeD0iMTc5NiIgdGV4dC1hbmNob3I9Im1pZGRsZSI+KFNGWCwgTXVzaWMpPC90ZXh0PiYjeGE7PC9nPiYjeGE7JiN4YTs8ZyBjbGFzcz0iZWRnZSIgaWQ9ImVkZ2UyNCI+JiN4YTs8dGl0bGU+QXVkaW9NYW5hZ2VyLSZndDtBdWRpb0Fzc2V0czwvdGl0bGU+JiN4YTs8cGF0aCBkPSJNMTQxMiwtODY2LjQyQzE0MTIsLTgxMi4yMyAxNDEyLC03MzYgMTQxMiwtNzM2IDE0MTIsLTczNiAxNjk1LjQ4LC03MzYgMTY5NS40OCwtNzM2IiBzdHJva2U9ImJsYWNrIiBmaWxsPSJub25lIi8+JiN4YTs8cG9seWdvbiBwb2ludHM9IjE2OTUuNDgsLTczOS41IDE3MDUuNDgsLTczNiAxNjk1LjQ4LC03MzIuNSAxNjk1LjQ4LC03MzkuNSIgc3Ryb2tlPSJibGFjayIgZmlsbD0iYmxhY2siLz4mI3hhOzx0ZXh0IGZvbnQtc2l6ZT0iMTAuMDAiIGZvbnQtZmFtaWx5PSJIZWx2ZXRpY2Esc2Fucy1TZXJpZiIgeT0iLTgwNCIgeD0iMTcwMS41IiB0ZXh0LWFuY2hvcj0ibWlkZGxlIj5Mb2FkczwvdGV4dD4mI3hhOzwvZz4mI3hhOyYjeGE7PGcgY2xhc3M9Im5vZGUiIGlkPSJub2RlMTciPiYjeGE7PHRpdGxlPkF1ZGlvU2VydmVyPC90aXRsZT4mI3hhOzxwb2x5Z29uIHBvaW50cz0iMTI3NiwtNjEgMTE3NCwtNjEgMTE3NCwtMjUgMTI3NiwtMjUgMTI3NiwtNjEiIHN0cm9rZT0iYmxhY2siIGZpbGw9ImxpZ2h0Ymx1ZSIvPiYjeGE7PHRleHQgZm9udC1zaXplPSIxNC4wMCIgZm9udC1mYW1pbHk9IkhlbHZldGljYSxzYW5zLVNlcmlmIiB5PSItMzkuMyIgeD0iMTIyNSIgdGV4dC1hbmNob3I9Im1pZGRsZSI+QXVkaW9TZXJ2ZXI8L3RleHQ+JiN4YTs8L2c+JiN4YTsmI3hhOzxnIGNsYXNzPSJlZGdlIiBpZD0iZWRnZTI1Ij4mI3hhOzx0aXRsZT5BdWRpb01hbmFnZXItJmd0O0F1ZGlvU2VydmVyPC90aXRsZT4mI3hhOzxwYXRoIGQ9Ik0xMzM5LC04NjYuMzJDMTMzOSwtNjc2LjQyIDEzMzksLTQzIDEzMzksLTQzIDEzMzksLTQzIDEyODYuMzMsLTQzIDEyODYuMzMsLTQzIiBzdHJva2UtZGFzaGFycmF5PSIxLDUiIHN0cm9rZT0icmVkIiBmaWxsPSJub25lIi8+JiN4YTs8cG9seWdvbiBwb2ludHM9IjEyODYuMzMsLTM5LjUgMTI3Ni4zMywtNDMgMTI4Ni4zMywtNDYuNSAxMjg2LjMzLC0zOS41IiBzdHJva2U9InJlZCIgZmlsbD0icmVkIi8+JiN4YTs8dGV4dCBmb250LXNpemU9IjEwLjAwIiBmb250LWZhbWlseT0iSGVsdmV0aWNhLHNhbnMtU2VyaWYiIHk9Ii00MzAiIHg9IjIwMTkiIHRleHQtYW5jaG9yPSJtaWRkbGUiPlNldHMgQnVzIFZvbHVtZXM8L3RleHQ+JiN4YTs8L2c+JiN4YTsmI3hhOzxnIGNsYXNzPSJlZGdlIiBpZD0iZWRnZTI2Ij4mI3hhOzx0aXRsZT5BU1BfUG9vbC0mZ3Q7QXVkaW9Bc3NldHM8L3RpdGxlPiYjeGE7PHBhdGggZD0iTTEyOTMuNSwtNjkzLjM1QzEyOTMuNSwtNjkyLjUgMTI5My41LC02OTIgMTI5My41LC02OTIgMTI5My41LC02OTIgMTY5NS4yOSwtNjkyIDE2OTUuMjksLTY5MiIgc3Ryb2tlPSJibGFjayIgZmlsbD0ibm9uZSIvPiYjeGE7PHBvbHlnb24gcG9pbnRzPSIxNjk1LjI5LC02OTUuNSAxNzA1LjI5LC02OTIgMTY5NS4yOSwtNjg4LjUgMTY5NS4yOSwtNjk1LjUiIHN0cm9rZT0iYmxhY2siIGZpbGw9ImJsYWNrIi8+JiN4YTs8dGV4dCBmb250LXNpemU9IjEwLjAwIiBmb250LWZhbWlseT0iSGVsdmV0aWNhLHNhbnMtU2VyaWYiIHk9Ii04MDQiIHg9IjEzODgiIHRleHQtYW5jaG9yPSJtaWRkbGUiPlVzZXM8L3RleHQ+JiN4YTs8L2c+JiN4YTsmI3hhOzxnIGNsYXNzPSJub2RlIiBpZD0ibm9kZTIxIj4mI3hhOzx0aXRsZT5CdXNfVUk8L3RpdGxlPiYjeGE7PHBvbHlnb24gcG9pbnRzPSIxMjc3LC01MjggMTI3NCwtNTMyIDEyNTMsLTUzMiAxMjUwLC01MjggMTIyMywtNTI4IDEyMjMsLTQ5MiAxMjc3LC00OTIgMTI3NywtNTI4IiBzdHJva2U9ImJsYWNrIiBmaWxsPSJvcmFuZ2UiLz4mI3hhOzx0ZXh0IGZvbnQtc2l6ZT0iMTQuMDAiIGZvbnQtZmFtaWx5PSJIZWx2ZXRpY2Esc2Fucy1TZXJpZiIgeT0iLTUwNi4zIiB4PSIxMjUwIiB0ZXh0LWFuY2hvcj0ibWlkZGxlIj5VSTwvdGV4dD4mI3hhOzwvZz4mI3hhOyYjeGE7PGcgY2xhc3M9ImVkZ2UiIGlkPSJlZGdlMzIiPiYjeGE7PHRpdGxlPkFTUF9Qb29sLSZndDtCdXNfVUk8L3RpdGxlPiYjeGE7PHBhdGggZD0iTTEyNTAsLTY5My40NUMxMjUwLC02OTMuNDUgMTI1MCwtNTM4LjI3IDEyNTAsLTUzOC4yNyIgc3Ryb2tlLWRhc2hhcnJheT0iNSwyIiBzdHJva2U9ImJsdWUiIGZpbGw9Im5vbmUiLz4mI3hhOzxwb2x5Z29uIHBvaW50cz0iMTI1My41LC01MzguMjcgMTI1MCwtNTI4LjI3IDEyNDYuNSwtNTM4LjI3IDEyNTMuNSwtNTM4LjI3IiBzdHJva2U9ImJsdWUiIGZpbGw9ImJsdWUiLz4mI3hhOzx0ZXh0IGZvbnQtc2l6ZT0iMTAuMDAiIGZvbnQtZmFtaWx5PSJIZWx2ZXRpY2Esc2Fucy1TZXJpZiIgeT0iLTYyNCIgeD0iMTMyNy41IiB0ZXh0LWFuY2hvcj0ibWlkZGxlIj5VSSBTRlggU3RyZWFtPC90ZXh0PiYjeGE7PC9nPiYjeGE7JiN4YTs8ZyBjbGFzcz0iZWRnZSIgaWQ9ImVkZ2UyNyI+JiN4YTs8dGl0bGU+QVNQM0RfUG9vbC0mZ3Q7QXVkaW9Bc3NldHM8L3RpdGxlPiYjeGE7PHBhdGggZD0iTTk2MS41LC02OTMuM0M5NjEuNSwtNjkxLjg5IDk2MS41LC02OTEgOTYxLjUsLTY5MSA5NjEuNSwtNjkxIDE2OTUuMTEsLTY5MSAxNjk1LjExLC02OTEiIHN0cm9rZT0iYmxhY2siIGZpbGw9Im5vbmUiLz4mI3hhOzxwb2x5Z29uIHBvaW50cz0iMTY5NS4xMSwtNjk0LjUgMTcwNS4xMSwtNjkxIDE2OTUuMTEsLTY4Ny41IDE2OTUuMTEsLTY5NC41IiBzdHJva2U9ImJsYWNrIiBmaWxsPSJibGFjayIvPiYjeGE7PHRleHQgZm9udC1zaXplPSIxMC4wMCIgZm9udC1mYW1pbHk9IkhlbHZldGljYSxzYW5zLVNlcmlmIiB5PSItODA0IiB4PSIxMzU1IiB0ZXh0LWFuY2hvcj0ibWlkZGxlIj5Vc2VzPC90ZXh0PiYjeGE7PC9nPiYjeGE7JiN4YTs8ZyBjbGFzcz0ibm9kZSIgaWQ9Im5vZGUyMiI+JiN4YTs8dGl0bGU+QnVzX1BsYXllcjwvdGl0bGU+JiN4YTs8cG9seWdvbiBwb2ludHM9IjEwNTIuNSwtNTI4IDEwNDkuNSwtNTMyIDEwMjguNSwtNTMyIDEwMjUuNSwtNTI4IDk5My41LC01MjggOTkzLjUsLTQ5MiAxMDUyLjUsLTQ5MiAxMDUyLjUsLTUyOCIgc3Ryb2tlPSJibGFjayIgZmlsbD0ib3JhbmdlIi8+JiN4YTs8dGV4dCBmb250LXNpemU9IjE0LjAwIiBmb250LWZhbWlseT0iSGVsdmV0aWNhLHNhbnMtU2VyaWYiIHk9Ii01MDYuMyIgeD0iMTAyMyIgdGV4dC1hbmNob3I9Im1pZGRsZSI+UGxheWVyPC90ZXh0PiYjeGE7PC9nPiYjeGE7JiN4YTs8ZyBjbGFzcz0iZWRnZSIgaWQ9ImVkZ2UzNyI+JiN4YTs8dGl0bGU+QVNQM0RfUG9vbC0mZ3Q7QnVzX1BsYXllcjwvdGl0bGU+JiN4YTs8cGF0aCBkPSJNMTAyMC41LC02OTMuNDVDMTAyMC41LC02OTMuNDUgMTAyMC41LC01MzguMjcgMTAyMC41LC01MzguMjciIHN0cm9rZS1kYXNoYXJyYXk9IjUsMiIgc3Ryb2tlPSJibHVlIiBmaWxsPSJub25lIi8+JiN4YTs8cG9seWdvbiBwb2ludHM9IjEwMjQsLTUzOC4yNyAxMDIwLjUsLTUyOC4yNyAxMDE3LC01MzguMjcgMTAyNCwtNTM4LjI3IiBzdHJva2U9ImJsdWUiIGZpbGw9ImJsdWUiLz4mI3hhOzx0ZXh0IGZvbnQtc2l6ZT0iMTAuMDAiIGZvbnQtZmFtaWx5PSJIZWx2ZXRpY2Esc2Fucy1TZXJpZiIgeT0iLTYyNCIgeD0iMTA5OC41IiB0ZXh0LWFuY2hvcj0ibWlkZGxlIj5QbGF5ZXIgU0ZYPC90ZXh0PiYjeGE7PC9nPiYjeGE7JiN4YTs8ZyBjbGFzcz0ibm9kZSIgaWQ9Im5vZGUyMyI+JiN4YTs8dGl0bGU+QnVzX0JhbGw8L3RpdGxlPiYjeGE7PHBvbHlnb24gcG9pbnRzPSIxMTY1LC01MjggMTE2MiwtNTMyIDExNDEsLTUzMiAxMTM4LC01MjggMTExMSwtNTI4IDExMTEsLTQ5MiAxMTY1LC00OTIgMTE2NSwtNTI4IiBzdHJva2U9ImJsYWNrIiBmaWxsPSJvcmFuZ2UiLz4mI3hhOzx0ZXh0IGZvbnQtc2l6ZT0iMTQuMDAiIGZvbnQtZmFtaWx5PSJIZWx2ZXRpY2Esc2Fucy1TZXJpZiIgeT0iLTUwNi4zIiB4PSIxMTM4IiB0ZXh0LWFuY2hvcj0ibWlkZGxlIj5CYWxsPC90ZXh0PiYjeGE7PC9nPiYjeGE7JiN4YTs8ZyBjbGFzcz0iZWRnZSIgaWQ9ImVkZ2UzOCI+JiN4YTs8dGl0bGU+QVNQM0RfUG9vbC0mZ3Q7QnVzX0JhbGw8L3RpdGxlPiYjeGE7PHBhdGggZD0iTTEwMzQuMDcsLTcxMkMxMDU2Ljc5LC03MTIgMTA3NCwtNzEyIDEwNzQsLTcxMiAxMDc0LC03MTIgMTA3NCwtNTEwIDEwNzQsLTUxMCAxMDc0LC01MTAgMTEwMC44NiwtNTEwIDExMDAuODYsLTUxMCIgc3Ryb2tlLWRhc2hhcnJheT0iNSwyIiBzdHJva2U9ImJsdWUiIGZpbGw9Im5vbmUiLz4mI3hhOzxwb2x5Z29uIHBvaW50cz0iMTEwMC44NiwtNTEzLjUgMTExMC44NiwtNTEwIDExMDAuODYsLTUwNi41IDExMDAuODYsLTUxMy41IiBzdHJva2U9ImJsdWUiIGZpbGw9ImJsdWUiLz4mI3hhOzx0ZXh0IGZvbnQtc2l6ZT0iMTAuMDAiIGZvbnQtZmFtaWx5PSJIZWx2ZXRpY2Esc2Fucy1TZXJpZiIgeT0iLTYyNCIgeD0iMTIwOC41IiB0ZXh0LWFuY2hvcj0ibWlkZGxlIj5CYWxsIFNGWDwvdGV4dD4mI3hhOzwvZz4mI3hhOyYjeGE7PGcgY2xhc3M9Im5vZGUiIGlkPSJub2RlMjQiPiYjeGE7PHRpdGxlPkJ1c19BYmlsaXR5PC90aXRsZT4mI3hhOzxwb2x5Z29uIHBvaW50cz0iODIzLC01MjggODIwLC01MzIgNzk5LC01MzIgNzk2LC01MjggNzYzLC01MjggNzYzLC00OTIgODIzLC00OTIgODIzLC01MjgiIHN0cm9rZT0iYmxhY2siIGZpbGw9Im9yYW5nZSIvPiYjeGE7PHRleHQgZm9udC1zaXplPSIxNC4wMCIgZm9udC1mYW1pbHk9IkhlbHZldGljYSxzYW5zLVNlcmlmIiB5PSItNTA2LjMiIHg9Ijc5MyIgdGV4dC1hbmNob3I9Im1pZGRsZSI+QWJpbGl0eTwvdGV4dD4mI3hhOzwvZz4mI3hhOyYjeGE7PGcgY2xhc3M9ImVkZ2UiIGlkPSJlZGdlMzkiPiYjeGE7PHRpdGxlPkFTUDNEX1Bvb2wtJmd0O0J1c19BYmlsaXR5PC90aXRsZT4mI3hhOzxwYXRoIGQ9Ik04MTkuNSwtNjkzLjQ1QzgxOS41LC02OTMuNDUgODE5LjUsLTUzOC4yNyA4MTkuNSwtNTM4LjI3IiBzdHJva2UtZGFzaGFycmF5PSI1LDIiIHN0cm9rZT0iYmx1ZSIgZmlsbD0ibm9uZSIvPiYjeGE7PHBvbHlnb24gcG9pbnRzPSI4MjMsLTUzOC4yNyA4MTkuNSwtNTI4LjI3IDgxNiwtNTM4LjI3IDgyMywtNTM4LjI3IiBzdHJva2U9ImJsdWUiIGZpbGw9ImJsdWUiLz4mI3hhOzx0ZXh0IGZvbnQtc2l6ZT0iMTAuMDAiIGZvbnQtZmFtaWx5PSJIZWx2ZXRpY2Esc2Fucy1TZXJpZiIgeT0iLTYyNCIgeD0iNjU5IiB0ZXh0LWFuY2hvcj0ibWlkZGxlIj5BYmlsaXR5IFNGWDwvdGV4dD4mI3hhOzwvZz4mI3hhOyYjeGE7PGcgY2xhc3M9Im5vZGUiIGlkPSJub2RlMjUiPiYjeGE7PHRpdGxlPkJ1c19FbnY8L3RpdGxlPiYjeGE7PHBvbHlnb24gcG9pbnRzPSI5MzUsLTUyOCA5MzIsLTUzMiA5MTEsLTUzMiA5MDgsLTUyOCA4ODEsLTUyOCA4ODEsLTQ5MiA5MzUsLTQ5MiA5MzUsLTUyOCIgc3Ryb2tlPSJibGFjayIgZmlsbD0ib3JhbmdlIi8+JiN4YTs8dGV4dCBmb250LXNpemU9IjE0LjAwIiBmb250LWZhbWlseT0iSGVsdmV0aWNhLHNhbnMtU2VyaWYiIHk9Ii01MDYuMyIgeD0iOTA4IiB0ZXh0LWFuY2hvcj0ibWlkZGxlIj5FbnY8L3RleHQ+JiN4YTs8L2c+JiN4YTsmI3hhOzxnIGNsYXNzPSJlZGdlIiBpZD0iZWRnZTQwIj4mI3hhOzx0aXRsZT5BU1AzRF9Qb29sLSZndDtCdXNfRW52PC90aXRsZT4mI3hhOzxwYXRoIGQ9Ik05MTcsLTY5My40NUM5MTcsLTY5My40NSA5MTcsLTUzOC4yNyA5MTcsLTUzOC4yNyIgc3Ryb2tlLWRhc2hhcnJheT0iNSwyIiBzdHJva2U9ImJsdWUiIGZpbGw9Im5vbmUiLz4mI3hhOzxwb2x5Z29uIHBvaW50cz0iOTIwLjUsLTUzOC4yNyA5MTcsLTUyOC4yNyA5MTMuNSwtNTM4LjI3IDkyMC41LC01MzguMjciIHN0cm9rZT0iYmx1ZSIgZmlsbD0iYmx1ZSIvPiYjeGE7PHRleHQgZm9udC1zaXplPSIxMC4wMCIgZm9udC1mYW1pbHk9IkhlbHZldGljYSxzYW5zLVNlcmlmIiB5PSItNjI0IiB4PSI4ODUiIHRleHQtYW5jaG9yPSJtaWRkbGUiPkVudiBTRlg8L3RleHQ+JiN4YTs8L2c+JiN4YTsmI3hhOzxnIGNsYXNzPSJlZGdlIiBpZD0iZWRnZTI4Ij4mI3hhOzx0aXRsZT5BU1BfQXR0YWNoZWQtJmd0O0F1ZGlvQXNzZXRzPC90aXRsZT4mI3hhOzxwYXRoIGQ9Ik0xNTkwLjMyLC03MTJDMTU5MC4zMiwtNzEyIDE2OTUuMzUsLTcxMiAxNjk1LjM1LC03MTIiIHN0cm9rZT0iYmxhY2siIGZpbGw9Im5vbmUiLz4mI3hhOzxwb2x5Z29uIHBvaW50cz0iMTY5NS4zNSwtNzE1LjUgMTcwNS4zNSwtNzEyIDE2OTUuMzUsLTcwOC41IDE2OTUuMzUsLTcxNS41IiBzdHJva2U9ImJsYWNrIiBmaWxsPSJibGFjayIvPiYjeGE7PC9nPiYjeGE7JiN4YTs8ZyBjbGFzcz0ibm9kZSIgaWQ9Im5vZGUxOSI+JiN4YTs8dGl0bGU+QnVzX011c2ljPC90aXRsZT4mI3hhOzxwb2x5Z29uIHBvaW50cz0iMTI1MywtMzcyLjUgMTI1MCwtMzc2LjUgMTIyOSwtMzc2LjUgMTIyNiwtMzcyLjUgMTE5NywtMzcyLjUgMTE5NywtMzM2LjUgMTI1MywtMzM2LjUgMTI1MywtMzcyLjUiIHN0cm9rZT0iYmxhY2siIGZpbGw9Im9yYW5nZSIvPiYjeGE7PHRleHQgZm9udC1zaXplPSIxNC4wMCIgZm9udC1mYW1pbHk9IkhlbHZldGljYSxzYW5zLVNlcmlmIiB5PSItMzUwLjgiIHg9IjEyMjUiIHRleHQtYW5jaG9yPSJtaWRkbGUiPk11c2ljPC90ZXh0PiYjeGE7PC9nPiYjeGE7JiN4YTs8ZyBjbGFzcz0iZWRnZSIgaWQ9ImVkZ2UzMCI+JiN4YTs8dGl0bGU+QVNQX0F0dGFjaGVkLSZndDtCdXNfTXVzaWM8L3RpdGxlPiYjeGE7PHBhdGggZD0iTTE1MTYsLTY5My4yM0MxNTE2LC02MTguNzYgMTUxNiwtMzU0IDE1MTYsLTM1NCAxNTE2LC0zNTQgMTI2My4xNywtMzU0IDEyNjMuMTcsLTM1NCIgc3Ryb2tlLWRhc2hhcnJheT0iNSwyIiBzdHJva2U9ImJsdWUiIGZpbGw9Im5vbmUiLz4mI3hhOzxwb2x5Z29uIHBvaW50cz0iMTI2My4xNywtMzUwLjUgMTI1My4xNywtMzU0IDEyNjMuMTcsLTM1Ny41IDEyNjMuMTcsLTM1MC41IiBzdHJva2U9ImJsdWUiIGZpbGw9ImJsdWUiLz4mI3hhOzx0ZXh0IGZvbnQtc2l6ZT0iMTAuMDAiIGZvbnQtZmFtaWx5PSJIZWx2ZXRpY2Esc2Fucy1TZXJpZiIgeT0iLTUwNy41IiB4PSIxNTY1LjUiIHRleHQtYW5jaG9yPSJtaWRkbGUiPk11c2ljIFN0cmVhbTwvdGV4dD4mI3hhOzwvZz4mI3hhOyYjeGE7PGcgY2xhc3M9ImVkZ2UiIGlkPSJlZGdlMzEiPiYjeGE7PHRpdGxlPkFTUF9BdHRhY2hlZC0mZ3Q7QnVzX1VJPC90aXRsZT4mI3hhOzxwYXRoIGQ9Ik0xNDQyLC02OTMuNDVDMTQ0MiwtNjQzLjA0IDE0NDIsLTUxMCAxNDQyLC01MTAgMTQ0MiwtNTEwIDEyODcuMSwtNTEwIDEyODcuMSwtNTEwIiBzdHJva2UtZGFzaGFycmF5PSI1LDIiIHN0cm9rZT0iYmx1ZSIgZmlsbD0ibm9uZSIvPiYjeGE7PHBvbHlnb24gcG9pbnRzPSIxMjg3LjEsLTUwNi41IDEyNzcuMSwtNTEwIDEyODcuMSwtNTEzLjUgMTI4Ny4xLC01MDYuNSIgc3Ryb2tlPSJibHVlIiBmaWxsPSJibHVlIi8+JiN4YTs8dGV4dCBmb250LXNpemU9IjEwLjAwIiBmb250LWZhbWlseT0iSGVsdmV0aWNhLHNhbnMtU2VyaWYiIHk9Ii02MjQiIHg9IjE0NjEuNSIgdGV4dC1hbmNob3I9Im1pZGRsZSI+VUkgU0ZYIFN0cmVhbTwvdGV4dD4mI3hhOzwvZz4mI3hhOyYjeGE7PGcgY2xhc3M9ImVkZ2UiIGlkPSJlZGdlMjkiPiYjeGE7PHRpdGxlPkFTUDNEX0F0dGFjaGVkLSZndDtBdWRpb0Fzc2V0czwvdGl0bGU+JiN4YTs8cGF0aCBkPSJNNTk2LjY3LC03MzEuN0M1OTYuNjcsLTczMy4xMSA1OTYuNjcsLTczNCA1OTYuNjcsLTczNCA1OTYuNjcsLTczNCAxNjk1LjM2LC03MzQgMTY5NS4zNiwtNzM0IiBzdHJva2U9ImJsYWNrIiBmaWxsPSJub25lIi8+JiN4YTs8cG9seWdvbiBwb2ludHM9IjE2OTUuMzYsLTczNy41IDE3MDUuMzYsLTczNCAxNjk1LjM2LC03MzAuNSAxNjk1LjM2LC03MzcuNSIgc3Ryb2tlPSJibGFjayIgZmlsbD0iYmxhY2siLz4mI3hhOzx0ZXh0IGZvbnQtc2l6ZT0iMTAuMDAiIGZvbnQtZmFtaWx5PSJIZWx2ZXRpY2Esc2Fucy1TZXJpZiIgeT0iLTgwNCIgeD0iMTI4NiIgdGV4dC1hbmNob3I9Im1pZGRsZSI+VXNlczwvdGV4dD4mI3hhOzwvZz4mI3hhOyYjeGE7PGcgY2xhc3M9ImVkZ2UiIGlkPSJlZGdlMzMiPiYjeGE7PHRpdGxlPkFTUDNEX0F0dGFjaGVkLSZndDtCdXNfUGxheWVyPC90aXRsZT4mI3hhOzxwYXRoIGQ9Ik02MzcsLTY5My4yQzYzNywtNjkwLjE2IDYzNywtNjg4IDYzNywtNjg4IDYzNywtNjg4IDEwMDcsLTY4OCAxMDA3LC02ODggMTAwNywtNjg4IDEwMDcsLTUzOC4wNSAxMDA3LC01MzguMDUiIHN0cm9rZS1kYXNoYXJyYXk9IjUsMiIgc3Ryb2tlPSJibHVlIiBmaWxsPSJub25lIi8+JiN4YTs8cG9seWdvbiBwb2ludHM9IjEwMTAuNSwtNTM4LjA1IDEwMDcsLTUyOC4wNSAxMDAzLjUsLTUzOC4wNSAxMDEwLjUsLTUzOC4wNSIgc3Ryb2tlPSJibHVlIiBmaWxsPSJibHVlIi8+JiN4YTs8dGV4dCBmb250LXNpemU9IjEwLjAwIiBmb250LWZhbWlseT0iSGVsdmV0aWNhLHNhbnMtU2VyaWYiIHk9Ii02MjQiIHg9Ijc3NS41IiB0ZXh0LWFuY2hvcj0ibWlkZGxlIj5QbGF5ZXIgU0ZYPC90ZXh0PiYjeGE7PC9nPiYjeGE7JiN4YTs8ZyBjbGFzcz0iZWRnZSIgaWQ9ImVkZ2UzNCI+JiN4YTs8dGl0bGU+QVNQM0RfQXR0YWNoZWQtJmd0O0J1c19CYWxsPC90aXRsZT4mI3hhOzxwYXRoIGQ9Ik02OTcuNSwtNjkzLjA5QzY5Ny41LC02OTAuNjYgNjk3LjUsLTY4OSA2OTcuNSwtNjg5IDY5Ny41LC02ODkgMTEzOCwtNjg5IDExMzgsLTY4OSAxMTM4LC02ODkgMTEzOCwtNTM4LjE1IDExMzgsLTUzOC4xNSIgc3Ryb2tlLWRhc2hhcnJheT0iNSwyIiBzdHJva2U9ImJsdWUiIGZpbGw9Im5vbmUiLz4mI3hhOzxwb2x5Z29uIHBvaW50cz0iMTE0MS41LC01MzguMTUgMTEzOCwtNTI4LjE1IDExMzQuNSwtNTM4LjE1IDExNDEuNSwtNTM4LjE1IiBzdHJva2U9ImJsdWUiIGZpbGw9ImJsdWUiLz4mI3hhOzx0ZXh0IGZvbnQtc2l6ZT0iMTAuMDAiIGZvbnQtZmFtaWx5PSJIZWx2ZXRpY2Esc2Fucy1TZXJpZiIgeT0iLTYyNCIgeD0iOTg4LjUiIHRleHQtYW5jaG9yPSJtaWRkbGUiPkJhbGwgU0ZYPC90ZXh0PiYjeGE7PC9nPiYjeGE7JiN4YTs8ZyBjbGFzcz0iZWRnZSIgaWQ9ImVkZ2UzNSI+JiN4YTs8dGl0bGU+QVNQM0RfQXR0YWNoZWQtJmd0O0J1c19BYmlsaXR5PC90aXRsZT4mI3hhOzxwYXRoIGQ9Ik03NTguMjcsLTcxMkM3NzYuNTgsLTcxMiA3ODkuNSwtNzEyIDc4OS41LC03MTIgNzg5LjUsLTcxMiA3ODkuNSwtNTM4LjI4IDc4OS41LC01MzguMjgiIHN0cm9rZS1kYXNoYXJyYXk9IjUsMiIgc3Ryb2tlPSJibHVlIiBmaWxsPSJub25lIi8+JiN4YTs8cG9seWdvbiBwb2ludHM9Ijc5MywtNTM4LjI4IDc4OS41LC01MjguMjggNzg2LC01MzguMjggNzkzLC01MzguMjgiIHN0cm9rZT0iYmx1ZSIgZmlsbD0iYmx1ZSIvPiYjeGE7PHRleHQgZm9udC1zaXplPSIxMC4wMCIgZm9udC1mYW1pbHk9IkhlbHZldGljYSxzYW5zLVNlcmlmIiB5PSItNjI0IiB4PSI0MzkiIHRleHQtYW5jaG9yPSJtaWRkbGUiPkFiaWxpdHkgU0ZYPC90ZXh0PiYjeGE7PC9nPiYjeGE7JiN4YTs8ZyBjbGFzcz0iZWRnZSIgaWQ9ImVkZ2UzNiI+JiN4YTs8dGl0bGU+QVNQM0RfQXR0YWNoZWQtJmd0O0J1c19FbnY8L3RpdGxlPiYjeGE7PHBhdGggZD0iTTU3Ni41LC02OTMuNDNDNTc2LjUsLTY4OS43NSA1NzYuNSwtNjg3IDU3Ni41LC02ODcgNTc2LjUsLTY4NyA4OTksLTY4NyA4OTksLTY4NyA4OTksLTY4NyA4OTksLTUzOC4yOCA4OTksLTUzOC4yOCIgc3Ryb2tlLWRhc2hhcnJheT0iNSwyIiBzdHJva2U9ImJsdWUiIGZpbGw9Im5vbmUiLz4mI3hhOzxwb2x5Z29uIHBvaW50cz0iOTAyLjUsLTUzOC4yOCA4OTksLTUyOC4yOCA4OTUuNSwtNTM4LjI4IDkwMi41LC01MzguMjgiIHN0cm9rZT0iYmx1ZSIgZmlsbD0iYmx1ZSIvPiYjeGE7PHRleHQgZm9udC1zaXplPSIxMC4wMCIgZm9udC1mYW1pbHk9IkhlbHZldGljYSxzYW5zLVNlcmlmIiB5PSItNjI0IiB4PSI1NDkiIHRleHQtYW5jaG9yPSJtaWRkbGUiPkVudiBTRlg8L3RleHQ+JiN4YTs8L2c+JiN4YTsmI3hhOzxnIGNsYXNzPSJub2RlIiBpZD0ibm9kZTE4Ij4mI3hhOzx0aXRsZT5CdXNfTWFzdGVyPC90aXRsZT4mI3hhOzxwb2x5Z29uIHBvaW50cz0iMTIwMSwtMjE3IDExOTgsLTIyMSAxMTc3LC0yMjEgMTE3NCwtMjE3IDExMzcsLTIxNyAxMTM3LC0xODEgMTIwMSwtMTgxIDEyMDEsLTIxNyIgc3Ryb2tlPSJibGFjayIgZmlsbD0ib3JhbmdlIi8+JiN4YTs8dGV4dCBmb250LXNpemU9IjE0LjAwIiBmb250LWZhbWlseT0iSGVsdmV0aWNhLHNhbnMtU2VyaWYiIHk9Ii0xOTUuMyIgeD0iMTE2OSIgdGV4dC1hbmNob3I9Im1pZGRsZSI+TWFzdGVyPC90ZXh0PiYjeGE7PC9nPiYjeGE7JiN4YTs8ZyBjbGFzcz0iZWRnZSIgaWQ9ImVkZ2UxNCI+JiN4YTs8dGl0bGU+QnVzX01hc3Rlci0mZ3Q7QXVkaW9TZXJ2ZXI8L3RpdGxlPiYjeGE7PHBhdGggZD0iTTExODcuNSwtMTgwLjhDMTE4Ny41LC0xODAuOCAxMTg3LjUsLTcxLjA4IDExODcuNSwtNzEuMDgiIHN0cm9rZS1kYXNoYXJyYXk9IjUsMiIgc3Ryb2tlPSJibHVlIiBmaWxsPSJub25lIi8+JiN4YTs8cG9seWdvbiBwb2ludHM9IjExOTEsLTcxLjA4IDExODcuNSwtNjEuMDggMTE4NCwtNzEuMDggMTE5MSwtNzEuMDgiIHN0cm9rZT0iYmx1ZSIgZmlsbD0iYmx1ZSIvPiYjeGE7PHRleHQgZm9udC1zaXplPSIxMC4wMCIgZm9udC1mYW1pbHk9IkhlbHZldGljYSxzYW5zLVNlcmlmIiB5PSItMTE5IiB4PSIxMjMyLjUiIHRleHQtYW5jaG9yPSJtaWRkbGUiPk91dHB1dCB0byBEZXZpY2U8L3RleHQ+JiN4YTs8L2c+JiN4YTsmI3hhOzxnIGNsYXNzPSJub2RlIiBpZD0ibm9kZTI2Ij4mI3hhOzx0aXRsZT5CdXNfRWZmZWN0czwvdGl0bGU+JiN4YTs8cG9seWdvbiBwb2ludHM9IjExMDAuNSwtNTYgOTQ1LjUsLTU2IDk0NS41LC0zMCAxMTAwLjUsLTMwIDExMTIuNSwtNDMgMTEwMC41LC01NiIgc3Ryb2tlPSJibGFjayIgZmlsbD0ibGlnaHRncmV5Ii8+JiN4YTs8dGV4dCBmb250LXNpemU9IjE0LjAwIiBmb250LWZhbWlseT0iSGVsdmV0aWNhLHNhbnMtU2VyaWYiIHk9Ii00Ni44IiB4PSIxMDI5IiB0ZXh0LWFuY2hvcj0ibWlkZGxlIj5BdWRpbyBFZmZlY3RzPC90ZXh0PiYjeGE7PHRleHQgZm9udC1zaXplPSIxNC4wMCIgZm9udC1mYW1pbHk9IkhlbHZldGljYSxzYW5zLVNlcmlmIiB5PSItMzEuOCIgeD0iMTAyOSIgdGV4dC1hbmNob3I9Im1pZGRsZSI+KFJldmVyYiwgTGltaXRlciwgZXRjLik8L3RleHQ+JiN4YTs8L2c+JiN4YTsmI3hhOzxnIGNsYXNzPSJlZGdlIiBpZD0iZWRnZTE1Ij4mI3hhOzx0aXRsZT5CdXNfTWFzdGVyLSZndDtCdXNfRWZmZWN0czwvdGl0bGU+JiN4YTs8cGF0aCBkPSJNMTEzNi44MywtMTk5QzExMTkuNDUsLTE5OSAxMTAxLjUsLTE5OSAxMTAxLjUsLTE5OSAxMTAxLjUsLTE5OSAxMTAxLjUsLTcyLjEzIDExMDEuNSwtNzIuMTMiIHN0cm9rZS1kYXNoYXJyYXk9IjEsNSIgc3Ryb2tlPSJncmV5IiBmaWxsPSJub25lIi8+JiN4YTs8cG9seWdvbiBwb2ludHM9IjExMDUsLTcyLjEzIDExMDEuNSwtNjIuMTMgMTA5OCwtNzIuMTMgMTEwNSwtNzIuMTMiIHN0cm9rZT0iZ3JleSIgZmlsbD0iZ3JleSIvPiYjeGE7PHRleHQgZm9udC1zaXplPSIxMC4wMCIgZm9udC1mYW1pbHk9IkhlbHZldGljYSxzYW5zLVNlcmlmIiB5PSItMTE5IiB4PSIxMTEyIiB0ZXh0LWFuY2hvcj0ibWlkZGxlIj5hcHBseTwvdGV4dD4mI3hhOzwvZz4mI3hhOyYjeGE7PGcgY2xhc3M9ImVkZ2UiIGlkPSJlZGdlMTMiPiYjeGE7PHRpdGxlPkJ1c19NdXNpYy0mZ3Q7QnVzX01hc3RlcjwvdGl0bGU+JiN4YTs8cGF0aCBkPSJNMTE5Ni45LC0zNDNDMTE5MC45LC0zNDMgMTE4Ni4zMywtMzQzIDExODYuMzMsLTM0MyAxMTg2LjMzLC0zNDMgMTE4Ni4zMywtMjI3LjI0IDExODYuMzMsLTIyNy4yNCIgc3Ryb2tlLWRhc2hhcnJheT0iNSwyIiBzdHJva2U9ImJsdWUiIGZpbGw9Im5vbmUiLz4mI3hhOzxwb2x5Z29uIHBvaW50cz0iMTE4OS44MywtMjI3LjI0IDExODYuMzMsLTIxNy4yNCAxMTgyLjgzLC0yMjcuMjQgMTE4OS44MywtMjI3LjI0IiBzdHJva2U9ImJsdWUiIGZpbGw9ImJsdWUiLz4mI3hhOzwvZz4mI3hhOyYjeGE7PGcgY2xhc3M9Im5vZGUiIGlkPSJub2RlMjAiPiYjeGE7PHRpdGxlPkJ1c19TRlg8L3RpdGxlPiYjeGE7PHBvbHlnb24gcG9pbnRzPSIxMDU2LC0zNzIuNSAxMDUzLC0zNzYuNSAxMDMyLC0zNzYuNSAxMDI5LC0zNzIuNSAxMDAyLC0zNzIuNSAxMDAyLC0zMzYuNSAxMDU2LC0zMzYuNSAxMDU2LC0zNzIuNSIgc3Ryb2tlPSJibGFjayIgZmlsbD0ib3JhbmdlIi8+JiN4YTs8dGV4dCBmb250LXNpemU9IjE0LjAwIiBmb250LWZhbWlseT0iSGVsdmV0aWNhLHNhbnMtU2VyaWYiIHk9Ii0zNTAuOCIgeD0iMTAyOSIgdGV4dC1hbmNob3I9Im1pZGRsZSI+U0ZYPC90ZXh0PiYjeGE7PC9nPiYjeGE7JiN4YTs8ZyBjbGFzcz0iZWRnZSIgaWQ9ImVkZ2UxMiI+JiN4YTs8dGl0bGU+QnVzX1NGWC0mZ3Q7QnVzX01hc3RlcjwvdGl0bGU+JiN4YTs8cGF0aCBkPSJNMTA1Ni4wOCwtMzUwQzEwOTIuMDIsLTM1MCAxMTUxLC0zNTAgMTE1MSwtMzUwIDExNTEsLTM1MCAxMTUxLC0yMjcuMjEgMTE1MSwtMjI3LjIxIiBzdHJva2UtZGFzaGFycmF5PSI1LDIiIHN0cm9rZT0iYmx1ZSIgZmlsbD0ibm9uZSIvPiYjeGE7PHBvbHlnb24gcG9pbnRzPSIxMTU0LjUsLTIyNy4yMSAxMTUxLC0yMTcuMjEgMTE0Ny41LC0yMjcuMjEgMTE1NC41LC0yMjcuMjEiIHN0cm9rZT0iYmx1ZSIgZmlsbD0iYmx1ZSIvPiYjeGE7PC9nPiYjeGE7JiN4YTs8ZyBjbGFzcz0iZWRnZSIgaWQ9ImVkZ2UxNiI+JiN4YTs8dGl0bGU+QnVzX1NGWC0mZ3Q7QnVzX0VmZmVjdHM8L3RpdGxlPiYjeGE7PHBhdGggZD0iTTEwMjksLTMzNi40MUMxMDI5LC0zMzYuNDEgMTAyOSwtNzIuMzMgMTAyOSwtNzIuMzMiIHN0cm9rZS1kYXNoYXJyYXk9IjEsNSIgc3Ryb2tlPSJncmV5IiBmaWxsPSJub25lIi8+JiN4YTs8cG9seWdvbiBwb2ludHM9IjEwMzIuNSwtNzIuMzMgMTAyOSwtNjIuMzMgMTAyNS41LC03Mi4zMyAxMDMyLjUsLTcyLjMzIiBzdHJva2U9ImdyZXkiIGZpbGw9ImdyZXkiLz4mI3hhOzx0ZXh0IGZvbnQtc2l6ZT0iMTAuMDAiIGZvbnQtZmFtaWx5PSJIZWx2ZXRpY2Esc2Fucy1TZXJpZiIgeT0iLTE5Ni41IiB4PSIxMDQzIiB0ZXh0LWFuY2hvcj0ibWlkZGxlIj5hcHBseTwvdGV4dD4mI3hhOzwvZz4mI3hhOyYjeGE7PGcgY2xhc3M9ImVkZ2UiIGlkPSJlZGdlNyI+JiN4YTs8dGl0bGU+QnVzX1VJLSZndDtCdXNfU0ZYPC90aXRsZT4mI3hhOzxwYXRoIGQ9Ik0xMjIyLjc0LC01MTBDMTIwMS41MywtNTEwIDExNzUuNjcsLTUxMCAxMTc1LjY3LC01MTAgMTE3NS42NywtNTEwIDExNzUuNjcsLTM1OCAxMTc1LjY3LC0zNTggMTE3NS42NywtMzU4IDEwNjYuMjQsLTM1OCAxMDY2LjI0LC0zNTgiIHN0cm9rZS1kYXNoYXJyYXk9IjUsMiIgc3Ryb2tlPSJibHVlIiBmaWxsPSJub25lIi8+JiN4YTs8cG9seWdvbiBwb2ludHM9IjEwNjYuMjQsLTM1NC41IDEwNTYuMjQsLTM1OCAxMDY2LjI0LC0zNjEuNSAxMDY2LjI0LC0zNTQuNSIgc3Ryb2tlPSJibHVlIiBmaWxsPSJibHVlIi8+JiN4YTs8L2c+JiN4YTsmI3hhOzxnIGNsYXNzPSJlZGdlIiBpZD0iZWRnZTgiPiYjeGE7PHRpdGxlPkJ1c19QbGF5ZXItJmd0O0J1c19TRlg8L3RpdGxlPiYjeGE7PHBhdGggZD0iTTEwMjcuMjUsLTQ5MS44NkMxMDI3LjI1LC00OTEuODYgMTAyNy4yNSwtMzgyLjUzIDEwMjcuMjUsLTM4Mi41MyIgc3Ryb2tlLWRhc2hhcnJheT0iNSwyIiBzdHJva2U9ImJsdWUiIGZpbGw9Im5vbmUiLz4mI3hhOzxwb2x5Z29uIHBvaW50cz0iMTAzMC43NSwtMzgyLjUzIDEwMjcuMjUsLTM3Mi41MyAxMDIzLjc1LC0zODIuNTMgMTAzMC43NSwtMzgyLjUzIiBzdHJva2U9ImJsdWUiIGZpbGw9ImJsdWUiLz4mI3hhOzwvZz4mI3hhOyYjeGE7PGcgY2xhc3M9ImVkZ2UiIGlkPSJlZGdlOSI+JiN4YTs8dGl0bGU+QnVzX0JhbGwtJmd0O0J1c19TRlg8L3RpdGxlPiYjeGE7PHBhdGggZD0iTTExMjQuNzUsLTQ5MS45M0MxMTI0Ljc1LC00NTMuMDYgMTEyNC43NSwtMzY1IDExMjQuNzUsLTM2NSAxMTI0Ljc1LC0zNjUgMTA2Ni4xOCwtMzY1IDEwNjYuMTgsLTM2NSIgc3Ryb2tlLWRhc2hhcnJheT0iNSwyIiBzdHJva2U9ImJsdWUiIGZpbGw9Im5vbmUiLz4mI3hhOzxwb2x5Z29uIHBvaW50cz0iMTA2Ni4xOCwtMzYxLjUgMTA1Ni4xOCwtMzY1IDEwNjYuMTgsLTM2OC41IDEwNjYuMTgsLTM2MS41IiBzdHJva2U9ImJsdWUiIGZpbGw9ImJsdWUiLz4mI3hhOzwvZz4mI3hhOyYjeGE7PGcgY2xhc3M9ImVkZ2UiIGlkPSJlZGdlMTAiPiYjeGE7PHRpdGxlPkJ1c19BYmlsaXR5LSZndDtCdXNfU0ZYPC90aXRsZT4mI3hhOzxwYXRoIGQ9Ik03OTMsLTQ5MS43M0M3OTMsLTQ0OS4zNiA3OTMsLTM0OCA3OTMsLTM0OCA3OTMsLTM0OCA5OTEuOTMsLTM0OCA5OTEuOTMsLTM0OCIgc3Ryb2tlLWRhc2hhcnJheT0iNSwyIiBzdHJva2U9ImJsdWUiIGZpbGw9Im5vbmUiLz4mI3hhOzxwb2x5Z29uIHBvaW50cz0iOTkxLjkzLC0zNTEuNSAxMDAxLjkzLC0zNDggOTkxLjkzLC0zNDQuNSA5OTEuOTMsLTM1MS41IiBzdHJva2U9ImJsdWUiIGZpbGw9ImJsdWUiLz4mI3hhOzwvZz4mI3hhOyYjeGE7PGcgY2xhc3M9ImVkZ2UiIGlkPSJlZGdlMTEiPiYjeGE7PHRpdGxlPkJ1c19FbnYtJmd0O0J1c19TRlg8L3RpdGxlPiYjeGE7PHBhdGggZD0iTTkwOCwtNDkxLjkxQzkwOCwtNDUyLjAxIDkwOCwtMzYwIDkwOCwtMzYwIDkwOCwtMzYwIDk5MS44NSwtMzYwIDk5MS44NSwtMzYwIiBzdHJva2UtZGFzaGFycmF5PSI1LDIiIHN0cm9rZT0iYmx1ZSIgZmlsbD0ibm9uZSIvPiYjeGE7PHBvbHlnb24gcG9pbnRzPSI5OTEuODUsLTM2My41IDEwMDEuODUsLTM2MCA5OTEuODUsLTM1Ni41IDk5MS44NSwtMzYzLjUiIHN0cm9rZT0iYmx1ZSIgZmlsbD0iYmx1ZSIvPiYjeGE7PC9nPiYjeGE7JiN4YTs8ZyBjbGFzcz0iZWRnZSIgaWQ9ImVkZ2UxNyI+JiN4YTs8dGl0bGU+QnVzX0Vudi0mZ3Q7QnVzX0VmZmVjdHM8L3RpdGxlPiYjeGE7PHBhdGggZD0iTTkzNS4wNywtNTEwQzk1NC41OCwtNTEwIDk3Ny41LC01MTAgOTc3LjUsLTUxMCA5NzcuNSwtNTEwIDk3Ny41LC03Mi4xOCA5NzcuNSwtNzIuMTgiIHN0cm9rZS1kYXNoYXJyYXk9IjEsNSIgc3Ryb2tlPSJncmV5IiBmaWxsPSJub25lIi8+JiN4YTs8cG9seWdvbiBwb2ludHM9Ijk4MSwtNzIuMTggOTc3LjUsLTYyLjE4IDk3NCwtNzIuMTggOTgxLC03Mi4xOCIgc3Ryb2tlPSJncmV5IiBmaWxsPSJncmV5Ii8+JiN4YTs8dGV4dCBmb250LXNpemU9IjEwLjAwIiBmb250LWZhbWlseT0iSGVsdmV0aWNhLHNhbnMtU2VyaWYiIHk9Ii0yNzQiIHg9IjkyNCIgdGV4dC1hbmNob3I9Im1pZGRsZSI+YXBwbHk8L3RleHQ+JiN4YTs8L2c+JiN4YTs8L2c+JiN4YTs8L3N2Zz4=;" vertex="1" parent="1">
          <mxGeometry x="-2490" y="-1790" width="1200" height="700" as="geometry" />
        </mxCell>
        <mxCell id="Ni-ygV4cIkI_FydpOJnQ-458" value="" style="shape=image;verticalLabelPosition=bottom;labelBackgroundColor=default;verticalAlign=top;aspect=fixed;imageAspect=0;editableCssRules=.*;image=data:image/svg+xml,PHN2ZyB4bWxuczp4bGluaz0iaHR0cDovL3d3dy53My5vcmcvMTk5OS94bGluayIgeG1sbnM9Imh0dHA6Ly93d3cudzMub3JnLzIwMDAvc3ZnIiB2aWV3Qm94PSIwIDAgMjA3MSAxMjA4IiBoZWlnaHQ9IjEyMDgiIHdpZHRoPSIyMDcxIj4mI3hhOzxnIHRyYW5zZm9ybT0ic2NhbGUoMSAxKSByb3RhdGUoMCkgdHJhbnNsYXRlKDQgMTIwNCkiIGNsYXNzPSJncmFwaCIgaWQ9ImdyYXBoMCI+JiN4YTs8dGl0bGU+U291bmRTeXN0ZW1BcmNoaXRlY3R1cmU8L3RpdGxlPiYjeGE7PHBvbHlnb24gcG9pbnRzPSItNCw0IC00LC0xMjA0IDIwNjcsLTEyMDQgMjA2Nyw0IC00LDQiIHN0cm9rZT0idHJhbnNwYXJlbnQiIGZpbGw9IndoaXRlIi8+JiN4YTs8ZyBjbGFzcz0iY2x1c3RlciIgaWQ9ImNsdXN0MSI+JiN4YTs8dGl0bGU+Y2x1c3Rlcl9rZXk8L3RpdGxlPiYjeGE7PHBvbHlnb24gcG9pbnRzPSI4LC0zMjggOCwtMTE5MSAzNDYsLTExOTEgMzQ2LC0zMjggOCwtMzI4IiBzdHJva2U9ImJsYWNrIiBmaWxsPSJpdm9yeSIvPiYjeGE7PHRleHQgZm9udC1zaXplPSIxNC4wMCIgZm9udC1mYW1pbHk9IlRpbWVzLHNlcmlmIiB5PSItMTE3NS44IiB4PSIxNzciIHRleHQtYW5jaG9yPSJtaWRkbGUiPktleTwvdGV4dD4mI3hhOzwvZz4mI3hhOzxnIGNsYXNzPSJjbHVzdGVyIiBpZD0iY2x1c3QyIj4mI3hhOzx0aXRsZT5jbHVzdGVyX2dhbWVwbGF5PC90aXRsZT4mI3hhOzxwb2x5Z29uIHBvaW50cz0iMTEwOSwtMTA5MiAxMTA5LC0xMTkyIDE1MTMsLTExOTIgMTUxMywtMTA5MiAxMTA5LC0xMDkyIiBzdHJva2U9ImJsYWNrIiBmaWxsPSJhbGljZWJsdWUiLz4mI3hhOzx0ZXh0IGZvbnQtc2l6ZT0iMTQuMDAiIGZvbnQtZmFtaWx5PSJUaW1lcyxzZXJpZiIgeT0iLTExNzYuOCIgeD0iMTMxMSIgdGV4dC1hbmNob3I9Im1pZGRsZSI+R2FtZXBsYXkgTGF5ZXI8L3RleHQ+JiN4YTs8L2c+JiN4YTs8ZyBjbGFzcz0iY2x1c3RlciIgaWQ9ImNsdXN0MyI+JiN4YTs8dGl0bGU+Y2x1c3Rlcl9hdWRpb21hbmFnZXI8L3RpdGxlPiYjeGE7PHBvbHlnb24gcG9pbnRzPSIxMjMyLC04NTggMTIzMiwtMTAyNyAxNDQyLC0xMDI3IDE0NDIsLTg1OCAxMjMyLC04NTgiIHN0cm9rZT0iYmxhY2siIGZpbGw9Im1pc3R5cm9zZSIvPiYjeGE7PHRleHQgZm9udC1zaXplPSIxNC4wMCIgZm9udC1mYW1pbHk9IlRpbWVzLHNlcmlmIiB5PSItMTAxMS44IiB4PSIxMzM3IiB0ZXh0LWFuY2hvcj0ibWlkZGxlIj5BdWRpbyBNYW5hZ2VtZW50PC90ZXh0PiYjeGE7PC9nPiYjeGE7PGcgY2xhc3M9ImNsdXN0ZXIiIGlkPSJjbHVzdDQiPiYjeGE7PHRpdGxlPmNsdXN0ZXJfcGxheWJhY2s8L3RpdGxlPiYjeGE7PHBvbHlnb24gcG9pbnRzPSI1MDgsLTY4NS41IDUwOCwtNzg1LjUgMTU5OCwtNzg1LjUgMTU5OCwtNjg1LjUgNTA4LC02ODUuNSIgc3Ryb2tlPSJibGFjayIgZmlsbD0ibGlnaHRjeWFuIi8+JiN4YTs8dGV4dCBmb250LXNpemU9IjE0LjAwIiBmb250LWZhbWlseT0iVGltZXMsc2VyaWYiIHk9Ii03NzAuMyIgeD0iMTA1MyIgdGV4dC1hbmNob3I9Im1pZGRsZSI+UGxheWJhY2sgTm9kZXM8L3RleHQ+JiN4YTs8L2c+JiN4YTs8ZyBjbGFzcz0iY2x1c3RlciIgaWQ9ImNsdXN0NSI+JiN4YTs8dGl0bGU+Y2x1c3Rlcl9hc3NldHM8L3RpdGxlPiYjeGE7PHBvbHlnb24gcG9pbnRzPSIxNjk3LC02NzggMTY5NywtNzkzIDE4OTUsLTc5MyAxODk1LC02NzggMTY5NywtNjc4IiBzdHJva2U9ImJsYWNrIiBmaWxsPSJsZW1vbmNoaWZmb24iLz4mI3hhOzx0ZXh0IGZvbnQtc2l6ZT0iMTQuMDAiIGZvbnQtZmFtaWx5PSJUaW1lcyxzZXJpZiIgeT0iLTc3Ny44IiB4PSIxNzk2IiB0ZXh0LWFuY2hvcj0ibWlkZGxlIj5BdWRpbyBBc3NldHM8L3RleHQ+JiN4YTs8L2c+JiN4YTs8ZyBjbGFzcz0iY2x1c3RlciIgaWQ9ImNsdXN0NiI+JiN4YTs8dGl0bGU+Y2x1c3Rlcl9nb2RvdF9hdWRpbzwvdGl0bGU+JiN4YTs8cG9seWdvbiBwb2ludHM9Ijc0NywtOCA3NDcsLTYxMyAxMjkzLC02MTMgMTI5MywtOCA3NDcsLTgiIHN0cm9rZT0iYmxhY2siIGZpbGw9ImhvbmV5ZGV3Ii8+JiN4YTs8dGV4dCBmb250LXNpemU9IjE0LjAwIiBmb250LWZhbWlseT0iVGltZXMsc2VyaWYiIHk9Ii01OTcuOCIgeD0iMTAyMCIgdGV4dC1hbmNob3I9Im1pZGRsZSI+R29kb3QgQXVkaW8gRW5naW5lPC90ZXh0PiYjeGE7PC9nPiYjeGE7PGcgY2xhc3M9ImNsdXN0ZXIiIGlkPSJjbHVzdDciPiYjeGE7PHRpdGxlPmNsdXN0ZXJfYnVzZXM8L3RpdGxlPiYjeGE7PHBvbHlnb24gcG9pbnRzPSI3NTUsLTE2IDc1NSwtNTgyIDEyODUsLTU4MiAxMjg1LC0xNiA3NTUsLTE2IiBzdHJva2U9ImJsYWNrIiBmaWxsPSJwZWFjaHB1ZmYiLz4mI3hhOzx0ZXh0IGZvbnQtc2l6ZT0iMTQuMDAiIGZvbnQtZmFtaWx5PSJUaW1lcyxzZXJpZiIgeT0iLTU2Ni44IiB4PSIxMDIwIiB0ZXh0LWFuY2hvcj0ibWlkZGxlIj5BdWRpbyBCdXNlczwvdGV4dD4mI3hhOzwvZz4mI3hhOyYjeGE7PGcgY2xhc3M9Im5vZGUiIGlkPSJub2RlMSI+JiN4YTs8dGl0bGU+S2V5X0NvbXBvbmVudDwvdGl0bGU+JiN4YTs8cG9seWdvbiBwb2ludHM9IjMzNy41LC0xMTM3IDE4NC41LC0xMTM3IDE4NC41LC0xMTAxIDMzNy41LC0xMTAxIDMzNy41LC0xMTM3IiBzdHJva2U9ImJsYWNrIiBmaWxsPSJsaWdodGJsdWUiLz4mI3hhOzx0ZXh0IGZvbnQtc2l6ZT0iMTQuMDAiIGZvbnQtZmFtaWx5PSJIZWx2ZXRpY2Esc2Fucy1TZXJpZiIgeT0iLTExMTUuMyIgeD0iMjYxIiB0ZXh0LWFuY2hvcj0ibWlkZGxlIj5TeXN0ZW0gQ29tcG9uZW50PC90ZXh0PiYjeGE7PC9nPiYjeGE7JiN4YTs8ZyBjbGFzcz0ibm9kZSIgaWQ9Im5vZGUyIj4mI3hhOzx0aXRsZT5LZXlfTm9kZTwvdGl0bGU+JiN4YTs8cG9seWdvbiBwb2ludHM9IjMxOSwtOTM3LjUgMjIxLC05MzcuNSAyMjEsLTkzMy41IDIxNywtOTMzLjUgMjE3LC05MjkuNSAyMjEsLTkyOS41IDIyMSwtOTA5LjUgMjE3LC05MDkuNSAyMTcsLTkwNS41IDIyMSwtOTA1LjUgMjIxLC05MDEuNSAzMTksLTkwMS41IDMxOSwtOTM3LjUiIHN0cm9rZT0iYmxhY2siIGZpbGw9ImxpZ2h0Z3JlZW4iLz4mI3hhOzxwb2x5bGluZSBwb2ludHM9IjIyMSwtOTMzLjUgMjI1LC05MzMuNSAyMjUsLTkyOS41IDIyMSwtOTI5LjUiIHN0cm9rZT0iYmxhY2siIGZpbGw9Im5vbmUiLz4mI3hhOzxwb2x5bGluZSBwb2ludHM9IjIyMSwtOTA5LjUgMjI1LC05MDkuNSAyMjUsLTkwNS41IDIyMSwtOTA1LjUiIHN0cm9rZT0iYmxhY2siIGZpbGw9Im5vbmUiLz4mI3hhOzx0ZXh0IGZvbnQtc2l6ZT0iMTQuMDAiIGZvbnQtZmFtaWx5PSJIZWx2ZXRpY2Esc2Fucy1TZXJpZiIgeT0iLTkxNS44IiB4PSIyNzAiIHRleHQtYW5jaG9yPSJtaWRkbGUiPkdvZG90IE5vZGU8L3RleHQ+JiN4YTs8L2c+JiN4YTsmI3hhOyYjeGE7PGcgY2xhc3M9Im5vZGUiIGlkPSJub2RlMyI+JiN4YTs8dGl0bGU+S2V5X1Jlc291cmNlPC90aXRsZT4mI3hhOzxwb2x5Z29uIHBvaW50cz0iMzMwLC03MzAuNSAyMTQsLTczMC41IDIxNCwtNjk0LjUgMzM2LC02OTQuNSAzMzYsLTcyNC41IDMzMCwtNzMwLjUiIHN0cm9rZT0iYmxhY2siIGZpbGw9InllbGxvdyIvPiYjeGE7PHBvbHlsaW5lIHBvaW50cz0iMzMwLC03MzAuNSAzMzAsLTcyNC41IiBzdHJva2U9ImJsYWNrIiBmaWxsPSJub25lIi8+JiN4YTs8cG9seWxpbmUgcG9pbnRzPSIzMzYsLTcyNC41IDMzMCwtNzI0LjUiIHN0cm9rZT0iYmxhY2siIGZpbGw9Im5vbmUiLz4mI3hhOzx0ZXh0IGZvbnQtc2l6ZT0iMTQuMDAiIGZvbnQtZmFtaWx5PSJIZWx2ZXRpY2Esc2Fucy1TZXJpZiIgeT0iLTcwOC44IiB4PSIyNzUiIHRleHQtYW5jaG9yPSJtaWRkbGUiPlJlc291cmNlL0Fzc2V0PC90ZXh0PiYjeGE7PC9nPiYjeGE7JiN4YTsmI3hhOzxnIGNsYXNzPSJub2RlIiBpZD0ibm9kZTQiPiYjeGE7PHRpdGxlPktleV9CdXM8L3RpdGxlPiYjeGE7PHBvbHlnb24gcG9pbnRzPSIzMTUuNSwtNTI4IDMxMi41LC01MzIgMjkxLjUsLTUzMiAyODguNSwtNTI4IDIyOC41LC01MjggMjI4LjUsLTQ5MiAzMTUuNSwtNDkyIDMxNS41LC01MjgiIHN0cm9rZT0iYmxhY2siIGZpbGw9Im9yYW5nZSIvPiYjeGE7PHRleHQgZm9udC1zaXplPSIxNC4wMCIgZm9udC1mYW1pbHk9IkhlbHZldGljYSxzYW5zLVNlcmlmIiB5PSItNTA2LjMiIHg9IjI3MiIgdGV4dC1hbmNob3I9Im1pZGRsZSI+QXVkaW8gQnVzPC90ZXh0PiYjeGE7PC9nPiYjeGE7JiN4YTsmI3hhOzxnIGNsYXNzPSJub2RlIiBpZD0ibm9kZTUiPiYjeGE7PHRpdGxlPktleV9TaW5nbGV0b248L3RpdGxlPiYjeGE7PHBhdGggZD0iTTIwMiwtMzM2LjVDMjAyLC0zMzYuNSAzMjYsLTMzNi41IDMyNiwtMzM2LjUgMzMyLC0zMzYuNSAzMzgsLTM0Mi41IDMzOCwtMzQ4LjUgMzM4LC0zNDguNSAzMzgsLTM2MC41IDMzOCwtMzYwLjUgMzM4LC0zNjYuNSAzMzIsLTM3Mi41IDMyNiwtMzcyLjUgMzI2LC0zNzIuNSAyMDIsLTM3Mi41IDIwMiwtMzcyLjUgMTk2LC0zNzIuNSAxOTAsLTM2Ni41IDE5MCwtMzYwLjUgMTkwLC0zNjAuNSAxOTAsLTM0OC41IDE5MCwtMzQ4LjUgMTkwLC0zNDIuNSAxOTYsLTMzNi41IDIwMiwtMzM2LjUiIHN0cm9rZT0iYmxhY2siIGZpbGw9ImxpZ2h0Y29yYWwiLz4mI3hhOzx0ZXh0IGZvbnQtc2l6ZT0iMTQuMDAiIGZvbnQtZmFtaWx5PSJIZWx2ZXRpY2Esc2Fucy1TZXJpZiIgeT0iLTM1MC44IiB4PSIyNjQiIHRleHQtYW5jaG9yPSJtaWRkbGUiPkF1dG9sb2FkIFNpbmdsZXRvbjwvdGV4dD4mI3hhOzwvZz4mI3hhOyYjeGE7JiN4YTs8ZyBjbGFzcz0ibm9kZSIgaWQ9Im5vZGU2Ij4mI3hhOzx0aXRsZT5LZXlfRWRnZV9UcmlnZ2VyPC90aXRsZT4mI3hhOzxwb2x5Z29uIHBvaW50cz0iMTI2LC0xMTM3IDE2LC0xMTM3IDE2LC0xMTAxIDEyNiwtMTEwMSAxMjYsLTExMzciIHN0cm9rZT0iYmxhY2siIGZpbGw9Im5vbmUiLz4mI3hhOzx0ZXh0IGZvbnQtc2l6ZT0iMTQuMDAiIGZvbnQtZmFtaWx5PSJIZWx2ZXRpY2Esc2Fucy1TZXJpZiIgeT0iLTExMTUuMyIgeD0iNzEiIHRleHQtYW5jaG9yPSJtaWRkbGUiPlRyaWdnZXJzL0NhbGxzPC90ZXh0PiYjeGE7PC9nPiYjeGE7JiN4YTs8ZyBjbGFzcz0ibm9kZSIgaWQ9Im5vZGU3Ij4mI3hhOzx0aXRsZT5LZXlfRWRnZV9EYXRhRmxvdzwvdGl0bGU+JiN4YTs8cG9seWdvbiBwb2ludHM9IjE0Ny41LC05MzcuNSAxOC41LC05MzcuNSAxOC41LC05MDEuNSAxNDcuNSwtOTAxLjUgMTQ3LjUsLTkzNy41IiBzdHJva2UtZGFzaGFycmF5PSI1LDIiIHN0cm9rZT0iYmx1ZSIgZmlsbD0ibm9uZSIvPiYjeGE7PHRleHQgZm9udC1zaXplPSIxNC4wMCIgZm9udC1mYW1pbHk9IkhlbHZldGljYSxzYW5zLVNlcmlmIiB5PSItOTE1LjgiIHg9IjgzIiB0ZXh0LWFuY2hvcj0ibWlkZGxlIj5BdWRpbyBEYXRhIEZsb3c8L3RleHQ+JiN4YTs8L2c+JiN4YTsmI3hhOyYjeGE7PGcgY2xhc3M9Im5vZGUiIGlkPSJub2RlOCI+JiN4YTs8dGl0bGU+S2V5X0VkZ2VfQ29udHJvbDwvdGl0bGU+JiN4YTs8cG9seWdvbiBwb2ludHM9IjE1NiwtNzMwLjUgMTYsLTczMC41IDE2LC02OTQuNSAxNTYsLTY5NC41IDE1NiwtNzMwLjUiIHN0cm9rZS1kYXNoYXJyYXk9IjEsNSIgc3Ryb2tlPSJyZWQiIGZpbGw9Im5vbmUiLz4mI3hhOzx0ZXh0IGZvbnQtc2l6ZT0iMTQuMDAiIGZvbnQtZmFtaWx5PSJIZWx2ZXRpY2Esc2Fucy1TZXJpZiIgeT0iLTcwOC44IiB4PSI4NiIgdGV4dC1hbmNob3I9Im1pZGRsZSI+Q29udHJvbHMvTWFuYWdlczwvdGV4dD4mI3hhOzwvZz4mI3hhOyYjeGE7JiN4YTs8ZyBjbGFzcz0ibm9kZSIgaWQ9Im5vZGU5Ij4mI3hhOzx0aXRsZT5HYW1lT2JqZWN0czwvdGl0bGU+JiN4YTs8cG9seWdvbiBwb2ludHM9IjEzMzMsLTExMzggMTExNywtMTEzOCAxMTE3LC0xMTAwIDEzMzMsLTExMDAgMTMzMywtMTEzOCIgc3Ryb2tlPSJibGFjayIgZmlsbD0ibGlnaHRibHVlIi8+JiN4YTs8dGV4dCBmb250LXNpemU9IjE0LjAwIiBmb250LWZhbWlseT0iSGVsdmV0aWNhLHNhbnMtU2VyaWYiIHk9Ii0xMTIyLjgiIHg9IjEyMjUiIHRleHQtYW5jaG9yPSJtaWRkbGUiPkdhbWUgT2JqZWN0czwvdGV4dD4mI3hhOzx0ZXh0IGZvbnQtc2l6ZT0iMTQuMDAiIGZvbnQtZmFtaWx5PSJIZWx2ZXRpY2Esc2Fucy1TZXJpZiIgeT0iLTExMDcuOCIgeD0iMTIyNSIgdGV4dC1hbmNob3I9Im1pZGRsZSI+KFBsYXllciwgQmFsbCwgT2JzdGFjbGVzLCBldGMuKTwvdGV4dD4mI3hhOzwvZz4mI3hhOyYjeGE7PGcgY2xhc3M9Im5vZGUiIGlkPSJub2RlMTEiPiYjeGE7PHRpdGxlPkF1ZGlvTWFuYWdlcjwvdGl0bGU+JiN4YTs8cGF0aCBkPSJNMTI1MiwtODY2LjVDMTI1MiwtODY2LjUgMTQyMiwtODY2LjUgMTQyMiwtODY2LjUgMTQyOCwtODY2LjUgMTQzNCwtODcyLjUgMTQzNCwtODc4LjUgMTQzNCwtODc4LjUgMTQzNCwtOTYwLjUgMTQzNCwtOTYwLjUgMTQzNCwtOTY2LjUgMTQyOCwtOTcyLjUgMTQyMiwtOTcyLjUgMTQyMiwtOTcyLjUgMTI1MiwtOTcyLjUgMTI1MiwtOTcyLjUgMTI0NiwtOTcyLjUgMTI0MCwtOTY2LjUgMTI0MCwtOTYwLjUgMTI0MCwtOTYwLjUgMTI0MCwtODc4LjUgMTI0MCwtODc4LjUgMTI0MCwtODcyLjUgMTI0NiwtODY2LjUgMTI1MiwtODY2LjUiIHN0cm9rZT0iYmxhY2siIGZpbGw9ImxpZ2h0Y29yYWwiLz4mI3hhOzx0ZXh0IGZvbnQtc2l6ZT0iMTQuMDAiIGZvbnQtZmFtaWx5PSJIZWx2ZXRpY2Esc2Fucy1TZXJpZiIgeT0iLTk1Ny4zIiB4PSIxMzM3IiB0ZXh0LWFuY2hvcj0ibWlkZGxlIj5BdWRpb01hbmFnZXIgKEF1dG9sb2FkKTwvdGV4dD4mI3hhOzxwb2x5bGluZSBwb2ludHM9IjEyNDAsLTk0OS41IDE0MzQsLTk0OS41IiBzdHJva2U9ImJsYWNrIiBmaWxsPSJub25lIi8+JiN4YTs8dGV4dCBmb250LXNpemU9IjE0LjAwIiBmb250LWZhbWlseT0iSGVsdmV0aWNhLHNhbnMtU2VyaWYiIHk9Ii05MzQuMyIgeD0iMTI0OCIgdGV4dC1hbmNob3I9InN0YXJ0Ij4rIHBsYXlfc2Z4KCk8L3RleHQ+JiN4YTs8dGV4dCBmb250LXNpemU9IjE0LjAwIiBmb250LWZhbWlseT0iSGVsdmV0aWNhLHNhbnMtU2VyaWYiIHk9Ii05MTkuMyIgeD0iMTI0OCIgdGV4dC1hbmNob3I9InN0YXJ0Ij4rIHBsYXlfdWlfc2Z4KCk8L3RleHQ+JiN4YTs8dGV4dCBmb250LXNpemU9IjE0LjAwIiBmb250LWZhbWlseT0iSGVsdmV0aWNhLHNhbnMtU2VyaWYiIHk9Ii05MDQuMyIgeD0iMTI0OCIgdGV4dC1hbmNob3I9InN0YXJ0Ij4rIHBsYXlfbXVzaWMoKTwvdGV4dD4mI3hhOzx0ZXh0IGZvbnQtc2l6ZT0iMTQuMDAiIGZvbnQtZmFtaWx5PSJIZWx2ZXRpY2Esc2Fucy1TZXJpZiIgeT0iLTg4OS4zIiB4PSIxMjQ4IiB0ZXh0LWFuY2hvcj0ic3RhcnQiPisgc2V0X2J1c192b2x1bWUoKTwvdGV4dD4mI3hhOzx0ZXh0IGZvbnQtc2l6ZT0iMTQuMDAiIGZvbnQtZmFtaWx5PSJIZWx2ZXRpY2Esc2Fucy1TZXJpZiIgeT0iLTg3NC4zIiB4PSIxMjQ4IiB0ZXh0LWFuY2hvcj0ic3RhcnQiPisgbWFuYWdlX3Bvb2xzKCk8L3RleHQ+JiN4YTs8L2c+JiN4YTsmI3hhOzxnIGNsYXNzPSJlZGdlIiBpZD0iZWRnZTE4Ij4mI3hhOzx0aXRsZT5HYW1lT2JqZWN0cy0mZ3Q7QXVkaW9NYW5hZ2VyPC90aXRsZT4mI3hhOzxwYXRoIGQ9Ik0xMjg2LjUsLTEwOTkuODdDMTI4Ni41LC0xMDk5Ljg3IDEyODYuNSwtOTgyLjg4IDEyODYuNSwtOTgyLjg4IiBzdHJva2U9ImJsYWNrIiBmaWxsPSJub25lIi8+JiN4YTs8cG9seWdvbiBwb2ludHM9IjEyOTAsLTk4Mi44OCAxMjg2LjUsLTk3Mi44OCAxMjgzLC05ODIuODggMTI5MCwtOTgyLjg4IiBzdHJva2U9ImJsYWNrIiBmaWxsPSJibGFjayIvPiYjeGE7PHRleHQgZm9udC1zaXplPSIxMC4wMCIgZm9udC1mYW1pbHk9IkhlbHZldGljYSxzYW5zLVNlcmlmIiB5PSItMTAzOCIgeD0iMTI5Mi41IiB0ZXh0LWFuY2hvcj0ibWlkZGxlIj5SZXF1ZXN0IFNGWCBQbGF5YmFjazwvdGV4dD4mI3hhOzwvZz4mI3hhOyYjeGE7PGcgY2xhc3M9Im5vZGUiIGlkPSJub2RlMTAiPiYjeGE7PHRpdGxlPlVJU2NlbmVzPC90aXRsZT4mI3hhOzxwb2x5Z29uIHBvaW50cz0iMTUwNC41LC0xMTM4IDEzOTEuNSwtMTEzOCAxMzkxLjUsLTExMDAgMTUwNC41LC0xMTAwIDE1MDQuNSwtMTEzOCIgc3Ryb2tlPSJibGFjayIgZmlsbD0ibGlnaHRibHVlIi8+JiN4YTs8dGV4dCBmb250LXNpemU9IjE0LjAwIiBmb250LWZhbWlseT0iSGVsdmV0aWNhLHNhbnMtU2VyaWYiIHk9Ii0xMTIyLjgiIHg9IjE0NDgiIHRleHQtYW5jaG9yPSJtaWRkbGUiPlVJIFNjZW5lczwvdGV4dD4mI3hhOzx0ZXh0IGZvbnQtc2l6ZT0iMTQuMDAiIGZvbnQtZmFtaWx5PSJIZWx2ZXRpY2Esc2Fucy1TZXJpZiIgeT0iLTExMDcuOCIgeD0iMTQ0OCIgdGV4dC1hbmNob3I9Im1pZGRsZSI+KE1lbnVzLCBIVUQpPC90ZXh0PiYjeGE7PC9nPiYjeGE7JiN4YTs8ZyBjbGFzcz0iZWRnZSIgaWQ9ImVkZ2UxOSI+JiN4YTs8dGl0bGU+VUlTY2VuZXMtJmd0O0F1ZGlvTWFuYWdlcjwvdGl0bGU+JiN4YTs8cGF0aCBkPSJNMTQxMi43NSwtMTA5OS44N0MxNDEyLjc1LC0xMDk5Ljg3IDE0MTIuNzUsLTk4Mi44OCAxNDEyLjc1LC05ODIuODgiIHN0cm9rZT0iYmxhY2siIGZpbGw9Im5vbmUiLz4mI3hhOzxwb2x5Z29uIHBvaW50cz0iMTQxNi4yNSwtOTgyLjg4IDE0MTIuNzUsLTk3Mi44OCAxNDA5LjI1LC05ODIuODggMTQxNi4yNSwtOTgyLjg4IiBzdHJva2U9ImJsYWNrIiBmaWxsPSJibGFjayIvPiYjeGE7PHRleHQgZm9udC1zaXplPSIxMC4wMCIgZm9udC1mYW1pbHk9IkhlbHZldGljYSxzYW5zLVNlcmlmIiB5PSItMTAzOCIgeD0iMTUwMS41IiB0ZXh0LWFuY2hvcj0ibWlkZGxlIj5SZXF1ZXN0IFVJL011c2ljIFBsYXliYWNrPC90ZXh0PiYjeGE7PC9nPiYjeGE7JiN4YTs8ZyBjbGFzcz0ibm9kZSIgaWQ9Im5vZGUxMiI+JiN4YTs8dGl0bGU+QVNQX1Bvb2w8L3RpdGxlPiYjeGE7PHBvbHlnb24gcG9pbnRzPSIxMzEwLC03MzEuNSAxMDkyLC03MzEuNSAxMDkyLC03MjcuNSAxMDg4LC03MjcuNSAxMDg4LC03MjMuNSAxMDkyLC03MjMuNSAxMDkyLC03MDEuNSAxMDg4LC03MDEuNSAxMDg4LC02OTcuNSAxMDkyLC02OTcuNSAxMDkyLC02OTMuNSAxMzEwLC02OTMuNSAxMzEwLC03MzEuNSIgc3Ryb2tlPSJibGFjayIgZmlsbD0ibGlnaHRncmVlbiIvPiYjeGE7PHBvbHlsaW5lIHBvaW50cz0iMTA5MiwtNzI3LjUgMTA5NiwtNzI3LjUgMTA5NiwtNzIzLjUgMTA5MiwtNzIzLjUiIHN0cm9rZT0iYmxhY2siIGZpbGw9Im5vbmUiLz4mI3hhOzxwb2x5bGluZSBwb2ludHM9IjEwOTIsLTcwMS41IDEwOTYsLTcwMS41IDEwOTYsLTY5Ny41IDEwOTIsLTY5Ny41IiBzdHJva2U9ImJsYWNrIiBmaWxsPSJub25lIi8+JiN4YTs8dGV4dCBmb250LXNpemU9IjE0LjAwIiBmb250LWZhbWlseT0iSGVsdmV0aWNhLHNhbnMtU2VyaWYiIHk9Ii03MTYuMyIgeD0iMTIwMSIgdGV4dC1hbmNob3I9Im1pZGRsZSI+QXVkaW9TdHJlYW1QbGF5ZXIgUG9vbDwvdGV4dD4mI3hhOzx0ZXh0IGZvbnQtc2l6ZT0iMTQuMDAiIGZvbnQtZmFtaWx5PSJIZWx2ZXRpY2Esc2Fucy1TZXJpZiIgeT0iLTcwMS4zIiB4PSIxMjAxIiB0ZXh0LWFuY2hvcj0ibWlkZGxlIj4oTWFuYWdlZCBieSBBdWRpb01hbmFnZXIpPC90ZXh0PiYjeGE7PC9nPiYjeGE7JiN4YTs8ZyBjbGFzcz0iZWRnZSIgaWQ9ImVkZ2UyMCI+JiN4YTs8dGl0bGU+QXVkaW9NYW5hZ2VyLSZndDtBU1BfUG9vbDwvdGl0bGU+JiN4YTs8cGF0aCBkPSJNMTI3NSwtODY2LjQ2QzEyNzUsLTg2Ni40NiAxMjc1LC03NDEuNzIgMTI3NSwtNzQxLjcyIiBzdHJva2UtZGFzaGFycmF5PSIxLDUiIHN0cm9rZT0icmVkIiBmaWxsPSJub25lIi8+JiN4YTs8cG9seWdvbiBwb2ludHM9IjEyNzguNSwtNzQxLjcyIDEyNzUsLTczMS43MiAxMjcxLjUsLTc0MS43MiAxMjc4LjUsLTc0MS43MiIgc3Ryb2tlPSJyZWQiIGZpbGw9InJlZCIvPiYjeGE7PHRleHQgZm9udC1zaXplPSIxMC4wMCIgZm9udC1mYW1pbHk9IkhlbHZldGljYSxzYW5zLVNlcmlmIiB5PSItODA0IiB4PSIxMjI1LjUiIHRleHQtYW5jaG9yPSJtaWRkbGUiPk1hbmFnZXM8L3RleHQ+JiN4YTs8L2c+JiN4YTsmI3hhOzxnIGNsYXNzPSJub2RlIiBpZD0ibm9kZTEzIj4mI3hhOzx0aXRsZT5BU1AzRF9Qb29sPC90aXRsZT4mI3hhOzxwb2x5Z29uIHBvaW50cz0iMTAzNCwtNzMxLjUgODE2LC03MzEuNSA4MTYsLTcyNy41IDgxMiwtNzI3LjUgODEyLC03MjMuNSA4MTYsLTcyMy41IDgxNiwtNzAxLjUgODEyLC03MDEuNSA4MTIsLTY5Ny41IDgxNiwtNjk3LjUgODE2LC02OTMuNSAxMDM0LC02OTMuNSAxMDM0LC03MzEuNSIgc3Ryb2tlPSJibGFjayIgZmlsbD0ibGlnaHRncmVlbiIvPiYjeGE7PHBvbHlsaW5lIHBvaW50cz0iODE2LC03MjcuNSA4MjAsLTcyNy41IDgyMCwtNzIzLjUgODE2LC03MjMuNSIgc3Ryb2tlPSJibGFjayIgZmlsbD0ibm9uZSIvPiYjeGE7PHBvbHlsaW5lIHBvaW50cz0iODE2LC03MDEuNSA4MjAsLTcwMS41IDgyMCwtNjk3LjUgODE2LC02OTcuNSIgc3Ryb2tlPSJibGFjayIgZmlsbD0ibm9uZSIvPiYjeGE7PHRleHQgZm9udC1zaXplPSIxNC4wMCIgZm9udC1mYW1pbHk9IkhlbHZldGljYSxzYW5zLVNlcmlmIiB5PSItNzE2LjMiIHg9IjkyNSIgdGV4dC1hbmNob3I9Im1pZGRsZSI+QXVkaW9TdHJlYW1QbGF5ZXIzRCBQb29sPC90ZXh0PiYjeGE7PHRleHQgZm9udC1zaXplPSIxNC4wMCIgZm9udC1mYW1pbHk9IkhlbHZldGljYSxzYW5zLVNlcmlmIiB5PSItNzAxLjMiIHg9IjkyNSIgdGV4dC1hbmNob3I9Im1pZGRsZSI+KE1hbmFnZWQgYnkgQXVkaW9NYW5hZ2VyKTwvdGV4dD4mI3hhOzwvZz4mI3hhOyYjeGE7PGcgY2xhc3M9ImVkZ2UiIGlkPSJlZGdlMjEiPiYjeGE7PHRpdGxlPkF1ZGlvTWFuYWdlci0mZ3Q7QVNQM0RfUG9vbDwvdGl0bGU+JiN4YTs8cGF0aCBkPSJNMTIzOS44OCwtODc3QzExMTguMDgsLTg3NyA5MjUsLTg3NyA5MjUsLTg3NyA5MjUsLTg3NyA5MjUsLTc0MS42OSA5MjUsLTc0MS42OSIgc3Ryb2tlLWRhc2hhcnJheT0iMSw1IiBzdHJva2U9InJlZCIgZmlsbD0ibm9uZSIvPiYjeGE7PHBvbHlnb24gcG9pbnRzPSI5MjguNSwtNzQxLjY5IDkyNSwtNzMxLjY5IDkyMS41LC03NDEuNjkgOTI4LjUsLTc0MS42OSIgc3Ryb2tlPSJyZWQiIGZpbGw9InJlZCIvPiYjeGE7PHRleHQgZm9udC1zaXplPSIxMC4wMCIgZm9udC1mYW1pbHk9IkhlbHZldGljYSxzYW5zLVNlcmlmIiB5PSItODA0IiB4PSIxMDMzLjUiIHRleHQtYW5jaG9yPSJtaWRkbGUiPk1hbmFnZXM8L3RleHQ+JiN4YTs8L2c+JiN4YTsmI3hhOzxnIGNsYXNzPSJub2RlIiBpZD0ibm9kZTE0Ij4mI3hhOzx0aXRsZT5BU1BfQXR0YWNoZWQ8L3RpdGxlPiYjeGE7PHBvbHlnb24gcG9pbnRzPSIxNTkwLC03MzEuNSAxMzY4LC03MzEuNSAxMzY4LC03MjcuNSAxMzY0LC03MjcuNSAxMzY0LC03MjMuNSAxMzY4LC03MjMuNSAxMzY4LC03MDEuNSAxMzY0LC03MDEuNSAxMzY0LC02OTcuNSAxMzY4LC02OTcuNSAxMzY4LC02OTMuNSAxNTkwLC02OTMuNSAxNTkwLC03MzEuNSIgc3Ryb2tlPSJibGFjayIgZmlsbD0ibGlnaHRncmVlbiIvPiYjeGE7PHBvbHlsaW5lIHBvaW50cz0iMTM2OCwtNzI3LjUgMTM3MiwtNzI3LjUgMTM3MiwtNzIzLjUgMTM2OCwtNzIzLjUiIHN0cm9rZT0iYmxhY2siIGZpbGw9Im5vbmUiLz4mI3hhOzxwb2x5bGluZSBwb2ludHM9IjEzNjgsLTcwMS41IDEzNzIsLTcwMS41IDEzNzIsLTY5Ny41IDEzNjgsLTY5Ny41IiBzdHJva2U9ImJsYWNrIiBmaWxsPSJub25lIi8+JiN4YTs8dGV4dCBmb250LXNpemU9IjE0LjAwIiBmb250LWZhbWlseT0iSGVsdmV0aWNhLHNhbnMtU2VyaWYiIHk9Ii03MTYuMyIgeD0iMTQ3OSIgdGV4dC1hbmNob3I9Im1pZGRsZSI+QXR0YWNoZWQgQXVkaW9TdHJlYW1QbGF5ZXJzPC90ZXh0PiYjeGE7PHRleHQgZm9udC1zaXplPSIxNC4wMCIgZm9udC1mYW1pbHk9IkhlbHZldGljYSxzYW5zLVNlcmlmIiB5PSItNzAxLjMiIHg9IjE0NzkiIHRleHQtYW5jaG9yPSJtaWRkbGUiPihVSSwgTXVzaWMpPC90ZXh0PiYjeGE7PC9nPiYjeGE7JiN4YTs8ZyBjbGFzcz0iZWRnZSIgaWQ9ImVkZ2UyMiI+JiN4YTs8dGl0bGU+QXVkaW9NYW5hZ2VyLSZndDtBU1BfQXR0YWNoZWQ8L3RpdGxlPiYjeGE7PHBhdGggZD0iTTEzOTAsLTg2Ni40NkMxMzkwLC04NjYuNDYgMTM5MCwtNzQxLjcyIDEzOTAsLTc0MS43MiIgc3Ryb2tlLWRhc2hhcnJheT0iMSw1IiBzdHJva2U9InJlZCIgZmlsbD0ibm9uZSIvPiYjeGE7PHBvbHlnb24gcG9pbnRzPSIxMzkzLjUsLTc0MS43MiAxMzkwLC03MzEuNzIgMTM4Ni41LC03NDEuNzIgMTM5My41LC03NDEuNzIiIHN0cm9rZT0icmVkIiBmaWxsPSJyZWQiLz4mI3hhOzx0ZXh0IGZvbnQtc2l6ZT0iMTAuMDAiIGZvbnQtZmFtaWx5PSJIZWx2ZXRpY2Esc2Fucy1TZXJpZiIgeT0iLTgwNCIgeD0iMTQ5MS41IiB0ZXh0LWFuY2hvcj0ibWlkZGxlIj5NYW5hZ2VzPC90ZXh0PiYjeGE7PC9nPiYjeGE7JiN4YTs8ZyBjbGFzcz0ibm9kZSIgaWQ9Im5vZGUxNSI+JiN4YTs8dGl0bGU+QVNQM0RfQXR0YWNoZWQ8L3RpdGxlPiYjeGE7PHBvbHlnb24gcG9pbnRzPSI3NTgsLTczMS41IDUxNiwtNzMxLjUgNTE2LC03MjcuNSA1MTIsLTcyNy41IDUxMiwtNzIzLjUgNTE2LC03MjMuNSA1MTYsLTcwMS41IDUxMiwtNzAxLjUgNTEyLC02OTcuNSA1MTYsLTY5Ny41IDUxNiwtNjkzLjUgNzU4LC02OTMuNSA3NTgsLTczMS41IiBzdHJva2U9ImJsYWNrIiBmaWxsPSJsaWdodGdyZWVuIi8+JiN4YTs8cG9seWxpbmUgcG9pbnRzPSI1MTYsLTcyNy41IDUyMCwtNzI3LjUgNTIwLC03MjMuNSA1MTYsLTcyMy41IiBzdHJva2U9ImJsYWNrIiBmaWxsPSJub25lIi8+JiN4YTs8cG9seWxpbmUgcG9pbnRzPSI1MTYsLTcwMS41IDUyMCwtNzAxLjUgNTIwLC02OTcuNSA1MTYsLTY5Ny41IiBzdHJva2U9ImJsYWNrIiBmaWxsPSJub25lIi8+JiN4YTs8dGV4dCBmb250LXNpemU9IjE0LjAwIiBmb250LWZhbWlseT0iSGVsdmV0aWNhLHNhbnMtU2VyaWYiIHk9Ii03MTYuMyIgeD0iNjM3IiB0ZXh0LWFuY2hvcj0ibWlkZGxlIj5BdHRhY2hlZCBBdWRpb1N0cmVhbVBsYXllcjNEczwvdGV4dD4mI3hhOzx0ZXh0IGZvbnQtc2l6ZT0iMTQuMDAiIGZvbnQtZmFtaWx5PSJIZWx2ZXRpY2Esc2Fucy1TZXJpZiIgeT0iLTcwMS4zIiB4PSI2MzciIHRleHQtYW5jaG9yPSJtaWRkbGUiPihPbiBHYW1lIE9iamVjdHMpPC90ZXh0PiYjeGE7PC9nPiYjeGE7JiN4YTs8ZyBjbGFzcz0iZWRnZSIgaWQ9ImVkZ2UyMyI+JiN4YTs8dGl0bGU+QXVkaW9NYW5hZ2VyLSZndDtBU1AzRF9BdHRhY2hlZDwvdGl0bGU+JiN4YTs8cGF0aCBkPSJNMTIzOS42NiwtODg5QzEwNTYuMTcsLTg4OSA2NzcuMzMsLTg4OSA2NzcuMzMsLTg4OSA2NzcuMzMsLTg4OSA2NzcuMzMsLTc0MS43MiA2NzcuMzMsLTc0MS43MiIgc3Ryb2tlLWRhc2hhcnJheT0iMSw1IiBzdHJva2U9InJlZCIgZmlsbD0ibm9uZSIvPiYjeGE7PHBvbHlnb24gcG9pbnRzPSI2ODAuODMsLTc0MS43MiA2NzcuMzMsLTczMS43MiA2NzMuODMsLTc0MS43MiA2ODAuODMsLTc0MS43MiIgc3Ryb2tlPSJyZWQiIGZpbGw9InJlZCIvPiYjeGE7PHRleHQgZm9udC1zaXplPSIxMC4wMCIgZm9udC1mYW1pbHk9IkhlbHZldGljYSxzYW5zLVNlcmlmIiB5PSItODA0IiB4PSI3NTEuNSIgdGV4dC1hbmNob3I9Im1pZGRsZSI+Q29udHJvbHM8L3RleHQ+JiN4YTs8L2c+JiN4YTsmI3hhOzxnIGNsYXNzPSJub2RlIiBpZD0ibm9kZTE2Ij4mI3hhOzx0aXRsZT5BdWRpb0Fzc2V0czwvdGl0bGU+JiN4YTs8cG9seWdvbiBwb2ludHM9IjE4ODAuNSwtNzM5IDE3MDUuNSwtNzM5IDE3MDUuNSwtNjg2IDE4ODYuNSwtNjg2IDE4ODYuNSwtNzMzIDE4ODAuNSwtNzM5IiBzdHJva2U9ImJsYWNrIiBmaWxsPSJ5ZWxsb3ciLz4mI3hhOzxwb2x5bGluZSBwb2ludHM9IjE4ODAuNSwtNzM5IDE4ODAuNSwtNzMzIiBzdHJva2U9ImJsYWNrIiBmaWxsPSJub25lIi8+JiN4YTs8cG9seWxpbmUgcG9pbnRzPSIxODg2LjUsLTczMyAxODgwLjUsLTczMyIgc3Ryb2tlPSJibGFjayIgZmlsbD0ibm9uZSIvPiYjeGE7PHRleHQgZm9udC1zaXplPSIxNC4wMCIgZm9udC1mYW1pbHk9IkhlbHZldGljYSxzYW5zLVNlcmlmIiB5PSItNzIzLjgiIHg9IjE3OTYiIHRleHQtYW5jaG9yPSJtaWRkbGUiPkF1ZGlvU3RyZWFtIFJlc291cmNlczwvdGV4dD4mI3hhOzx0ZXh0IGZvbnQtc2l6ZT0iMTQuMDAiIGZvbnQtZmFtaWx5PSJIZWx2ZXRpY2Esc2Fucy1TZXJpZiIgeT0iLTcwOC44IiB4PSIxNzk2IiB0ZXh0LWFuY2hvcj0ibWlkZGxlIj4oLm9nZywgLndhdik8L3RleHQ+JiN4YTs8dGV4dCBmb250LXNpemU9IjE0LjAwIiBmb250LWZhbWlseT0iSGVsdmV0aWNhLHNhbnMtU2VyaWYiIHk9Ii02OTMuOCIgeD0iMTc5NiIgdGV4dC1hbmNob3I9Im1pZGRsZSI+KFNGWCwgTXVzaWMpPC90ZXh0PiYjeGE7PC9nPiYjeGE7JiN4YTs8ZyBjbGFzcz0iZWRnZSIgaWQ9ImVkZ2UyNCI+JiN4YTs8dGl0bGU+QXVkaW9NYW5hZ2VyLSZndDtBdWRpb0Fzc2V0czwvdGl0bGU+JiN4YTs8cGF0aCBkPSJNMTQxMiwtODY2LjQyQzE0MTIsLTgxMi4yMyAxNDEyLC03MzYgMTQxMiwtNzM2IDE0MTIsLTczNiAxNjk1LjQ4LC03MzYgMTY5NS40OCwtNzM2IiBzdHJva2U9ImJsYWNrIiBmaWxsPSJub25lIi8+JiN4YTs8cG9seWdvbiBwb2ludHM9IjE2OTUuNDgsLTczOS41IDE3MDUuNDgsLTczNiAxNjk1LjQ4LC03MzIuNSAxNjk1LjQ4LC03MzkuNSIgc3Ryb2tlPSJibGFjayIgZmlsbD0iYmxhY2siLz4mI3hhOzx0ZXh0IGZvbnQtc2l6ZT0iMTAuMDAiIGZvbnQtZmFtaWx5PSJIZWx2ZXRpY2Esc2Fucy1TZXJpZiIgeT0iLTgwNCIgeD0iMTcwMS41IiB0ZXh0LWFuY2hvcj0ibWlkZGxlIj5Mb2FkczwvdGV4dD4mI3hhOzwvZz4mI3hhOyYjeGE7PGcgY2xhc3M9Im5vZGUiIGlkPSJub2RlMTciPiYjeGE7PHRpdGxlPkF1ZGlvU2VydmVyPC90aXRsZT4mI3hhOzxwb2x5Z29uIHBvaW50cz0iMTI3NiwtNjEgMTE3NCwtNjEgMTE3NCwtMjUgMTI3NiwtMjUgMTI3NiwtNjEiIHN0cm9rZT0iYmxhY2siIGZpbGw9ImxpZ2h0Ymx1ZSIvPiYjeGE7PHRleHQgZm9udC1zaXplPSIxNC4wMCIgZm9udC1mYW1pbHk9IkhlbHZldGljYSxzYW5zLVNlcmlmIiB5PSItMzkuMyIgeD0iMTIyNSIgdGV4dC1hbmNob3I9Im1pZGRsZSI+QXVkaW9TZXJ2ZXI8L3RleHQ+JiN4YTs8L2c+JiN4YTsmI3hhOzxnIGNsYXNzPSJlZGdlIiBpZD0iZWRnZTI1Ij4mI3hhOzx0aXRsZT5BdWRpb01hbmFnZXItJmd0O0F1ZGlvU2VydmVyPC90aXRsZT4mI3hhOzxwYXRoIGQ9Ik0xMzM5LC04NjYuMzJDMTMzOSwtNjc2LjQyIDEzMzksLTQzIDEzMzksLTQzIDEzMzksLTQzIDEyODYuMzMsLTQzIDEyODYuMzMsLTQzIiBzdHJva2UtZGFzaGFycmF5PSIxLDUiIHN0cm9rZT0icmVkIiBmaWxsPSJub25lIi8+JiN4YTs8cG9seWdvbiBwb2ludHM9IjEyODYuMzMsLTM5LjUgMTI3Ni4zMywtNDMgMTI4Ni4zMywtNDYuNSAxMjg2LjMzLC0zOS41IiBzdHJva2U9InJlZCIgZmlsbD0icmVkIi8+JiN4YTs8dGV4dCBmb250LXNpemU9IjEwLjAwIiBmb250LWZhbWlseT0iSGVsdmV0aWNhLHNhbnMtU2VyaWYiIHk9Ii00MzAiIHg9IjIwMTkiIHRleHQtYW5jaG9yPSJtaWRkbGUiPlNldHMgQnVzIFZvbHVtZXM8L3RleHQ+JiN4YTs8L2c+JiN4YTsmI3hhOzxnIGNsYXNzPSJlZGdlIiBpZD0iZWRnZTI2Ij4mI3hhOzx0aXRsZT5BU1BfUG9vbC0mZ3Q7QXVkaW9Bc3NldHM8L3RpdGxlPiYjeGE7PHBhdGggZD0iTTEyOTMuNSwtNjkzLjM1QzEyOTMuNSwtNjkyLjUgMTI5My41LC02OTIgMTI5My41LC02OTIgMTI5My41LC02OTIgMTY5NS4yOSwtNjkyIDE2OTUuMjksLTY5MiIgc3Ryb2tlPSJibGFjayIgZmlsbD0ibm9uZSIvPiYjeGE7PHBvbHlnb24gcG9pbnRzPSIxNjk1LjI5LC02OTUuNSAxNzA1LjI5LC02OTIgMTY5NS4yOSwtNjg4LjUgMTY5NS4yOSwtNjk1LjUiIHN0cm9rZT0iYmxhY2siIGZpbGw9ImJsYWNrIi8+JiN4YTs8dGV4dCBmb250LXNpemU9IjEwLjAwIiBmb250LWZhbWlseT0iSGVsdmV0aWNhLHNhbnMtU2VyaWYiIHk9Ii04MDQiIHg9IjEzODgiIHRleHQtYW5jaG9yPSJtaWRkbGUiPlVzZXM8L3RleHQ+JiN4YTs8L2c+JiN4YTsmI3hhOzxnIGNsYXNzPSJub2RlIiBpZD0ibm9kZTIxIj4mI3hhOzx0aXRsZT5CdXNfVUk8L3RpdGxlPiYjeGE7PHBvbHlnb24gcG9pbnRzPSIxMjc3LC01MjggMTI3NCwtNTMyIDEyNTMsLTUzMiAxMjUwLC01MjggMTIyMywtNTI4IDEyMjMsLTQ5MiAxMjc3LC00OTIgMTI3NywtNTI4IiBzdHJva2U9ImJsYWNrIiBmaWxsPSJvcmFuZ2UiLz4mI3hhOzx0ZXh0IGZvbnQtc2l6ZT0iMTQuMDAiIGZvbnQtZmFtaWx5PSJIZWx2ZXRpY2Esc2Fucy1TZXJpZiIgeT0iLTUwNi4zIiB4PSIxMjUwIiB0ZXh0LWFuY2hvcj0ibWlkZGxlIj5VSTwvdGV4dD4mI3hhOzwvZz4mI3hhOyYjeGE7PGcgY2xhc3M9ImVkZ2UiIGlkPSJlZGdlMzIiPiYjeGE7PHRpdGxlPkFTUF9Qb29sLSZndDtCdXNfVUk8L3RpdGxlPiYjeGE7PHBhdGggZD0iTTEyNTAsLTY5My40NUMxMjUwLC02OTMuNDUgMTI1MCwtNTM4LjI3IDEyNTAsLTUzOC4yNyIgc3Ryb2tlLWRhc2hhcnJheT0iNSwyIiBzdHJva2U9ImJsdWUiIGZpbGw9Im5vbmUiLz4mI3hhOzxwb2x5Z29uIHBvaW50cz0iMTI1My41LC01MzguMjcgMTI1MCwtNTI4LjI3IDEyNDYuNSwtNTM4LjI3IDEyNTMuNSwtNTM4LjI3IiBzdHJva2U9ImJsdWUiIGZpbGw9ImJsdWUiLz4mI3hhOzx0ZXh0IGZvbnQtc2l6ZT0iMTAuMDAiIGZvbnQtZmFtaWx5PSJIZWx2ZXRpY2Esc2Fucy1TZXJpZiIgeT0iLTYyNCIgeD0iMTMyNy41IiB0ZXh0LWFuY2hvcj0ibWlkZGxlIj5VSSBTRlggU3RyZWFtPC90ZXh0PiYjeGE7PC9nPiYjeGE7JiN4YTs8ZyBjbGFzcz0iZWRnZSIgaWQ9ImVkZ2UyNyI+JiN4YTs8dGl0bGU+QVNQM0RfUG9vbC0mZ3Q7QXVkaW9Bc3NldHM8L3RpdGxlPiYjeGE7PHBhdGggZD0iTTk2MS41LC02OTMuM0M5NjEuNSwtNjkxLjg5IDk2MS41LC02OTEgOTYxLjUsLTY5MSA5NjEuNSwtNjkxIDE2OTUuMTEsLTY5MSAxNjk1LjExLC02OTEiIHN0cm9rZT0iYmxhY2siIGZpbGw9Im5vbmUiLz4mI3hhOzxwb2x5Z29uIHBvaW50cz0iMTY5NS4xMSwtNjk0LjUgMTcwNS4xMSwtNjkxIDE2OTUuMTEsLTY4Ny41IDE2OTUuMTEsLTY5NC41IiBzdHJva2U9ImJsYWNrIiBmaWxsPSJibGFjayIvPiYjeGE7PHRleHQgZm9udC1zaXplPSIxMC4wMCIgZm9udC1mYW1pbHk9IkhlbHZldGljYSxzYW5zLVNlcmlmIiB5PSItODA0IiB4PSIxMzU1IiB0ZXh0LWFuY2hvcj0ibWlkZGxlIj5Vc2VzPC90ZXh0PiYjeGE7PC9nPiYjeGE7JiN4YTs8ZyBjbGFzcz0ibm9kZSIgaWQ9Im5vZGUyMiI+JiN4YTs8dGl0bGU+QnVzX1BsYXllcjwvdGl0bGU+JiN4YTs8cG9seWdvbiBwb2ludHM9IjEwNTIuNSwtNTI4IDEwNDkuNSwtNTMyIDEwMjguNSwtNTMyIDEwMjUuNSwtNTI4IDk5My41LC01MjggOTkzLjUsLTQ5MiAxMDUyLjUsLTQ5MiAxMDUyLjUsLTUyOCIgc3Ryb2tlPSJibGFjayIgZmlsbD0ib3JhbmdlIi8+JiN4YTs8dGV4dCBmb250LXNpemU9IjE0LjAwIiBmb250LWZhbWlseT0iSGVsdmV0aWNhLHNhbnMtU2VyaWYiIHk9Ii01MDYuMyIgeD0iMTAyMyIgdGV4dC1hbmNob3I9Im1pZGRsZSI+UGxheWVyPC90ZXh0PiYjeGE7PC9nPiYjeGE7JiN4YTs8ZyBjbGFzcz0iZWRnZSIgaWQ9ImVkZ2UzNyI+JiN4YTs8dGl0bGU+QVNQM0RfUG9vbC0mZ3Q7QnVzX1BsYXllcjwvdGl0bGU+JiN4YTs8cGF0aCBkPSJNMTAyMC41LC02OTMuNDVDMTAyMC41LC02OTMuNDUgMTAyMC41LC01MzguMjcgMTAyMC41LC01MzguMjciIHN0cm9rZS1kYXNoYXJyYXk9IjUsMiIgc3Ryb2tlPSJibHVlIiBmaWxsPSJub25lIi8+JiN4YTs8cG9seWdvbiBwb2ludHM9IjEwMjQsLTUzOC4yNyAxMDIwLjUsLTUyOC4yNyAxMDE3LC01MzguMjcgMTAyNCwtNTM4LjI3IiBzdHJva2U9ImJsdWUiIGZpbGw9ImJsdWUiLz4mI3hhOzx0ZXh0IGZvbnQtc2l6ZT0iMTAuMDAiIGZvbnQtZmFtaWx5PSJIZWx2ZXRpY2Esc2Fucy1TZXJpZiIgeT0iLTYyNCIgeD0iMTA5OC41IiB0ZXh0LWFuY2hvcj0ibWlkZGxlIj5QbGF5ZXIgU0ZYPC90ZXh0PiYjeGE7PC9nPiYjeGE7JiN4YTs8ZyBjbGFzcz0ibm9kZSIgaWQ9Im5vZGUyMyI+JiN4YTs8dGl0bGU+QnVzX0JhbGw8L3RpdGxlPiYjeGE7PHBvbHlnb24gcG9pbnRzPSIxMTY1LC01MjggMTE2MiwtNTMyIDExNDEsLTUzMiAxMTM4LC01MjggMTExMSwtNTI4IDExMTEsLTQ5MiAxMTY1LC00OTIgMTE2NSwtNTI4IiBzdHJva2U9ImJsYWNrIiBmaWxsPSJvcmFuZ2UiLz4mI3hhOzx0ZXh0IGZvbnQtc2l6ZT0iMTQuMDAiIGZvbnQtZmFtaWx5PSJIZWx2ZXRpY2Esc2Fucy1TZXJpZiIgeT0iLTUwNi4zIiB4PSIxMTM4IiB0ZXh0LWFuY2hvcj0ibWlkZGxlIj5CYWxsPC90ZXh0PiYjeGE7PC9nPiYjeGE7JiN4YTs8ZyBjbGFzcz0iZWRnZSIgaWQ9ImVkZ2UzOCI+JiN4YTs8dGl0bGU+QVNQM0RfUG9vbC0mZ3Q7QnVzX0JhbGw8L3RpdGxlPiYjeGE7PHBhdGggZD0iTTEwMzQuMDcsLTcxMkMxMDU2Ljc5LC03MTIgMTA3NCwtNzEyIDEwNzQsLTcxMiAxMDc0LC03MTIgMTA3NCwtNTEwIDEwNzQsLTUxMCAxMDc0LC01MTAgMTEwMC44NiwtNTEwIDExMDAuODYsLTUxMCIgc3Ryb2tlLWRhc2hhcnJheT0iNSwyIiBzdHJva2U9ImJsdWUiIGZpbGw9Im5vbmUiLz4mI3hhOzxwb2x5Z29uIHBvaW50cz0iMTEwMC44NiwtNTEzLjUgMTExMC44NiwtNTEwIDExMDAuODYsLTUwNi41IDExMDAuODYsLTUxMy41IiBzdHJva2U9ImJsdWUiIGZpbGw9ImJsdWUiLz4mI3hhOzx0ZXh0IGZvbnQtc2l6ZT0iMTAuMDAiIGZvbnQtZmFtaWx5PSJIZWx2ZXRpY2Esc2Fucy1TZXJpZiIgeT0iLTYyNCIgeD0iMTIwOC41IiB0ZXh0LWFuY2hvcj0ibWlkZGxlIj5CYWxsIFNGWDwvdGV4dD4mI3hhOzwvZz4mI3hhOyYjeGE7PGcgY2xhc3M9Im5vZGUiIGlkPSJub2RlMjQiPiYjeGE7PHRpdGxlPkJ1c19BYmlsaXR5PC90aXRsZT4mI3hhOzxwb2x5Z29uIHBvaW50cz0iODIzLC01MjggODIwLC01MzIgNzk5LC01MzIgNzk2LC01MjggNzYzLC01MjggNzYzLC00OTIgODIzLC00OTIgODIzLC01MjgiIHN0cm9rZT0iYmxhY2siIGZpbGw9Im9yYW5nZSIvPiYjeGE7PHRleHQgZm9udC1zaXplPSIxNC4wMCIgZm9udC1mYW1pbHk9IkhlbHZldGljYSxzYW5zLVNlcmlmIiB5PSItNTA2LjMiIHg9Ijc5MyIgdGV4dC1hbmNob3I9Im1pZGRsZSI+QWJpbGl0eTwvdGV4dD4mI3hhOzwvZz4mI3hhOyYjeGE7PGcgY2xhc3M9ImVkZ2UiIGlkPSJlZGdlMzkiPiYjeGE7PHRpdGxlPkFTUDNEX1Bvb2wtJmd0O0J1c19BYmlsaXR5PC90aXRsZT4mI3hhOzxwYXRoIGQ9Ik04MTkuNSwtNjkzLjQ1QzgxOS41LC02OTMuNDUgODE5LjUsLTUzOC4yNyA4MTkuNSwtNTM4LjI3IiBzdHJva2UtZGFzaGFycmF5PSI1LDIiIHN0cm9rZT0iYmx1ZSIgZmlsbD0ibm9uZSIvPiYjeGE7PHBvbHlnb24gcG9pbnRzPSI4MjMsLTUzOC4yNyA4MTkuNSwtNTI4LjI3IDgxNiwtNTM4LjI3IDgyMywtNTM4LjI3IiBzdHJva2U9ImJsdWUiIGZpbGw9ImJsdWUiLz4mI3hhOzx0ZXh0IGZvbnQtc2l6ZT0iMTAuMDAiIGZvbnQtZmFtaWx5PSJIZWx2ZXRpY2Esc2Fucy1TZXJpZiIgeT0iLTYyNCIgeD0iNjU5IiB0ZXh0LWFuY2hvcj0ibWlkZGxlIj5BYmlsaXR5IFNGWDwvdGV4dD4mI3hhOzwvZz4mI3hhOyYjeGE7PGcgY2xhc3M9Im5vZGUiIGlkPSJub2RlMjUiPiYjeGE7PHRpdGxlPkJ1c19FbnY8L3RpdGxlPiYjeGE7PHBvbHlnb24gcG9pbnRzPSI5MzUsLTUyOCA5MzIsLTUzMiA5MTEsLTUzMiA5MDgsLTUyOCA4ODEsLTUyOCA4ODEsLTQ5MiA5MzUsLTQ5MiA5MzUsLTUyOCIgc3Ryb2tlPSJibGFjayIgZmlsbD0ib3JhbmdlIi8+JiN4YTs8dGV4dCBmb250LXNpemU9IjE0LjAwIiBmb250LWZhbWlseT0iSGVsdmV0aWNhLHNhbnMtU2VyaWYiIHk9Ii01MDYuMyIgeD0iOTA4IiB0ZXh0LWFuY2hvcj0ibWlkZGxlIj5FbnY8L3RleHQ+JiN4YTs8L2c+JiN4YTsmI3hhOzxnIGNsYXNzPSJlZGdlIiBpZD0iZWRnZTQwIj4mI3hhOzx0aXRsZT5BU1AzRF9Qb29sLSZndDtCdXNfRW52PC90aXRsZT4mI3hhOzxwYXRoIGQ9Ik05MTcsLTY5My40NUM5MTcsLTY5My40NSA5MTcsLTUzOC4yNyA5MTcsLTUzOC4yNyIgc3Ryb2tlLWRhc2hhcnJheT0iNSwyIiBzdHJva2U9ImJsdWUiIGZpbGw9Im5vbmUiLz4mI3hhOzxwb2x5Z29uIHBvaW50cz0iOTIwLjUsLTUzOC4yNyA5MTcsLTUyOC4yNyA5MTMuNSwtNTM4LjI3IDkyMC41LC01MzguMjciIHN0cm9rZT0iYmx1ZSIgZmlsbD0iYmx1ZSIvPiYjeGE7PHRleHQgZm9udC1zaXplPSIxMC4wMCIgZm9udC1mYW1pbHk9IkhlbHZldGljYSxzYW5zLVNlcmlmIiB5PSItNjI0IiB4PSI4ODUiIHRleHQtYW5jaG9yPSJtaWRkbGUiPkVudiBTRlg8L3RleHQ+JiN4YTs8L2c+JiN4YTsmI3hhOzxnIGNsYXNzPSJlZGdlIiBpZD0iZWRnZTI4Ij4mI3hhOzx0aXRsZT5BU1BfQXR0YWNoZWQtJmd0O0F1ZGlvQXNzZXRzPC90aXRsZT4mI3hhOzxwYXRoIGQ9Ik0xNTkwLjMyLC03MTJDMTU5MC4zMiwtNzEyIDE2OTUuMzUsLTcxMiAxNjk1LjM1LC03MTIiIHN0cm9rZT0iYmxhY2siIGZpbGw9Im5vbmUiLz4mI3hhOzxwb2x5Z29uIHBvaW50cz0iMTY5NS4zNSwtNzE1LjUgMTcwNS4zNSwtNzEyIDE2OTUuMzUsLTcwOC41IDE2OTUuMzUsLTcxNS41IiBzdHJva2U9ImJsYWNrIiBmaWxsPSJibGFjayIvPiYjeGE7PC9nPiYjeGE7JiN4YTs8ZyBjbGFzcz0ibm9kZSIgaWQ9Im5vZGUxOSI+JiN4YTs8dGl0bGU+QnVzX011c2ljPC90aXRsZT4mI3hhOzxwb2x5Z29uIHBvaW50cz0iMTI1MywtMzcyLjUgMTI1MCwtMzc2LjUgMTIyOSwtMzc2LjUgMTIyNiwtMzcyLjUgMTE5NywtMzcyLjUgMTE5NywtMzM2LjUgMTI1MywtMzM2LjUgMTI1MywtMzcyLjUiIHN0cm9rZT0iYmxhY2siIGZpbGw9Im9yYW5nZSIvPiYjeGE7PHRleHQgZm9udC1zaXplPSIxNC4wMCIgZm9udC1mYW1pbHk9IkhlbHZldGljYSxzYW5zLVNlcmlmIiB5PSItMzUwLjgiIHg9IjEyMjUiIHRleHQtYW5jaG9yPSJtaWRkbGUiPk11c2ljPC90ZXh0PiYjeGE7PC9nPiYjeGE7JiN4YTs8ZyBjbGFzcz0iZWRnZSIgaWQ9ImVkZ2UzMCI+JiN4YTs8dGl0bGU+QVNQX0F0dGFjaGVkLSZndDtCdXNfTXVzaWM8L3RpdGxlPiYjeGE7PHBhdGggZD0iTTE1MTYsLTY5My4yM0MxNTE2LC02MTguNzYgMTUxNiwtMzU0IDE1MTYsLTM1NCAxNTE2LC0zNTQgMTI2My4xNywtMzU0IDEyNjMuMTcsLTM1NCIgc3Ryb2tlLWRhc2hhcnJheT0iNSwyIiBzdHJva2U9ImJsdWUiIGZpbGw9Im5vbmUiLz4mI3hhOzxwb2x5Z29uIHBvaW50cz0iMTI2My4xNywtMzUwLjUgMTI1My4xNywtMzU0IDEyNjMuMTcsLTM1Ny41IDEyNjMuMTcsLTM1MC41IiBzdHJva2U9ImJsdWUiIGZpbGw9ImJsdWUiLz4mI3hhOzx0ZXh0IGZvbnQtc2l6ZT0iMTAuMDAiIGZvbnQtZmFtaWx5PSJIZWx2ZXRpY2Esc2Fucy1TZXJpZiIgeT0iLTUwNy41IiB4PSIxNTY1LjUiIHRleHQtYW5jaG9yPSJtaWRkbGUiPk11c2ljIFN0cmVhbTwvdGV4dD4mI3hhOzwvZz4mI3hhOyYjeGE7PGcgY2xhc3M9ImVkZ2UiIGlkPSJlZGdlMzEiPiYjeGE7PHRpdGxlPkFTUF9BdHRhY2hlZC0mZ3Q7QnVzX1VJPC90aXRsZT4mI3hhOzxwYXRoIGQ9Ik0xNDQyLC02OTMuNDVDMTQ0MiwtNjQzLjA0IDE0NDIsLTUxMCAxNDQyLC01MTAgMTQ0MiwtNTEwIDEyODcuMSwtNTEwIDEyODcuMSwtNTEwIiBzdHJva2UtZGFzaGFycmF5PSI1LDIiIHN0cm9rZT0iYmx1ZSIgZmlsbD0ibm9uZSIvPiYjeGE7PHBvbHlnb24gcG9pbnRzPSIxMjg3LjEsLTUwNi41IDEyNzcuMSwtNTEwIDEyODcuMSwtNTEzLjUgMTI4Ny4xLC01MDYuNSIgc3Ryb2tlPSJibHVlIiBmaWxsPSJibHVlIi8+JiN4YTs8dGV4dCBmb250LXNpemU9IjEwLjAwIiBmb250LWZhbWlseT0iSGVsdmV0aWNhLHNhbnMtU2VyaWYiIHk9Ii02MjQiIHg9IjE0NjEuNSIgdGV4dC1hbmNob3I9Im1pZGRsZSI+VUkgU0ZYIFN0cmVhbTwvdGV4dD4mI3hhOzwvZz4mI3hhOyYjeGE7PGcgY2xhc3M9ImVkZ2UiIGlkPSJlZGdlMjkiPiYjeGE7PHRpdGxlPkFTUDNEX0F0dGFjaGVkLSZndDtBdWRpb0Fzc2V0czwvdGl0bGU+JiN4YTs8cGF0aCBkPSJNNTk2LjY3LC03MzEuN0M1OTYuNjcsLTczMy4xMSA1OTYuNjcsLTczNCA1OTYuNjcsLTczNCA1OTYuNjcsLTczNCAxNjk1LjM2LC03MzQgMTY5NS4zNiwtNzM0IiBzdHJva2U9ImJsYWNrIiBmaWxsPSJub25lIi8+JiN4YTs8cG9seWdvbiBwb2ludHM9IjE2OTUuMzYsLTczNy41IDE3MDUuMzYsLTczNCAxNjk1LjM2LC03MzAuNSAxNjk1LjM2LC03MzcuNSIgc3Ryb2tlPSJibGFjayIgZmlsbD0iYmxhY2siLz4mI3hhOzx0ZXh0IGZvbnQtc2l6ZT0iMTAuMDAiIGZvbnQtZmFtaWx5PSJIZWx2ZXRpY2Esc2Fucy1TZXJpZiIgeT0iLTgwNCIgeD0iMTI4NiIgdGV4dC1hbmNob3I9Im1pZGRsZSI+VXNlczwvdGV4dD4mI3hhOzwvZz4mI3hhOyYjeGE7PGcgY2xhc3M9ImVkZ2UiIGlkPSJlZGdlMzMiPiYjeGE7PHRpdGxlPkFTUDNEX0F0dGFjaGVkLSZndDtCdXNfUGxheWVyPC90aXRsZT4mI3hhOzxwYXRoIGQ9Ik02MzcsLTY5My4yQzYzNywtNjkwLjE2IDYzNywtNjg4IDYzNywtNjg4IDYzNywtNjg4IDEwMDcsLTY4OCAxMDA3LC02ODggMTAwNywtNjg4IDEwMDcsLTUzOC4wNSAxMDA3LC01MzguMDUiIHN0cm9rZS1kYXNoYXJyYXk9IjUsMiIgc3Ryb2tlPSJibHVlIiBmaWxsPSJub25lIi8+JiN4YTs8cG9seWdvbiBwb2ludHM9IjEwMTAuNSwtNTM4LjA1IDEwMDcsLTUyOC4wNSAxMDAzLjUsLTUzOC4wNSAxMDEwLjUsLTUzOC4wNSIgc3Ryb2tlPSJibHVlIiBmaWxsPSJibHVlIi8+JiN4YTs8dGV4dCBmb250LXNpemU9IjEwLjAwIiBmb250LWZhbWlseT0iSGVsdmV0aWNhLHNhbnMtU2VyaWYiIHk9Ii02MjQiIHg9Ijc3NS41IiB0ZXh0LWFuY2hvcj0ibWlkZGxlIj5QbGF5ZXIgU0ZYPC90ZXh0PiYjeGE7PC9nPiYjeGE7JiN4YTs8ZyBjbGFzcz0iZWRnZSIgaWQ9ImVkZ2UzNCI+JiN4YTs8dGl0bGU+QVNQM0RfQXR0YWNoZWQtJmd0O0J1c19CYWxsPC90aXRsZT4mI3hhOzxwYXRoIGQ9Ik02OTcuNSwtNjkzLjA5QzY5Ny41LC02OTAuNjYgNjk3LjUsLTY4OSA2OTcuNSwtNjg5IDY5Ny41LC02ODkgMTEzOCwtNjg5IDExMzgsLTY4OSAxMTM4LC02ODkgMTEzOCwtNTM4LjE1IDExMzgsLTUzOC4xNSIgc3Ryb2tlLWRhc2hhcnJheT0iNSwyIiBzdHJva2U9ImJsdWUiIGZpbGw9Im5vbmUiLz4mI3hhOzxwb2x5Z29uIHBvaW50cz0iMTE0MS41LC01MzguMTUgMTEzOCwtNTI4LjE1IDExMzQuNSwtNTM4LjE1IDExNDEuNSwtNTM4LjE1IiBzdHJva2U9ImJsdWUiIGZpbGw9ImJsdWUiLz4mI3hhOzx0ZXh0IGZvbnQtc2l6ZT0iMTAuMDAiIGZvbnQtZmFtaWx5PSJIZWx2ZXRpY2Esc2Fucy1TZXJpZiIgeT0iLTYyNCIgeD0iOTg4LjUiIHRleHQtYW5jaG9yPSJtaWRkbGUiPkJhbGwgU0ZYPC90ZXh0PiYjeGE7PC9nPiYjeGE7JiN4YTs8ZyBjbGFzcz0iZWRnZSIgaWQ9ImVkZ2UzNSI+JiN4YTs8dGl0bGU+QVNQM0RfQXR0YWNoZWQtJmd0O0J1c19BYmlsaXR5PC90aXRsZT4mI3hhOzxwYXRoIGQ9Ik03NTguMjcsLTcxMkM3NzYuNTgsLTcxMiA3ODkuNSwtNzEyIDc4OS41LC03MTIgNzg5LjUsLTcxMiA3ODkuNSwtNTM4LjI4IDc4OS41LC01MzguMjgiIHN0cm9rZS1kYXNoYXJyYXk9IjUsMiIgc3Ryb2tlPSJibHVlIiBmaWxsPSJub25lIi8+JiN4YTs8cG9seWdvbiBwb2ludHM9Ijc5MywtNTM4LjI4IDc4OS41LC01MjguMjggNzg2LC01MzguMjggNzkzLC01MzguMjgiIHN0cm9rZT0iYmx1ZSIgZmlsbD0iYmx1ZSIvPiYjeGE7PHRleHQgZm9udC1zaXplPSIxMC4wMCIgZm9udC1mYW1pbHk9IkhlbHZldGljYSxzYW5zLVNlcmlmIiB5PSItNjI0IiB4PSI0MzkiIHRleHQtYW5jaG9yPSJtaWRkbGUiPkFiaWxpdHkgU0ZYPC90ZXh0PiYjeGE7PC9nPiYjeGE7JiN4YTs8ZyBjbGFzcz0iZWRnZSIgaWQ9ImVkZ2UzNiI+JiN4YTs8dGl0bGU+QVNQM0RfQXR0YWNoZWQtJmd0O0J1c19FbnY8L3RpdGxlPiYjeGE7PHBhdGggZD0iTTU3Ni41LC02OTMuNDNDNTc2LjUsLTY4OS43NSA1NzYuNSwtNjg3IDU3Ni41LC02ODcgNTc2LjUsLTY4NyA4OTksLTY4NyA4OTksLTY4NyA4OTksLTY4NyA4OTksLTUzOC4yOCA4OTksLTUzOC4yOCIgc3Ryb2tlLWRhc2hhcnJheT0iNSwyIiBzdHJva2U9ImJsdWUiIGZpbGw9Im5vbmUiLz4mI3hhOzxwb2x5Z29uIHBvaW50cz0iOTAyLjUsLTUzOC4yOCA4OTksLTUyOC4yOCA4OTUuNSwtNTM4LjI4IDkwMi41LC01MzguMjgiIHN0cm9rZT0iYmx1ZSIgZmlsbD0iYmx1ZSIvPiYjeGE7PHRleHQgZm9udC1zaXplPSIxMC4wMCIgZm9udC1mYW1pbHk9IkhlbHZldGljYSxzYW5zLVNlcmlmIiB5PSItNjI0IiB4PSI1NDkiIHRleHQtYW5jaG9yPSJtaWRkbGUiPkVudiBTRlg8L3RleHQ+JiN4YTs8L2c+JiN4YTsmI3hhOzxnIGNsYXNzPSJub2RlIiBpZD0ibm9kZTE4Ij4mI3hhOzx0aXRsZT5CdXNfTWFzdGVyPC90aXRsZT4mI3hhOzxwb2x5Z29uIHBvaW50cz0iMTIwMSwtMjE3IDExOTgsLTIyMSAxMTc3LC0yMjEgMTE3NCwtMjE3IDExMzcsLTIxNyAxMTM3LC0xODEgMTIwMSwtMTgxIDEyMDEsLTIxNyIgc3Ryb2tlPSJibGFjayIgZmlsbD0ib3JhbmdlIi8+JiN4YTs8dGV4dCBmb250LXNpemU9IjE0LjAwIiBmb250LWZhbWlseT0iSGVsdmV0aWNhLHNhbnMtU2VyaWYiIHk9Ii0xOTUuMyIgeD0iMTE2OSIgdGV4dC1hbmNob3I9Im1pZGRsZSI+TWFzdGVyPC90ZXh0PiYjeGE7PC9nPiYjeGE7JiN4YTs8ZyBjbGFzcz0iZWRnZSIgaWQ9ImVkZ2UxNCI+JiN4YTs8dGl0bGU+QnVzX01hc3Rlci0mZ3Q7QXVkaW9TZXJ2ZXI8L3RpdGxlPiYjeGE7PHBhdGggZD0iTTExODcuNSwtMTgwLjhDMTE4Ny41LC0xODAuOCAxMTg3LjUsLTcxLjA4IDExODcuNSwtNzEuMDgiIHN0cm9rZS1kYXNoYXJyYXk9IjUsMiIgc3Ryb2tlPSJibHVlIiBmaWxsPSJub25lIi8+JiN4YTs8cG9seWdvbiBwb2ludHM9IjExOTEsLTcxLjA4IDExODcuNSwtNjEuMDggMTE4NCwtNzEuMDggMTE5MSwtNzEuMDgiIHN0cm9rZT0iYmx1ZSIgZmlsbD0iYmx1ZSIvPiYjeGE7PHRleHQgZm9udC1zaXplPSIxMC4wMCIgZm9udC1mYW1pbHk9IkhlbHZldGljYSxzYW5zLVNlcmlmIiB5PSItMTE5IiB4PSIxMjMyLjUiIHRleHQtYW5jaG9yPSJtaWRkbGUiPk91dHB1dCB0byBEZXZpY2U8L3RleHQ+JiN4YTs8L2c+JiN4YTsmI3hhOzxnIGNsYXNzPSJub2RlIiBpZD0ibm9kZTI2Ij4mI3hhOzx0aXRsZT5CdXNfRWZmZWN0czwvdGl0bGU+JiN4YTs8cG9seWdvbiBwb2ludHM9IjExMDAuNSwtNTYgOTQ1LjUsLTU2IDk0NS41LC0zMCAxMTAwLjUsLTMwIDExMTIuNSwtNDMgMTEwMC41LC01NiIgc3Ryb2tlPSJibGFjayIgZmlsbD0ibGlnaHRncmV5Ii8+JiN4YTs8dGV4dCBmb250LXNpemU9IjE0LjAwIiBmb250LWZhbWlseT0iSGVsdmV0aWNhLHNhbnMtU2VyaWYiIHk9Ii00Ni44IiB4PSIxMDI5IiB0ZXh0LWFuY2hvcj0ibWlkZGxlIj5BdWRpbyBFZmZlY3RzPC90ZXh0PiYjeGE7PHRleHQgZm9udC1zaXplPSIxNC4wMCIgZm9udC1mYW1pbHk9IkhlbHZldGljYSxzYW5zLVNlcmlmIiB5PSItMzEuOCIgeD0iMTAyOSIgdGV4dC1hbmNob3I9Im1pZGRsZSI+KFJldmVyYiwgTGltaXRlciwgZXRjLik8L3RleHQ+JiN4YTs8L2c+JiN4YTsmI3hhOzxnIGNsYXNzPSJlZGdlIiBpZD0iZWRnZTE1Ij4mI3hhOzx0aXRsZT5CdXNfTWFzdGVyLSZndDtCdXNfRWZmZWN0czwvdGl0bGU+JiN4YTs8cGF0aCBkPSJNMTEzNi44MywtMTk5QzExMTkuNDUsLTE5OSAxMTAxLjUsLTE5OSAxMTAxLjUsLTE5OSAxMTAxLjUsLTE5OSAxMTAxLjUsLTcyLjEzIDExMDEuNSwtNzIuMTMiIHN0cm9rZS1kYXNoYXJyYXk9IjEsNSIgc3Ryb2tlPSJncmV5IiBmaWxsPSJub25lIi8+JiN4YTs8cG9seWdvbiBwb2ludHM9IjExMDUsLTcyLjEzIDExMDEuNSwtNjIuMTMgMTA5OCwtNzIuMTMgMTEwNSwtNzIuMTMiIHN0cm9rZT0iZ3JleSIgZmlsbD0iZ3JleSIvPiYjeGE7PHRleHQgZm9udC1zaXplPSIxMC4wMCIgZm9udC1mYW1pbHk9IkhlbHZldGljYSxzYW5zLVNlcmlmIiB5PSItMTE5IiB4PSIxMTEyIiB0ZXh0LWFuY2hvcj0ibWlkZGxlIj5hcHBseTwvdGV4dD4mI3hhOzwvZz4mI3hhOyYjeGE7PGcgY2xhc3M9ImVkZ2UiIGlkPSJlZGdlMTMiPiYjeGE7PHRpdGxlPkJ1c19NdXNpYy0mZ3Q7QnVzX01hc3RlcjwvdGl0bGU+JiN4YTs8cGF0aCBkPSJNMTE5Ni45LC0zNDNDMTE5MC45LC0zNDMgMTE4Ni4zMywtMzQzIDExODYuMzMsLTM0MyAxMTg2LjMzLC0zNDMgMTE4Ni4zMywtMjI3LjI0IDExODYuMzMsLTIyNy4yNCIgc3Ryb2tlLWRhc2hhcnJheT0iNSwyIiBzdHJva2U9ImJsdWUiIGZpbGw9Im5vbmUiLz4mI3hhOzxwb2x5Z29uIHBvaW50cz0iMTE4OS44MywtMjI3LjI0IDExODYuMzMsLTIxNy4yNCAxMTgyLjgzLC0yMjcuMjQgMTE4OS44MywtMjI3LjI0IiBzdHJva2U9ImJsdWUiIGZpbGw9ImJsdWUiLz4mI3hhOzwvZz4mI3hhOyYjeGE7PGcgY2xhc3M9Im5vZGUiIGlkPSJub2RlMjAiPiYjeGE7PHRpdGxlPkJ1c19TRlg8L3RpdGxlPiYjeGE7PHBvbHlnb24gcG9pbnRzPSIxMDU2LC0zNzIuNSAxMDUzLC0zNzYuNSAxMDMyLC0zNzYuNSAxMDI5LC0zNzIuNSAxMDAyLC0zNzIuNSAxMDAyLC0zMzYuNSAxMDU2LC0zMzYuNSAxMDU2LC0zNzIuNSIgc3Ryb2tlPSJibGFjayIgZmlsbD0ib3JhbmdlIi8+JiN4YTs8dGV4dCBmb250LXNpemU9IjE0LjAwIiBmb250LWZhbWlseT0iSGVsdmV0aWNhLHNhbnMtU2VyaWYiIHk9Ii0zNTAuOCIgeD0iMTAyOSIgdGV4dC1hbmNob3I9Im1pZGRsZSI+U0ZYPC90ZXh0PiYjeGE7PC9nPiYjeGE7JiN4YTs8ZyBjbGFzcz0iZWRnZSIgaWQ9ImVkZ2UxMiI+JiN4YTs8dGl0bGU+QnVzX1NGWC0mZ3Q7QnVzX01hc3RlcjwvdGl0bGU+JiN4YTs8cGF0aCBkPSJNMTA1Ni4wOCwtMzUwQzEwOTIuMDIsLTM1MCAxMTUxLC0zNTAgMTE1MSwtMzUwIDExNTEsLTM1MCAxMTUxLC0yMjcuMjEgMTE1MSwtMjI3LjIxIiBzdHJva2UtZGFzaGFycmF5PSI1LDIiIHN0cm9rZT0iYmx1ZSIgZmlsbD0ibm9uZSIvPiYjeGE7PHBvbHlnb24gcG9pbnRzPSIxMTU0LjUsLTIyNy4yMSAxMTUxLC0yMTcuMjEgMTE0Ny41LC0yMjcuMjEgMTE1NC41LC0yMjcuMjEiIHN0cm9rZT0iYmx1ZSIgZmlsbD0iYmx1ZSIvPiYjeGE7PC9nPiYjeGE7JiN4YTs8ZyBjbGFzcz0iZWRnZSIgaWQ9ImVkZ2UxNiI+JiN4YTs8dGl0bGU+QnVzX1NGWC0mZ3Q7QnVzX0VmZmVjdHM8L3RpdGxlPiYjeGE7PHBhdGggZD0iTTEwMjksLTMzNi40MUMxMDI5LC0zMzYuNDEgMTAyOSwtNzIuMzMgMTAyOSwtNzIuMzMiIHN0cm9rZS1kYXNoYXJyYXk9IjEsNSIgc3Ryb2tlPSJncmV5IiBmaWxsPSJub25lIi8+JiN4YTs8cG9seWdvbiBwb2ludHM9IjEwMzIuNSwtNzIuMzMgMTAyOSwtNjIuMzMgMTAyNS41LC03Mi4zMyAxMDMyLjUsLTcyLjMzIiBzdHJva2U9ImdyZXkiIGZpbGw9ImdyZXkiLz4mI3hhOzx0ZXh0IGZvbnQtc2l6ZT0iMTAuMDAiIGZvbnQtZmFtaWx5PSJIZWx2ZXRpY2Esc2Fucy1TZXJpZiIgeT0iLTE5Ni41IiB4PSIxMDQzIiB0ZXh0LWFuY2hvcj0ibWlkZGxlIj5hcHBseTwvdGV4dD4mI3hhOzwvZz4mI3hhOyYjeGE7PGcgY2xhc3M9ImVkZ2UiIGlkPSJlZGdlNyI+JiN4YTs8dGl0bGU+QnVzX1VJLSZndDtCdXNfU0ZYPC90aXRsZT4mI3hhOzxwYXRoIGQ9Ik0xMjIyLjc0LC01MTBDMTIwMS41MywtNTEwIDExNzUuNjcsLTUxMCAxMTc1LjY3LC01MTAgMTE3NS42NywtNTEwIDExNzUuNjcsLTM1OCAxMTc1LjY3LC0zNTggMTE3NS42NywtMzU4IDEwNjYuMjQsLTM1OCAxMDY2LjI0LC0zNTgiIHN0cm9rZS1kYXNoYXJyYXk9IjUsMiIgc3Ryb2tlPSJibHVlIiBmaWxsPSJub25lIi8+JiN4YTs8cG9seWdvbiBwb2ludHM9IjEwNjYuMjQsLTM1NC41IDEwNTYuMjQsLTM1OCAxMDY2LjI0LC0zNjEuNSAxMDY2LjI0LC0zNTQuNSIgc3Ryb2tlPSJibHVlIiBmaWxsPSJibHVlIi8+JiN4YTs8L2c+JiN4YTsmI3hhOzxnIGNsYXNzPSJlZGdlIiBpZD0iZWRnZTgiPiYjeGE7PHRpdGxlPkJ1c19QbGF5ZXItJmd0O0J1c19TRlg8L3RpdGxlPiYjeGE7PHBhdGggZD0iTTEwMjcuMjUsLTQ5MS44NkMxMDI3LjI1LC00OTEuODYgMTAyNy4yNSwtMzgyLjUzIDEwMjcuMjUsLTM4Mi41MyIgc3Ryb2tlLWRhc2hhcnJheT0iNSwyIiBzdHJva2U9ImJsdWUiIGZpbGw9Im5vbmUiLz4mI3hhOzxwb2x5Z29uIHBvaW50cz0iMTAzMC43NSwtMzgyLjUzIDEwMjcuMjUsLTM3Mi41MyAxMDIzLjc1LC0zODIuNTMgMTAzMC43NSwtMzgyLjUzIiBzdHJva2U9ImJsdWUiIGZpbGw9ImJsdWUiLz4mI3hhOzwvZz4mI3hhOyYjeGE7PGcgY2xhc3M9ImVkZ2UiIGlkPSJlZGdlOSI+JiN4YTs8dGl0bGU+QnVzX0JhbGwtJmd0O0J1c19TRlg8L3RpdGxlPiYjeGE7PHBhdGggZD0iTTExMjQuNzUsLTQ5MS45M0MxMTI0Ljc1LC00NTMuMDYgMTEyNC43NSwtMzY1IDExMjQuNzUsLTM2NSAxMTI0Ljc1LC0zNjUgMTA2Ni4xOCwtMzY1IDEwNjYuMTgsLTM2NSIgc3Ryb2tlLWRhc2hhcnJheT0iNSwyIiBzdHJva2U9ImJsdWUiIGZpbGw9Im5vbmUiLz4mI3hhOzxwb2x5Z29uIHBvaW50cz0iMTA2Ni4xOCwtMzYxLjUgMTA1Ni4xOCwtMzY1IDEwNjYuMTgsLTM2OC41IDEwNjYuMTgsLTM2MS41IiBzdHJva2U9ImJsdWUiIGZpbGw9ImJsdWUiLz4mI3hhOzwvZz4mI3hhOyYjeGE7PGcgY2xhc3M9ImVkZ2UiIGlkPSJlZGdlMTAiPiYjeGE7PHRpdGxlPkJ1c19BYmlsaXR5LSZndDtCdXNfU0ZYPC90aXRsZT4mI3hhOzxwYXRoIGQ9Ik03OTMsLTQ5MS43M0M3OTMsLTQ0OS4zNiA3OTMsLTM0OCA3OTMsLTM0OCA3OTMsLTM0OCA5OTEuOTMsLTM0OCA5OTEuOTMsLTM0OCIgc3Ryb2tlLWRhc2hhcnJheT0iNSwyIiBzdHJva2U9ImJsdWUiIGZpbGw9Im5vbmUiLz4mI3hhOzxwb2x5Z29uIHBvaW50cz0iOTkxLjkzLC0zNTEuNSAxMDAxLjkzLC0zNDggOTkxLjkzLC0zNDQuNSA5OTEuOTMsLTM1MS41IiBzdHJva2U9ImJsdWUiIGZpbGw9ImJsdWUiLz4mI3hhOzwvZz4mI3hhOyYjeGE7PGcgY2xhc3M9ImVkZ2UiIGlkPSJlZGdlMTEiPiYjeGE7PHRpdGxlPkJ1c19FbnYtJmd0O0J1c19TRlg8L3RpdGxlPiYjeGE7PHBhdGggZD0iTTkwOCwtNDkxLjkxQzkwOCwtNDUyLjAxIDkwOCwtMzYwIDkwOCwtMzYwIDkwOCwtMzYwIDk5MS44NSwtMzYwIDk5MS44NSwtMzYwIiBzdHJva2UtZGFzaGFycmF5PSI1LDIiIHN0cm9rZT0iYmx1ZSIgZmlsbD0ibm9uZSIvPiYjeGE7PHBvbHlnb24gcG9pbnRzPSI5OTEuODUsLTM2My41IDEwMDEuODUsLTM2MCA5OTEuODUsLTM1Ni41IDk5MS44NSwtMzYzLjUiIHN0cm9rZT0iYmx1ZSIgZmlsbD0iYmx1ZSIvPiYjeGE7PC9nPiYjeGE7JiN4YTs8ZyBjbGFzcz0iZWRnZSIgaWQ9ImVkZ2UxNyI+JiN4YTs8dGl0bGU+QnVzX0Vudi0mZ3Q7QnVzX0VmZmVjdHM8L3RpdGxlPiYjeGE7PHBhdGggZD0iTTkzNS4wNywtNTEwQzk1NC41OCwtNTEwIDk3Ny41LC01MTAgOTc3LjUsLTUxMCA5NzcuNSwtNTEwIDk3Ny41LC03Mi4xOCA5NzcuNSwtNzIuMTgiIHN0cm9rZS1kYXNoYXJyYXk9IjEsNSIgc3Ryb2tlPSJncmV5IiBmaWxsPSJub25lIi8+JiN4YTs8cG9seWdvbiBwb2ludHM9Ijk4MSwtNzIuMTggOTc3LjUsLTYyLjE4IDk3NCwtNzIuMTggOTgxLC03Mi4xOCIgc3Ryb2tlPSJncmV5IiBmaWxsPSJncmV5Ii8+JiN4YTs8dGV4dCBmb250LXNpemU9IjEwLjAwIiBmb250LWZhbWlseT0iSGVsdmV0aWNhLHNhbnMtU2VyaWYiIHk9Ii0yNzQiIHg9IjkyNCIgdGV4dC1hbmNob3I9Im1pZGRsZSI+YXBwbHk8L3RleHQ+JiN4YTs8L2c+JiN4YTs8L2c+JiN4YTs8L3N2Zz4=;" vertex="1" parent="1">
          <mxGeometry x="-2490" y="-1790" width="1200" height="700" as="geometry" />
        </mxCell>
      </root>
    </mxGraphModel>
  </diagram>
</mxfile>
